<svg xmlns="http://www.w3.org/2000/svg" fill="none" viewBox="0 0 109 32"><path d="M28.158 18.117h3.717c-.292 7.505-5.976 13.49-12.948 13.49-6.971 0-12.656-5.985-12.948-13.49h3.718c.287 5.275 4.305 9.462 9.23 9.462 4.926 0 8.944-4.187 9.23-9.462Z" fill="#fff"/><path d="M5.57 17.723h4.5l.02.373c.277 5.097 4.15 9.09 8.837 9.09 4.687 0 8.56-3.993 8.837-9.09l.02-.373h4.5l-.016.41C31.97 25.816 26.14 32 18.928 32c-7.214 0-13.043-6.183-13.342-13.868l-.016-.41Zm.824.788c.471 7.13 5.929 12.701 12.533 12.701 6.605 0 12.062-5.572 12.533-12.701h-2.936c-.46 5.278-4.55 9.462-9.597 9.462-5.046 0-9.136-4.184-9.597-9.462H6.394Z" fill="#fff" fill-rule="evenodd" clip-rule="evenodd"/><path d="M37.29 18.117h-3.724c-1.108-7.662-7.219-13.52-14.59-13.52-7.37 0-13.48 5.86-14.589 13.52H.663C1.798 8.237 9.56.59 18.976.59c9.416 0 17.174 7.646 18.314 17.526Z" fill="#fff"/><path d="M1.336 17.526h2.547c1.335-7.664 7.555-13.52 15.093-13.52 7.54 0 13.759 5.856 15.094 13.52h2.547c-1.37-9.3-8.774-16.344-17.64-16.344-8.867 0-16.275 7.044-17.641 16.344Zm-1.26.523C1.24 7.914 9.22 0 18.976 0c9.757 0 17.732 7.914 18.901 18.05l.076.658h-4.9l-.072-.506C31.91 10.79 26.016 5.188 18.978 5.188c-7.037 0-12.933 5.602-14.004 13.014l-.073.506H0l.076-.659Z" fill="#fff" fill-rule="evenodd" clip-rule="evenodd"/><path d="M18.78 20.086a3.939 3.939 0 1 0 0-7.877 3.939 3.939 0 0 0 0 7.877Z" fill="#fff"/><path d="M18.78 12.258a3.89 3.89 0 1 0 0 7.779 3.89 3.89 0 0 0 0-7.778Zm-3.988 3.89a3.988 3.988 0 1 1 7.975 0 3.988 3.988 0 0 1-7.975 0Z" fill="#fff" fill-rule="evenodd" clip-rule="evenodd"/><path d="M55.091 25.556c-.81 0-1.387-.207-1.732-.621-.345-.414-.56-.932-.646-1.553h-.13a3.787 3.787 0 0 1-1.422 1.838c-.637.431-1.5.647-2.585.647-1.396 0-2.508-.363-3.335-1.088-.827-.724-1.24-1.717-1.24-2.976 0-1.243.447-2.2 1.343-2.874.914-.676 2.379-1.01 4.395-1.01h2.84v-1.321c0-.984-.274-1.718-.826-2.201-.551-.502-1.336-.753-2.353-.753-.895 0-1.627.181-2.196.544a3.88 3.88 0 0 0-1.37 1.424L44.44 14.58a4.62 4.62 0 0 1 .698-1.01 4.181 4.181 0 0 1 1.085-.854 5.403 5.403 0 0 1 1.474-.595 6.764 6.764 0 0 1 1.836-.229c1.568 0 2.809.396 3.722 1.19.93.794 1.397 1.9 1.397 3.313v7.352h1.86v1.812H55.09Zm-6.153-1.424a5.4 5.4 0 0 0 1.448-.18 4.862 4.862 0 0 0 1.163-.519 2.46 2.46 0 0 0 .75-.776c.19-.31.284-.639.284-.984v-2.2H49.74c-1.242 0-2.146.172-2.715.518-.569.345-.853.845-.853 1.501v.544c0 .69.24 1.216.724 1.58.5.344 1.18.516 2.042.516Zm9.168-.336h3.904V13.96h-3.904V12.2h5.972v3.365h.13c.275-1.053.792-1.873 1.55-2.46.776-.603 1.758-.905 2.948-.905h1.86v2.07H68.06c-1.189 0-2.154.346-2.895 1.036-.724.69-1.086 1.596-1.086 2.718v5.773h5.17v1.76H58.105v-1.76Zm19.147 2.07c-.965 0-1.827-.163-2.585-.49a5.518 5.518 0 0 1-1.888-1.425c-.517-.604-.913-1.337-1.189-2.2-.258-.863-.387-1.82-.387-2.874 0-1.052.137-2.01.413-2.873.276-.863.672-1.596 1.19-2.2a5.115 5.115 0 0 1 1.887-1.424c.74-.328 1.585-.492 2.533-.492 1.293 0 2.344.285 3.154.854a5.017 5.017 0 0 1 1.784 2.226l-1.654.88c-.242-.69-.647-1.225-1.215-1.604-.552-.38-1.241-.57-2.069-.57-.603 0-1.146.104-1.629.31-.465.19-.861.467-1.189.83a3.703 3.703 0 0 0-.75 1.294 5.484 5.484 0 0 0-.232 1.63v2.278c0 .587.077 1.13.232 1.631.173.5.423.932.75 1.295a3.44 3.44 0 0 0 1.215.854c.483.19 1.035.285 1.655.285.896 0 1.637-.207 2.223-.622.586-.414 1.052-.983 1.397-1.708l1.473 1.01c-.396.897-1.017 1.64-1.861 2.226-.828.586-1.913.88-3.258.88ZM83.706 6.4h2.069v7.973h.103c.138-.328.31-.638.517-.932a3.32 3.32 0 0 1 .75-.799 4 4 0 0 1 1.086-.544c.413-.138.896-.207 1.448-.207 1.396 0 2.516.449 3.36 1.346.845.88 1.267 2.132 1.267 3.754v8.568h-2.068V17.35c0-1.225-.267-2.131-.801-2.718-.535-.604-1.32-.906-2.353-.906a4.79 4.79 0 0 0-1.215.155c-.397.104-.75.26-1.06.466-.31.207-.56.475-.75.803-.19.328-.284.707-.284 1.139v9.267h-2.07V6.4Zm18.786 19.467c-1.103 0-2.051-.207-2.844-.622a5.41 5.41 0 0 1-1.965-1.837c-.517-.794-.896-1.77-1.138-2.926-.24-1.156-.362-2.476-.362-3.96 0-1.467.121-2.779.362-3.935.242-1.173.62-2.157 1.138-2.951.517-.794 1.172-1.398 1.965-1.812.793-.432 1.74-.647 2.844-.647 1.103 0 2.051.215 2.844.647.792.414 1.447 1.018 1.965 1.812.517.794.896 1.778 1.137 2.95.24 1.157.362 2.469.362 3.936 0 1.484-.12 2.804-.362 3.96-.24 1.157-.62 2.132-1.137 2.926a5.424 5.424 0 0 1-1.965 1.837c-.793.415-1.74.622-2.844.622Zm0-1.89c.724 0 1.344-.138 1.86-.414a3.357 3.357 0 0 0 1.242-1.217c.328-.518.57-1.139.724-1.864.155-.742.233-1.57.233-2.485v-2.95c0-.898-.078-1.718-.233-2.46-.155-.742-.396-1.372-.724-1.89a3.163 3.163 0 0 0-1.24-1.19c-.518-.294-1.138-.44-1.862-.44-.724 0-1.345.146-1.862.44a3.35 3.35 0 0 0-1.266 1.19c-.31.518-.543 1.148-.699 1.89a12.035 12.035 0 0 0-.232 2.46v2.95c0 .915.077 1.743.232 2.485.156.725.388 1.346.698 1.864.328.518.75.924 1.267 1.217.517.276 1.138.414 1.862.414Zm0-5.928c-.603 0-1.026-.12-1.267-.362a1.248 1.248 0 0 1-.336-.88v-.57c0-.345.112-.638.336-.88.24-.242.664-.363 1.267-.363.603 0 1.017.121 1.24.363a1.2 1.2 0 0 1 .363.88v.57a1.2 1.2 0 0 1-.362.88c-.224.241-.638.362-1.24.362Z" fill="#fff"/></svg>