<svg width="299" height="85" viewBox="0 0 299 85" fill="none" xmlns="http://www.w3.org/2000/svg">
<path d="M45.8983 39.9266C44.3325 39.9266 43.0635 38.6571 43.0635 37.0916C43.0635 35.5258 44.3325 34.2566 45.8983 34.2566C47.4643 34.2566 48.7333 35.5258 48.7333 37.0916C48.7333 38.6571 47.4643 39.9266 45.8983 39.9266ZM53.6917 40.5603C53.5048 39.3921 53.1417 38.2834 52.6302 37.2614L52.2969 37.3567L52.5762 37.1534C52.0429 36.1155 51.3553 35.1699 50.5442 34.346L50.2589 34.5388L50.4603 34.2611C49.6404 33.4458 48.6979 32.7539 47.6631 32.2153L47.4493 32.4882L47.5563 32.1599C46.5367 31.643 45.4294 31.2742 44.2626 31.0816L44.1444 31.4064V31.0621C43.5695 30.9734 42.9812 30.927 42.3813 30.927C41.803 30.927 41.234 30.9703 40.6788 31.053L40.6667 31.399L40.5604 31.0716C39.3922 31.2582 38.283 31.6213 37.261 32.133L37.3566 32.4664L37.1538 32.1868C36.1156 32.7203 35.1702 33.408 34.3461 34.2188L34.5387 34.5044L34.2615 34.3027C33.4459 35.1226 32.7537 36.0651 32.2149 37.1002L32.4884 37.3132L32.16 37.2069C31.6431 38.2265 31.2743 39.3339 31.0812 40.5004L31.4065 40.6188H31.0617C30.973 41.193 30.9269 41.7818 30.9269 42.3817C30.9269 42.96 30.9699 43.529 31.0527 44.0844L31.3986 44.0963L31.0717 44.2028C31.2583 45.3708 31.6217 46.48 32.1331 47.5022L32.4665 47.4064L32.1871 47.6095C32.7204 48.6474 33.4081 49.593 34.2189 50.4169L34.5045 50.2243L34.3028 50.5018C35.1222 51.3171 36.0648 52.0093 37.0998 52.5478L37.3133 52.2746L37.2066 52.603C38.2262 53.1199 39.3335 53.4887 40.5005 53.6815L40.6189 53.3565V53.7015C41.1931 53.7902 41.7821 53.8361 42.3813 53.8361C42.9603 53.8361 43.5286 53.7926 44.0845 53.7099L44.0966 53.3641L44.2027 53.6913C45.3711 53.5049 46.4796 53.1416 47.5018 52.6301L47.4065 52.2968L47.6096 52.5761C48.6474 52.0426 49.5931 51.3549 50.417 50.5441L50.2244 50.2588L50.5019 50.4604C51.3172 49.6405 52.0089 48.6982 52.5477 47.6627L52.2747 47.4497L52.6033 47.5567C53.12 46.5371 53.4888 45.4293 53.6814 44.2625L53.3569 44.1443H53.7012C53.7899 43.5698 53.8362 42.9811 53.8362 42.3817C53.8362 41.8027 53.7929 41.2344 53.71 40.6785L53.3642 40.6666L53.6917 40.5603Z" fill="black"/>
<path d="M45.8984 39.9266C44.3327 39.9266 43.0637 38.6571 43.0637 37.0916C43.0637 35.5258 44.3327 34.2566 45.8984 34.2566C47.4644 34.2566 48.7334 35.5258 48.7334 37.0916C48.7334 38.6571 47.4644 39.9266 45.8984 39.9266Z" fill="white"/>
<path fill-rule="evenodd" clip-rule="evenodd" d="M39.1179 0.119376L38.5629 16.0193L33.6492 0.896656C32.7445 1.08593 31.8507 1.30445 30.9686 1.55031L40.56 31.0717L40.6663 31.3987L40.6789 31.0527L41.7632 0C40.8743 0.0126022 39.9927 0.0527986 39.1179 0.119376ZM44.1445 31.0615V31.4061L44.2627 31.0817L54.8937 1.87273C54.0534 1.61379 53.2014 1.37982 52.3397 1.17224L46.8956 16.1296V0.233504C45.9873 0.13768 45.0694 0.0699027 44.1445 0.0318584V31.0615ZM26.2159 3.18812L30.6031 18.4896L21.2575 5.62628C20.4593 6.08591 19.6777 6.57168 18.913 7.081L37.1536 32.1869L37.3564 32.4661L37.2613 32.1332L28.6933 2.25461C27.8556 2.54042 27.0291 2.8519 26.2159 3.18812ZM47.5561 32.1601L47.4493 32.488L47.6636 32.215L66.7942 7.72824C66.0735 7.21964 65.3366 6.73337 64.5845 6.26947L54.7869 18.8093L59.7018 3.68482C58.8648 3.30961 58.0131 2.9608 57.1483 2.63933L47.5561 32.1601ZM14.901 10.1101L23.7972 23.2991L10.9394 13.957C10.3221 14.639 9.72722 15.3407 9.15608 16.0623L34.2613 34.3024L34.5388 34.5045L34.3462 34.219L16.969 8.45583C16.2618 8.98584 15.573 9.5382 14.901 10.1101ZM50.4603 34.2615L50.2589 34.5388L50.5443 34.3462L76.3074 16.9685C75.7769 16.262 75.225 15.5727 74.6527 14.901L61.4642 23.797L70.8064 10.9394C70.1238 10.3221 69.4221 9.72722 68.7004 9.1556L50.4603 34.2615ZM6.2697 20.1782L18.8093 29.9758L3.68482 25.061C3.30937 25.8984 2.96056 26.7497 2.6398 27.6149L32.16 37.2066L32.4884 37.3134L32.215 37.1003L7.72869 17.9686C7.22033 18.6893 6.73384 19.4261 6.2697 20.1782ZM52.5763 37.1538L52.2967 37.3562L52.6303 37.2608L82.5082 28.6935C82.2228 27.8556 81.9109 27.0291 81.5751 26.2154L66.2732 30.6031L79.1367 21.257C78.6769 20.4591 78.1911 19.6777 77.6822 18.9133L52.5763 37.1538ZM1.17224 32.423L16.1298 37.8667H0.233493C0.137669 38.7755 0.0699027 39.6931 0.0318584 40.6183H31.0618H31.4061L31.0817 40.5001L1.87273 29.8696C1.61379 30.7094 1.37982 31.5613 1.17224 32.423ZM53.6915 40.56L53.3641 40.6663L53.71 40.6787L84.7628 41.7632C84.7502 40.8744 84.7104 39.9927 84.6441 39.1179L68.7437 38.5629L83.8666 33.649C83.6768 32.7443 83.4583 31.85 83.2124 30.9683L53.6915 40.56ZM0.119365 45.6449L16.0195 46.1998L0.897132 51.1135C1.0864 52.0182 1.30444 52.9125 1.55054 53.7942L31.0717 44.2028L31.3985 44.0965L31.0527 44.0839L0 43.0001C0.0130777 43.8884 0.052787 44.7708 0.119365 45.6449ZM53.701 44.1443H53.3567L53.6815 44.2627L82.89 54.8937C83.1494 54.0534 83.3829 53.2014 83.5905 52.3397L68.6331 46.8956H84.529C84.6255 45.9873 84.6933 45.0697 84.7314 44.1443H53.701ZM32.1329 47.5017L2.2546 56.0695C2.54041 56.9072 2.85189 57.7337 3.1881 58.5474L18.4895 54.1597L5.62652 63.5053C6.0859 64.3035 6.57144 65.085 7.081 65.8495L32.1869 47.6096L32.4658 47.4063L32.1329 47.5017ZM52.5478 47.6629L77.035 66.7942C77.5434 66.0735 78.0294 65.3366 78.493 64.5845L65.9534 54.7869L81.0779 59.7015C81.4538 58.8648 81.802 58.0131 82.1239 57.1483L52.6032 47.5561L52.2748 47.4494L52.5478 47.6629ZM34.219 50.4166L8.45582 67.7943C8.9863 68.5009 9.53819 69.1898 10.1105 69.8617L23.299 60.9663L13.9575 73.8238C14.6392 74.4406 15.3414 75.0355 16.0623 75.6079L34.3029 50.5019L34.5043 50.224L34.219 50.4166ZM50.4166 50.5438L67.7943 76.3074C68.5014 75.7769 69.1905 75.2251 69.8617 74.6527L60.9663 61.4642L73.8243 70.8057C74.4406 70.1236 75.0355 69.4221 75.6079 68.7005L50.5019 50.4599L50.2245 50.2587L50.4166 50.5438ZM37.1003 52.5478L17.9686 77.0345C18.689 77.5434 19.4261 78.0294 20.1782 78.4931L29.9758 65.9534L25.0612 81.0782C25.8989 81.4534 26.7502 81.8019 27.6154 82.1239L37.2071 52.6032L37.3134 52.2748L37.1003 52.5478ZM47.5021 52.63L56.0692 82.5081C56.9072 82.2226 57.7334 81.9109 58.5474 81.5749L54.1597 66.2732L63.5057 79.137C64.3037 78.6769 65.085 78.1911 65.8502 77.6823L47.6096 52.5763L47.4066 52.2969L47.5021 52.63ZM40.5006 53.6815L29.8695 82.89C30.7098 83.1494 31.5613 83.383 32.423 83.5905L37.8672 68.6329V84.5293C38.776 84.6255 39.6938 84.6933 40.6187 84.7309V53.701V53.3567L40.5006 53.6815ZM44.0846 53.71L43.0001 84.7628C43.8884 84.7504 44.7706 84.7102 45.6449 84.6439L46.1998 68.7432L51.114 83.8666C52.0185 83.6768 52.9128 83.4583 53.7949 83.2122L44.2028 53.6915L44.0965 53.3641L44.0846 53.71Z" fill="url(#paint0_radial_141_14104)"/>
<path d="M69.1156 31.2213C69.1156 31.1523 69.0598 31.0964 68.991 31.0964C68.9223 31.0964 68.8662 31.1523 68.8662 31.2213C68.8662 31.29 68.9223 31.3459 68.991 31.3459C69.0598 31.3459 69.1156 31.29 69.1156 31.2213Z" fill="#C5C8C9"/>
<path d="M55.8356 72.8077C55.8356 72.739 55.7797 72.6829 55.7108 72.6829C55.6421 72.6829 55.5862 72.739 55.5862 72.8077C55.5862 72.8764 55.6421 72.9325 55.7108 72.9325C55.7797 72.9325 55.8356 72.8764 55.8356 72.8077Z" fill="#C5C8C9"/>
<path d="M120.295 39.1614L111.687 14.9571L103.08 39.1614L102.098 41.9919L98.516 51.9857H95.1658L110.301 10.8555H113.074L128.208 51.9857H124.858L121.277 41.9919L120.295 39.1614Z" fill="white"/>
<path d="M194.067 13.686V51.9857H191.006V13.686H178.759V10.8555H206.371V13.686H194.067Z" fill="white"/>
<path d="M218.674 10.8555H234.483C236.139 10.8555 237.69 11.0966 239.134 11.5776C240.578 12.0596 241.829 12.7617 242.889 13.6857C243.947 14.6105 244.775 15.7658 245.373 17.1521C245.969 18.5383 246.268 20.1181 246.268 21.889C246.268 24.9706 245.416 27.4637 243.713 29.37C242.01 31.276 239.722 32.4803 236.852 32.9804L246.788 51.9859H243.149L233.27 33.0382H218.674V30.2079H234.087C235.403 30.2079 236.624 30.045 237.747 29.7202C238.87 29.3954 239.837 28.889 240.65 28.2001C241.464 27.512 242.093 26.6512 242.539 25.6188C242.984 24.5859 243.206 23.3623 243.206 21.9466C243.206 20.5313 242.984 19.3077 242.539 18.2748C242.093 17.2424 241.464 16.3821 240.65 15.6935C239.837 15.0056 238.87 14.4985 237.747 14.1734C236.624 13.8486 235.403 13.6857 234.087 13.6857H218.674V10.8555Z" fill="white"/>
<path d="M284.056 39.1614L275.448 14.9571L266.841 39.1614L265.859 41.9919L262.278 51.9857H258.927L274.062 10.8555H276.835L291.969 51.9857H288.619L285.038 41.9919L284.056 39.1614Z" fill="white"/>
<path d="M158.994 51.8352H140.34V48.9433H158.994C161.099 48.9433 162.754 48.1938 164.054 46.6509C165.418 45.0345 166.08 43.1499 166.08 40.8893C166.08 38.6271 165.416 36.7285 164.048 35.0857C162.748 33.5232 161.095 32.7633 158.994 32.7633H148.083C145.115 32.7633 142.669 31.6465 140.811 29.4435C139.016 27.313 138.105 24.7476 138.105 21.8179C138.105 18.8933 139.014 16.3182 140.805 14.1646C142.663 11.9324 145.112 10.8008 148.083 10.8008H166.737V13.6919H148.083C145.982 13.6919 144.328 14.4514 143.028 16.0143C141.661 17.6571 140.997 19.5553 140.997 21.8179C140.997 24.0785 141.659 25.9626 143.022 27.5795C144.323 29.122 145.978 29.8719 148.083 29.8719H158.994C161.965 29.8719 164.414 31.0038 166.271 33.2365C168.063 35.3896 168.972 37.9644 168.972 40.8893C168.972 43.8195 168.061 46.3848 166.265 48.5148C164.408 50.7178 161.962 51.8352 158.994 51.8352Z" fill="white"/>
<path d="M100.857 72.506C100.683 72.8243 100.465 73.0923 100.205 73.3094C99.9452 73.527 99.6501 73.6896 99.3206 73.7985C98.9905 73.9072 98.6393 73.9617 98.2665 73.9617C97.8318 73.9617 97.4321 73.8858 97.0674 73.7346C96.7019 73.5829 96.3762 73.3636 96.0892 73.0764C95.887 72.8748 95.732 72.6612 95.6231 72.4361C95.5145 72.2111 95.435 71.9667 95.3846 71.7025C95.3342 71.4386 95.3047 71.1457 95.2974 70.8232C95.2893 70.5015 95.2857 70.1422 95.2857 69.7463C95.2857 69.3507 95.2893 68.9914 95.2974 68.669C95.3047 68.3472 95.3342 68.0543 95.3846 67.7904C95.435 67.5262 95.5145 67.2818 95.6231 67.0568C95.732 66.8317 95.887 66.6181 96.0892 66.416C96.3762 66.129 96.7019 65.9096 97.0674 65.7583C97.4321 65.6071 97.8318 65.5312 98.2665 65.5312C99.035 65.5312 99.6832 65.7488 100.211 66.1835C100.739 66.6181 101.077 67.2509 101.224 68.0812H99.943C99.8425 67.662 99.6544 67.3208 99.3788 67.0568C99.1028 66.7929 98.7325 66.6605 98.2665 66.6605C98.018 66.6605 97.7893 66.7054 97.5798 66.7948C97.3703 66.884 97.191 67.0062 97.0438 67.1617C96.943 67.2704 96.8593 67.3885 96.7935 67.5165C96.7276 67.6446 96.6772 67.8037 96.6422 67.9939C96.6073 68.1839 96.5818 68.4191 96.5664 68.6984C96.5507 68.9781 96.5433 69.3271 96.5433 69.7463C96.5433 70.1655 96.5507 70.5148 96.5664 70.7945C96.5818 71.0738 96.6073 71.3088 96.6422 71.499C96.6772 71.689 96.7276 71.8483 96.7935 71.9762C96.8593 72.1041 96.943 72.2225 97.0438 72.3312C97.191 72.4865 97.3703 72.6087 97.5798 72.6981C97.7893 72.7875 98.018 72.832 98.2665 72.832C98.7325 72.832 99.1049 72.7 99.3843 72.4361C99.6637 72.1721 99.8539 71.8309 99.9552 71.4117H101.224C101.154 71.8228 101.032 72.1876 100.857 72.506Z" fill="white"/>
<path d="M115.278 70.4798V73.8916H114.021V70.4798L111.541 65.6011H112.915L114.65 69.2457L116.385 65.6011H117.759L115.278 70.4798Z" fill="white"/>
<path d="M132.931 70.5846C132.698 70.3516 132.36 70.2354 131.917 70.2354H129.938V72.7617H131.917C132.36 72.7617 132.698 72.6435 132.931 72.407C133.164 72.1701 133.28 71.8656 133.28 71.4927C133.28 71.1201 133.164 70.8177 132.931 70.5846ZM132.779 67.0332C132.531 66.8316 132.204 66.7307 131.801 66.7307H129.938V69.1061H131.801C132.204 69.1061 132.531 69.0051 132.779 68.8032C133.027 68.6016 133.151 68.3065 133.151 67.9184C133.151 67.5302 133.027 67.2351 132.779 67.0332ZM134.351 72.5582C134.227 72.8492 134.054 73.0937 133.833 73.2917C133.612 73.4898 133.348 73.6396 133.041 73.7404C132.734 73.8412 132.399 73.8916 132.034 73.8916H128.68V65.6011H131.906C132.682 65.6011 133.293 65.8032 133.74 66.2062C134.186 66.6104 134.409 67.1654 134.409 67.8714C134.409 68.097 134.376 68.3046 134.31 68.4946C134.244 68.685 134.159 68.8555 134.054 69.0067C133.949 69.1584 133.831 69.2861 133.699 69.391C133.567 69.4959 133.431 69.5757 133.291 69.63C133.454 69.692 133.61 69.7793 133.757 69.892C133.905 70.0042 134.037 70.1386 134.153 70.2936C134.269 70.4489 134.363 70.631 134.433 70.8407C134.502 71.0502 134.537 71.2873 134.537 71.5512C134.537 71.9314 134.475 72.2672 134.351 72.5582Z" fill="white"/>
<path d="M146.182 73.8919V65.6011H151.479V66.7307H147.439V69.1528H150.886V70.2705H147.439V72.7627H151.479V73.8919H146.182Z" fill="white"/>
<path d="M167.123 67.0755C166.863 66.8456 166.523 66.7303 166.104 66.7303H164.241V69.3387H166.104C166.523 69.3387 166.863 69.2257 167.123 68.9998C167.383 68.7732 167.513 68.4539 167.513 68.0402C167.513 67.6269 167.383 67.3057 167.123 67.0755ZM167.56 73.8916L165.813 70.3985H164.241V73.8916H162.983V65.6011H166.197C166.593 65.6011 166.948 65.6615 167.263 65.7815C167.577 65.9019 167.847 66.0686 168.072 66.2823C168.297 66.4958 168.47 66.7517 168.59 67.0506C168.71 67.3497 168.771 67.6733 168.771 68.0228C168.771 68.6211 168.612 69.104 168.293 69.4728C167.975 69.8416 167.583 70.0917 167.117 70.2239L169.027 73.8916H167.56Z" fill="white"/>
<path d="M183.197 66.7308V73.8917H181.94V66.7308H179.657V65.6016H185.479V66.7308H183.197Z" fill="white"/>
<path d="M196.693 73.8919V65.6011H201.991V66.7307H197.951V69.1528H201.397V70.2705H197.951V72.7627H201.991V73.8919H196.693Z" fill="white"/>
<path d="M218.764 72.506C218.589 72.8243 218.372 73.0923 218.112 73.3094C217.852 73.527 217.557 73.6896 217.227 73.7985C216.897 73.9072 216.546 73.9617 216.173 73.9617C215.738 73.9617 215.339 73.8858 214.974 73.7346C214.609 73.5829 214.283 73.3636 213.996 73.0764C213.794 72.8748 213.639 72.6612 213.53 72.4361C213.421 72.2111 213.342 71.9667 213.291 71.7025C213.241 71.4386 213.211 71.1457 213.204 70.8232C213.196 70.5015 213.193 70.1422 213.193 69.7463C213.193 69.3507 213.196 68.9914 213.204 68.669C213.211 68.3472 213.241 68.0543 213.291 67.7904C213.342 67.5262 213.421 67.2818 213.53 67.0568C213.639 66.8317 213.794 66.6181 213.996 66.416C214.283 66.129 214.609 65.9096 214.974 65.7583C215.339 65.6071 215.738 65.5312 216.173 65.5312C216.942 65.5312 217.59 65.7488 218.118 66.1835C218.645 66.6181 218.983 67.2509 219.131 68.0812H217.85C217.749 67.662 217.561 67.3208 217.285 67.0568C217.009 66.7929 216.639 66.6605 216.173 66.6605C215.924 66.6605 215.696 66.7054 215.486 66.7948C215.276 66.884 215.098 67.0062 214.95 67.1617C214.85 67.2704 214.766 67.3885 214.7 67.5165C214.634 67.6446 214.584 67.8037 214.549 67.9939C214.514 68.1839 214.488 68.4191 214.473 68.6984C214.457 68.9781 214.45 69.3271 214.45 69.7463C214.45 70.1655 214.457 70.5148 214.473 70.7945C214.488 71.0738 214.514 71.3088 214.549 71.499C214.584 71.689 214.634 71.8483 214.7 71.9762C214.766 72.1041 214.85 72.2225 214.95 72.3312C215.098 72.4865 215.276 72.6087 215.486 72.6981C215.696 72.7875 215.924 72.832 216.173 72.832C216.639 72.832 217.011 72.7 217.291 72.4361C217.57 72.1721 217.76 71.8309 217.862 71.4117H219.131C219.061 71.8228 218.938 72.1876 218.764 72.506Z" fill="white"/>
<path d="M235.211 73.8919V70.2705H231.846V73.8919H230.588V65.6011H231.846V69.1413H235.211V65.6011H236.468V73.8919H235.211Z" fill="white"/>
<path d="M231.01 31.5997C231.01 31.5307 230.954 31.4749 230.886 31.4749C230.817 31.4749 230.761 31.5307 230.761 31.5997C230.761 31.6684 230.817 31.7243 230.886 31.7243C230.954 31.7243 231.01 31.6684 231.01 31.5997Z" fill="#C5C8C9"/>
<path fill-rule="evenodd" clip-rule="evenodd" d="M295.509 11.4045C297.122 11.4112 298.423 12.704 298.424 14.3199C298.426 15.9332 297.115 17.2348 295.509 17.2351C293.902 17.2353 292.594 15.932 292.594 14.3199C292.593 12.7092 293.904 11.4021 295.509 11.4045ZM293.964 17.4522C293.979 17.4576 293.977 17.4531 293.991 17.4631C294.006 17.4738 294 17.4709 294.01 17.4828C294.05 17.4845 294.251 17.5784 294.321 17.6029C296.045 18.2047 297.892 17.4384 298.657 15.8307C299.079 14.9441 299.122 13.9081 298.728 12.967C298.399 12.1823 297.762 11.5179 297.028 11.176C296.093 10.7407 295.148 10.7116 294.165 11.0985C293.391 11.4026 292.705 12.08 292.373 12.7855C291.958 13.6651 291.88 14.7153 292.281 15.6484C292.47 16.0906 292.697 16.4316 292.964 16.7041C293.004 16.7445 293.029 16.7747 293.072 16.8144C293.204 16.9388 293.254 16.9942 293.421 17.1178C293.588 17.2419 293.753 17.3375 293.964 17.4522Z" fill="white"/>
<path fill-rule="evenodd" clip-rule="evenodd" d="M295.851 13.2006C296.128 13.2063 296.355 13.675 296.14 14.0347C296.036 14.2095 295.947 14.2285 295.692 14.2285C295.484 14.2283 295.259 14.2202 295.053 14.2302L295.05 13.2009L295.851 13.2006ZM294.165 16.213L294.605 16.2232C294.699 16.2232 294.976 16.2396 295.046 16.2144L295.051 14.9918L295.64 14.9927C295.658 15.0484 295.775 15.2277 295.815 15.2961C295.868 15.3856 296.347 16.2064 296.368 16.2152L297.325 16.2159C297.31 16.17 297.258 16.0939 297.23 16.0447L296.707 15.1592C296.658 15.0779 296.526 14.8779 296.501 14.7975C296.626 14.7602 296.822 14.5507 296.889 14.4523C296.984 14.3132 297.068 14.1282 297.1 13.9197C297.17 13.4643 296.978 13.0332 296.745 12.81C296.611 12.682 296.509 12.5848 296.314 12.5075C296.083 12.4157 295.919 12.424 295.658 12.424C295.167 12.424 294.661 12.4357 294.172 12.4233L294.165 16.213Z" fill="white"/>
<defs>
<radialGradient id="paint0_radial_141_14104" cx="0" cy="0" r="1" gradientUnits="userSpaceOnUse" gradientTransform="translate(42.3807 42.3807) scale(42.336 42.3361)">
<stop stop-color="#51FF00"/>
<stop offset="1" stop-color="#00DAE9"/>
</radialGradient>
</defs>
</svg>
