<svg width="121" height="42" viewBox="0 0 121 42" fill="none" xmlns="http://www.w3.org/2000/svg">
<g clip-path="url(#clip0_1842_1690)">
<path fill-rule="evenodd" clip-rule="evenodd" d="M20.5498 41.5338C31.9013 41.5338 41.1035 32.3377 41.1035 20.9937C41.1035 19.5305 40.9504 18.103 40.6593 16.7264C40.3847 15.4275 39.9872 14.1738 39.4796 12.9781C36.4835 5.92041 29.6505 0.883165 21.5959 0.479652C21.271 0.463379 20.9442 0.454642 20.6155 0.453613C20.9441 0.454645 21.2709 0.463383 21.5956 0.479652C20.8865 3.23621 19.8719 5.91214 18.6625 8.46156C17.8587 8.55487 15.9145 8.94159 14.5676 9.74205C16.5893 5.98041 17.8782 2.66804 18.4283 0.561599C8.07355 1.62269 -0.00390625 10.3655 -0.00390625 20.9937C-0.00390625 23.0444 0.296836 25.025 0.856652 26.8938C3.48717 24.7235 5.82972 22.2878 7.88277 19.7767C7.81222 20.3952 7.76772 22.097 8.15411 23.9564C5.80496 26.5756 3.62539 28.6215 2.03359 29.9208C2.03362 29.9208 2.03364 29.9209 2.03367 29.9209C3.44036 32.8294 5.51302 35.356 8.05378 37.3031C10.3693 36.5747 13.6623 35.2291 17.3311 33.2527C17.9967 33.468 20.0725 33.7999 23.051 33.4048C18.3905 36.345 14.0702 38.3434 11.3008 39.3417C11.3008 39.3417 11.3009 39.3417 11.3009 39.3417C14.0809 40.744 17.223 41.5338 20.5498 41.5338ZM39.4794 12.9781C39.987 14.1738 40.3844 15.4275 40.6591 16.7264C38.5529 20.0315 35.9598 23.0071 33.1649 25.6394V21.3478C35.5325 18.8476 37.6966 16.0591 39.4794 12.9781Z" fill="#0F172A"/>
<path d="M9.36816 21.0478C9.36816 27.2165 14.3722 32.2172 20.5449 32.2172C23.1283 32.2172 25.507 31.3413 27.3998 29.8705V30.0563C27.3998 31.2497 28.3673 32.2172 29.5608 32.2172C30.7542 32.2172 31.7217 31.2497 31.7217 30.0563V21.0478C31.7217 14.8791 26.7177 9.87842 20.5449 9.87842C14.3722 9.87842 9.36816 14.8791 9.36816 21.0478Z" fill="white"/>
<path d="M20.5447 0.45459C19.8284 0.45459 19.1207 0.491201 18.4234 0.562652C17.8733 2.66909 16.5844 5.98147 14.5628 9.74313C15.9096 8.94267 17.8539 8.55595 18.6576 8.46264C19.867 5.91322 20.8816 3.23729 21.5907 0.480732C21.2442 0.463373 20.8955 0.45459 20.5447 0.45459Z" fill="#D9D9D9"/>
<path d="M0.851562 26.895C1.16507 27.9415 1.55983 28.953 2.02853 29.922C3.62034 28.6227 5.79998 26.5767 8.14922 23.9575C7.76283 22.0981 7.80733 20.3963 7.87788 19.7778C5.82478 22.289 3.48216 24.7247 0.851562 26.895Z" fill="#D9D9D9"/>
<path d="M8.04871 37.3042C9.06093 38.0799 10.1474 38.7636 11.2957 39.3428C14.0652 38.3446 18.3856 36.3461 23.0461 33.4059C20.0676 33.801 17.9918 33.4691 17.3263 33.2538C13.6573 35.2302 10.3643 36.5758 8.04871 37.3042Z" fill="#D9D9D9"/>
<path d="M40.6542 16.7275C40.3796 15.4285 39.9821 14.1749 39.4745 12.9792C37.6917 16.0602 35.5276 18.8487 33.16 21.3489V25.6405C35.9549 23.0081 38.548 20.0325 40.6542 16.7275Z" fill="#D9D9D9"/>
<ellipse cx="20.5482" cy="20.9921" rx="7.33333" ry="7.3285" fill="#80CB51"/>
<path d="M20.5447 0.45459C19.8284 0.45459 19.1207 0.491201 18.4234 0.562652C17.8733 2.66909 16.5844 5.98147 14.5628 9.74313C15.9096 8.94267 17.8539 8.55595 18.6576 8.46264C19.867 5.91322 20.8816 3.23729 21.5907 0.480732C21.2442 0.463373 20.8955 0.45459 20.5447 0.45459Z" fill="white"/>
<path d="M0.851562 26.895C1.16507 27.9415 1.55983 28.953 2.02853 29.922C3.62034 28.6227 5.79998 26.5767 8.14922 23.9575C7.76283 22.0981 7.80733 20.3963 7.87788 19.7778C5.82478 22.289 3.48216 24.7247 0.851562 26.895Z" fill="white"/>
<path d="M8.04871 37.3042C9.06093 38.0799 10.1474 38.7636 11.2957 39.3428C14.0652 38.3446 18.3856 36.3461 23.0461 33.4059C20.0676 33.801 17.9918 33.4691 17.3263 33.2538C13.6573 35.2302 10.3643 36.5758 8.04871 37.3042Z" fill="white"/>
<path d="M40.6542 16.7275C40.3796 15.4285 39.9821 14.1749 39.4745 12.9792C37.6917 16.0602 35.5276 18.8487 33.16 21.3489V25.6405C35.9549 23.0081 38.548 20.0325 40.6542 16.7275Z" fill="white"/>
</g>
<g clip-path="url(#clip1_1842_1690)">
<path d="M47.5344 21.0332C47.5344 19.1297 48.1711 17.4376 49.4713 15.9571C50.7716 14.4755 52.4965 13.7358 54.5913 13.7358C55.3614 13.7358 56.1839 13.9205 57.0594 14.3177C57.9616 14.6871 58.6779 15.2689 59.208 16.0623V13.9999H62.3387V28.064H59.208V25.9773C58.7037 26.7965 57.9616 27.3784 57.0325 27.7747C56.1043 28.1448 55.2549 28.3296 54.5117 28.3296C52.5223 28.3296 50.8509 27.6157 49.5251 26.1619C48.198 24.7082 47.5344 22.9894 47.5344 21.0332ZM54.6947 16.5648C53.4482 16.5648 52.4137 16.9878 51.6178 17.8607C50.848 18.7325 50.45 19.79 50.45 21.0332C50.45 22.2754 50.848 23.3329 51.6178 24.2058C52.4137 25.0518 53.4482 25.4748 54.6947 25.4748C55.9422 25.4748 56.9767 25.0518 57.7457 24.2058C58.5413 23.3329 58.9394 22.2754 58.9394 21.0332C58.9394 19.79 58.5413 18.7325 57.7457 17.8607C56.9498 16.9878 55.9422 16.5648 54.6947 16.5648Z" fill="#0F172A"/>
<path d="M65.5715 14.0005H68.7277V21.8243C68.7277 23.9394 69.7635 25.3405 71.8584 25.3405C73.849 25.3405 75.1221 23.9136 75.1221 21.7717V14.0005H78.2786V28.0645H75.2017V26.1338C74.1135 27.5885 72.6812 28.3283 70.8776 28.3283C67.4547 28.3283 65.5715 25.976 65.5715 22.5909V14.0005Z" fill="#0F172A"/>
<path d="M89.2554 13.8152V16.9754C88.9897 16.9227 88.6983 16.8959 88.353 16.8959C85.9387 16.8959 84.6656 18.298 84.6656 20.7566V28.065H81.5081V13.9974H84.586V16.0499C85.4612 14.4641 86.7614 13.7358 88.4853 13.7358C88.8304 13.7358 89.0693 13.7626 89.2554 13.8152Z" fill="#0F172A"/>
<path d="M90.885 14.0005H94.307L98.4721 24.3895L102.637 14.0005H105.954L100.038 28.0645H96.8803L90.885 14.0005Z" fill="#0F172A"/>
<path d="M105.958 21.0333C105.958 19.1297 106.595 17.4376 107.895 15.9571C109.195 14.4755 110.919 13.7358 113.015 13.7358C113.784 13.7358 114.607 13.9205 115.482 14.3177C116.384 14.6871 117.101 15.2689 117.632 16.0623V13.9999H120.762V28.0672H117.632V25.9773C117.128 26.7965 116.384 27.3785 115.456 27.7745C114.527 28.1449 113.679 28.3297 112.936 28.3297C110.946 28.3297 109.275 27.6157 107.948 26.1619C106.622 24.7082 105.958 22.9894 105.958 21.0333ZM113.119 16.5648C111.871 16.5648 110.837 16.9878 110.041 17.8607C109.272 18.7325 108.874 19.79 108.874 21.0333C108.874 22.2755 109.566 23.3329 110.335 24.2058C111.132 25.0518 111.871 25.4748 113.119 25.4748C114.365 25.4748 115.399 25.0518 116.169 24.2058C116.965 23.3329 117.363 22.2755 117.363 21.0333C117.363 19.79 116.965 18.7325 116.169 17.8607C115.374 16.9878 114.365 16.5648 113.119 16.5648Z" fill="#0F172A"/>
</g>
<defs>
<clipPath id="clip0_1842_1690">
<rect width="41.089" height="41.089" fill="white" transform="translate(0 0.455566)"/>
</clipPath>
<clipPath id="clip1_1842_1690">
<rect width="73.2397" height="41.089" fill="white" transform="translate(47.5354 0.455566)"/>
</clipPath>
</defs>
</svg>
