<?xml version="1.0" encoding="utf-8"?>
<!-- Generator: Adobe Illustrator 24.0.0, SVG Export Plug-In . SVG Version: 6.00 Build 0)  -->
<svg version="1.1" id="Layer_1" xmlns="http://www.w3.org/2000/svg" xmlns:xlink="http://www.w3.org/1999/xlink" x="0px" y="0px"
	 viewBox="0 0 5574.5 1252.5" style="enable-background:new 0 0 5574.5 1252.5;" xml:space="preserve">
<style type="text/css">
	.st0{fill:#084266;stroke:#084266;stroke-width:4;stroke-miterlimit:10;}
	.st1{fill:#1CC1E4;stroke:#1CC1E4;stroke-width:4;stroke-miterlimit:10;}
	.st2{fill:#FFFFFF;stroke:#FFFFFF;stroke-width:4;stroke-miterlimit:10;}
	.st3{fill:#084266;}
	.st4{fill:url(#SVGID_1_);}
	.st5{fill:url(#SVGID_2_);}
	.st6{fill:#1BC1E5;stroke:#1BC1E5;stroke-width:7;stroke-miterlimit:10;}
	.st7{fill:#1BC1E5;stroke:#1BC1E5;stroke-width:4;stroke-miterlimit:10;}
	.st8{fill:#1BC1E5;}
	.st9{fill:#FFFFFF;}
	.st10{fill:none;stroke:#231F20;stroke-miterlimit:10;}
	.st11{fill:url(#SVGID_3_);stroke:url(#SVGID_4_);stroke-width:4;stroke-miterlimit:10;}
	.st12{fill:url(#SVGID_5_);stroke:url(#SVGID_6_);stroke-width:4;stroke-miterlimit:10;}
	.st13{fill:none;}
	.st14{fill:url(#SVGID_7_);stroke:url(#SVGID_8_);stroke-width:4;stroke-miterlimit:10;}
</style>
<g>
	<path class="st0" d="M134.55,627.35c0,228.24,146.13,422.46,349.94,494.05c11.93,4.19,19.94,15.42,19.94,28.06v1.96
		c0,20.48-20.23,34.95-39.57,28.19C237.09,1100.03,73.7,883.3,73.7,628.33c0-254.91,163.39-471.69,391.16-551.29
		c19.34-6.76,39.57,7.71,39.57,28.19v0c0,12.65-8.01,23.87-19.94,28.06C280.68,204.89,134.55,399.05,134.55,627.35z"/>
	<path class="st0" d="M1241.5,628.33c0,253.8-161.91,469.78-388.06,550.18c-19.23,6.84-39.46-7.55-39.46-27.96v-1.97
		c0-12.52,7.89-23.64,19.69-27.84c202.82-72.17,348.03-265.85,348.03-493.39c0-227.6-145.21-421.22-348.03-493.39
		c-11.79-4.2-19.69-15.32-19.69-27.84v0c0-20.42,20.23-34.8,39.46-27.96C1079.59,158.62,1241.5,374.6,1241.5,628.33z"/>
	<path class="st0" d="M968.56,496.69L968.56,496.69c-11.78,0-22.49-6.57-28.06-16.95c-53.67-99.95-159.25-167.96-280.68-167.96
		c-121.43,0-226.95,68-280.61,167.95c-5.57,10.38-16.28,16.95-28.06,16.95h-3.47c-23.71,0-39.38-25.19-28.34-46.18
		c64.01-121.72,191.7-204.68,338.78-204.68S932.89,328.78,996.9,450.5C1007.94,471.49,992.27,496.69,968.56,496.69z"/>
	<path class="st0" d="M967.75,764.16c23.21,0,38.43,24.78,27.43,45.22C930.63,929.34,803.9,1010.9,658.13,1010.9
		s-272.51-81.56-337.06-201.52c-11-20.44,4.22-45.22,27.43-45.22h3.47c11.44,0,21.86,6.37,27.27,16.46
		c53.63,99.95,159.16,167.93,280.59,167.93c121.43,0,227.01-67.97,280.65-167.93C945.89,770.54,956.31,764.16,967.75,764.16
		L967.75,764.16z"/>
	<path class="st0" d="M514.64,630.42c0,50.17,25.54,94.41,64.38,120.31c8.21,5.47,13.42,14.42,13.42,24.29v4.61
		c0,22.62-24.88,36.21-44.08,24.26c-58.57-36.46-97.58-101.44-97.58-175.56c0-74.07,39.01-139.04,97.58-175.5
		c19.2-11.95,44.08,1.64,44.08,24.26v8.74c0,9.86-5.21,18.81-13.42,24.29C540.18,536.02,514.64,580.25,514.64,630.42z"/>
	<path class="st0" d="M864.16,628.33c0,74.2-39.09,139.23-97.75,175.67c-19.14,11.89-43.9-1.64-43.9-24.16v-2.64
		c0-10.07,5.45-19.17,13.96-24.55c40.43-25.6,67.3-70.81,67.3-122.22c0-51.41-26.87-96.62-67.3-122.22
		c-8.51-5.39-13.96-14.48-13.96-24.55v-6.76c0-22.53,24.76-36.05,43.9-24.16C825.07,489.17,864.16,554.18,864.16,628.33z"/>
	<circle class="st0" cx="657.71" cy="628.15" r="50.68"/>
</g>
<path class="st3" d="M1603.61,1012.16c-50.54,0-93.94-11.22-130.26-33.64c-36.29-22.42-64.25-54.07-83.81-95.01
	c-19.59-40.94-29.37-88.45-29.37-142.55c0-41.26,5.51-78.1,16.56-110.5c11.02-32.4,27.03-59.95,48.04-82.74s46.62-40.39,76.88-52.85
	c30.24-12.46,64.22-18.69,101.96-18.69c26.34,0,53.4,4.44,81.15,13.36c27.75,8.89,53,23.66,75.79,44.29
	c4.99,4.29,8.19,9.26,9.61,14.97c1.44,5.68,1.07,11.2-1.07,16.53c-2.14,5.34-5.34,9.61-9.61,12.81c-4.27,3.2-9.43,4.99-15.47,5.34
	c-6.06,0.37-12.29-2.28-18.69-7.99c-19.93-16.36-40.04-27.58-60.32-33.64c-20.28-6.03-40.04-9.09-59.26-9.09
	c-29.19,0-54.81,4.64-76.86,13.9c-22.07,9.26-40.76,22.79-56.05,40.56c-15.32,17.8-26.89,39.7-34.71,65.66
	c-7.84,25.99-11.74,55.71-11.74,89.15c0,66.9,15.49,119.41,46.45,157.49c30.96,38.08,75.27,57.12,132.91,57.12
	c19.21,0,38.98-3.03,59.26-9.09c20.28-6.03,40.39-17.25,60.32-33.64c6.4-5.68,12.64-8.34,18.69-7.99c6.03,0.37,11.2,2.13,15.47,5.34
	c4.27,3.2,7.3,7.47,9.09,12.81c1.76,5.34,1.96,10.85,0.52,16.56c-1.42,5.68-4.62,10.67-9.61,14.94
	c-22.07,20.65-46.97,35.23-74.72,43.77C1657.01,1007.89,1629.95,1012.16,1603.61,1012.16z"/>
<path class="st3" d="M2305.29,1012.16c-48.41,0-90.39-11.02-125.99-33.09s-63.18-53.03-82.74-92.9
	c-19.59-39.84-29.37-87.19-29.37-142c0-40.56,5.51-77.23,16.56-109.97c11.02-32.72,27.03-61.02,48.04-84.88
	c21-23.83,46.27-41.98,75.82-54.44c29.52-12.46,62.09-18.69,97.69-18.69c49.13,0,91.46,11.05,127.05,33.09
	c35.6,22.07,63.15,53.22,82.74,93.42c19.59,40.24,29.37,87.38,29.37,141.48c0,41.28-5.51,78.3-16.56,111.04
	c-11.05,32.74-27.06,60.85-48.04,84.36c-21,23.48-46.1,41.46-75.27,53.9C2375.4,1005.93,2342.3,1012.16,2305.29,1012.16z
	 M2305.29,957.72c35.6,0,66.36-8.37,92.35-25.1c25.99-16.71,45.93-41.11,59.8-73.13c13.88-32.02,20.8-70.48,20.8-115.31
	c0-67.62-15.47-119.93-46.42-156.94c-30.98-37.01-73.13-55.53-126.53-55.53c-34.88,0-65.31,8.39-91.28,25.1
	c-25.99,16.73-45.9,40.94-59.78,72.61c-13.9,31.68-20.83,69.93-20.83,114.77c0,68.34,15.64,121.02,46.97,158.01
	C2211.7,939.2,2253.33,957.72,2305.29,957.72z"/>
<path class="st3" d="M2844.81,1012.16c-41.28,0-75.64-7.47-103.02-22.42c-27.41-14.94-47.89-37.36-61.39-67.28
	c-13.53-29.89-20.28-66.88-20.28-111.02V512.49c0-11.37,2.83-19.91,8.54-25.62c5.68-5.68,13.88-8.54,24.55-8.54
	c9.95,0,17.77,2.85,23.48,8.54c5.68,5.71,8.54,14.25,8.54,25.62v295.77c0,49.82,10.3,87.01,30.96,111.56
	c20.65,24.55,53.03,36.84,97.17,36.84c48.41,0,87.56-16.19,117.45-48.58c29.89-32.4,44.83-74.9,44.83-127.6V512.49
	c0-11.37,2.85-19.91,8.54-25.62c5.71-5.68,13.88-8.54,24.58-8.54c9.95,0,17.77,2.85,23.48,8.54c5.68,5.71,8.54,14.25,8.54,25.62
	v464.45c0,22.07-10.33,33.09-30.96,33.09c-9.98,0-17.8-2.85-23.51-8.54c-5.69-5.68-8.54-13.88-8.54-24.55v-105.7l12.81,7.47
	c-13.53,43.42-37.01,76.54-70.45,99.3C2926.66,1000.79,2888.23,1012.16,2844.81,1012.16z"/>
<path class="st3" d="M3425.17,1012.16c-46.27,0-86.66-10.85-121.17-32.57c-34.53-21.7-61.24-52.65-80.09-92.87
	c-18.87-40.22-28.3-87.73-28.3-142.55c0-54.79,9.26-102.13,27.78-142c18.49-39.84,45.01-70.83,79.54-92.9
	c34.51-22.04,75.27-33.09,122.24-33.09c48.41,0,89.69,12.46,123.85,37.36c34.16,24.92,56.95,58.39,68.34,100.37h-11.77v-336.3
	c0-11.39,2.85-19.76,8.56-25.1c5.69-5.34,13.5-8.02,23.48-8.02c10.67,0,18.84,2.68,24.55,8.02c5.68,5.34,8.54,13.7,8.54,25.1v699.32
	c0,10.67-2.85,18.87-8.54,24.55c-5.71,5.68-13.53,8.54-23.48,8.54c-10.67,0-18.87-2.85-24.55-8.54c-5.71-5.68-8.56-13.88-8.56-24.55
	V866.96l11.77,7.47c-11.39,42-34.18,75.44-68.34,100.37C3514.87,999.73,3473.58,1012.16,3425.17,1012.16z M3433.71,957.72
	c35.6,0,66.36-8.37,92.35-25.1c25.99-16.71,45.93-41.11,59.8-73.13c13.88-32.02,20.8-70.48,20.8-115.31
	c0-67.62-15.47-119.93-46.42-156.94c-30.98-37.01-73.13-55.53-126.53-55.53c-34.88,0-65.31,8.39-91.28,25.1
	c-25.99,16.73-45.9,40.94-59.78,72.61c-13.9,31.68-20.83,69.93-20.83,114.77c0,68.34,15.64,121.02,46.97,158.01
	C3340.12,939.2,3381.75,957.72,3433.71,957.72z"/>
<path class="st3" d="M3969.71,1012.16c-34.88,0-66.03-6.78-93.42-20.28c-27.41-13.5-49.13-32.02-65.14-55.53
	c-16.01-23.48-24.03-49.8-24.03-78.99c0-38.43,9.63-68.69,28.85-90.76c19.21-22.04,51.59-37.54,97.14-46.45
	c45.55-8.89,108.19-13.33,187.93-13.33h45.9v48.04h-44.83c-64.07,0-114.07,2.68-150.02,8.02c-35.95,5.34-61.04,15.12-75.27,29.34
	c-14.25,14.25-21.35,34.18-21.35,59.8c0,32.02,11.02,58.02,33.09,77.93c22.07,19.93,51.96,29.91,89.69,29.91
	c30.58,0,57.47-7.3,80.61-21.9c23.11-14.57,41.46-34.71,54.99-60.32c13.5-25.62,20.28-54.79,20.28-87.56V668.36
	c0-47.66-9.61-82.37-28.82-104.09c-19.21-21.7-49.82-32.57-91.83-32.57c-27.06,0-53.22,3.57-78.47,10.7
	c-25.27,7.1-52.16,18.49-80.61,34.16c-7.84,4.27-14.77,5.71-20.83,4.27c-6.06-1.42-10.67-4.27-13.88-8.54s-5.34-9.43-6.4-15.49
	c-1.07-6.03-0.17-11.92,2.68-17.6c2.83-5.71,7.82-10.33,14.94-13.9c29.89-16.36,60.32-28.62,91.28-36.82
	c30.96-8.19,61.02-12.29,90.21-12.29c42,0,76.68,7.12,104.09,21.35c27.41,14.25,47.69,35.6,60.87,64.07
	c13.16,28.47,19.76,65.12,19.76,109.97v305.35c0,10.67-2.51,18.87-7.5,24.55c-4.97,5.68-12.44,8.54-22.42,8.54
	c-9.98,0-17.8-2.85-23.48-8.54c-5.71-5.68-8.54-13.88-8.54-24.55V878.7h10.67c-6.4,27.75-17.8,51.61-34.16,71.55
	c-16.38,19.93-36.67,35.23-60.87,45.9S3999.6,1012.16,3969.71,1012.16z"/>
<path class="st3" d="M4347.98,1010.03c-10.67,0-18.87-2.85-24.55-8.54c-5.71-5.68-8.54-13.88-8.54-24.55V512.49
	c0-11.37,2.83-19.91,8.54-25.62c5.69-5.68,13.88-8.54,24.55-8.54c9.95,0,17.63,2.85,22.96,8.54c5.34,5.71,7.99,14.25,7.99,25.62
	v100.37l-11.74-6.4c14.22-42.7,38.6-75.1,73.13-97.17c34.51-22.04,74.2-33.09,119.04-33.09c41.28,0,75.64,7.3,103.05,21.9
	c27.38,14.6,47.86,36.82,61.39,66.73c13.5,29.89,20.28,67.25,20.28,112.11v300.01c0,10.67-2.85,18.87-8.54,24.55
	c-5.71,5.68-13.53,8.54-23.48,8.54c-10.67,0-18.87-2.85-24.58-8.54c-5.69-5.68-8.54-13.88-8.54-24.55V682.26
	c0-51.96-10.33-89.87-30.96-113.72c-20.65-23.83-53.37-35.77-98.23-35.77c-51.24,0-92.35,15.86-123.31,47.52
	c-30.96,31.68-46.45,74.2-46.45,127.6v269.05C4380,999.01,4369.33,1010.03,4347.98,1010.03z"/>
<path class="st3" d="M4892.86,356.34c-14.94,0-26.54-3.9-34.71-11.74c-8.19-7.82-12.26-18.84-12.26-33.09
	c0-14.22,4.07-25.1,12.26-32.57c8.17-7.47,19.76-11.22,34.71-11.22c14.94,0,26.51,3.75,34.71,11.22
	c8.17,7.47,12.26,18.35,12.26,32.57c0,14.25-4.1,25.27-12.26,33.09C4919.38,352.44,4907.81,356.34,4892.86,356.34z M4892.86,1011.89
	c-10.67,0-18.87-3.2-24.55-9.61c-5.71-6.4-8.54-14.94-8.54-25.62V519.69c0-11.37,2.83-19.91,8.54-25.62
	c5.69-5.68,13.88-8.54,24.55-8.54c9.95,0,17.77,2.85,23.48,8.54c5.69,5.71,8.54,14.25,8.54,25.62v456.98
	c0,10.67-2.66,19.21-7.99,25.62S4903.54,1011.89,4892.86,1011.89z"/>
<path class="st3" d="M5068.03,1011.1c-7.13,0-13.36-2.13-18.69-6.4c-5.34-4.27-8.19-10.15-8.54-17.63
	c-0.37-7.47,3-15.81,10.13-25.07l194.33-243.43v35.23l-181.5-226.35c-7.84-9.23-11.39-17.6-10.7-25.07
	c0.72-7.47,3.75-13.36,9.09-17.63s11.22-6.4,17.63-6.4c8.54,0,15.64,1.61,21.35,4.82c5.68,3.2,11.02,8.37,16.01,15.47l164.42,207.14
	h-23.48l165.48-207.14c4.96-7.1,10.33-12.26,16.01-15.47c5.68-3.2,12.46-4.82,20.28-4.82c7.13,0,13.36,2.31,18.69,6.95
	c5.34,4.62,8.17,10.5,8.54,17.6c0.35,7.12-3.38,15.32-11.2,24.55L5296.5,751.65v-29.89l192.2,240.23
	c7.1,9.26,10.48,17.45,10.13,24.55c-0.37,7.12-3.2,12.98-8.54,17.63c-5.34,4.62-11.57,6.93-18.67,6.93c-7.84,0-14.8-1.79-20.83-5.34
	c-6.06-3.55-11.94-8.54-17.63-14.94L5258.07,769.8h23.48l-176.16,221.02c-4.99,6.4-10.53,11.39-16.56,14.94
	C5082.78,1009.31,5075.85,1011.1,5068.03,1011.1z"/>
<path class="st3" d="M1924.81,1011h-13.63c-13.91,0-25.19-11.28-25.19-25.19V270.19c0-13.91,11.28-25.19,25.19-25.19h13.63
	c13.91,0,25.19,11.28,25.19,25.19v715.63C1950,999.72,1938.72,1011,1924.81,1011z"/>
</svg>
