<svg width="200px" height="38px"  id="Layer_1" data-name="Layer 1" xmlns="http://www.w3.org/2000/svg" viewBox="0 0 1265.91 239.3"><defs><style>.cls-1{fill:#335eea;}</style></defs><path class="cls-1" d="M695.42,880.59H634.17a62.58,62.58,0,0,0-62.51,62.51v113.83a62.58,62.58,0,0,0,62.51,62.51h61.25a62.84,62.84,0,0,0,44.44-18.35,61.76,61.76,0,0,0,18.58-44.16V943.1a61.76,61.76,0,0,0-18.58-44.16A62.84,62.84,0,0,0,695.42,880.59Zm19.67,175.82c0,11.13-9.29,20.18-20.69,20.18H634.68a20.45,20.45,0,0,1-20.17-20.18V944.12A20,20,0,0,1,634.68,924H694.4c11.6,0,20.69,8.86,20.69,20.17Z" transform="translate(-367.05 -880.35)"/><polygon class="cls-1" points="522.78 107.28 457.53 0 413.44 0 413.44 239.3 456.52 239.3 456.52 81.59 505.64 162.31 539.92 162.31 589.04 81.59 589.04 239.3 632.13 239.3 632.13 0 588.03 0 522.78 107.28"/><path class="cls-1" d="M1142.86,880.59H1023.18v238.86h119.68a62.58,62.58,0,0,0,62.51-62.51V943.1A62.57,62.57,0,0,0,1142.86,880.59Zm-1,196H1039.36l26.67-27.25V924h75.81A19.73,19.73,0,0,1,1162,944.13v112.28h0A20,20,0,0,1,1141.85,1076.59Z" transform="translate(-367.05 -880.35)"/><path class="cls-1" d="M458.5,1000.27l-8,5.32h6l13.4-7.55-20.72-12S442.62,997.89,458.5,1000.27Z" transform="translate(-367.05 -880.35)"/><path class="cls-1" d="M486.59,880.45H367.05v141.24h0v30.65l62.88,67.05h56.66a62.63,62.63,0,0,0,62.57-62.56V943A62.64,62.64,0,0,0,486.59,880.45Zm42.28,162,5.6,4.62-18.76,22.26c-4.76,5.45-11.48,8-18.33,6.15l-42.28-9.94s-5.32,7.72-13.59,18.49c-.14.42-.84,3.64-1.68,7a34.22,34.22,0,0,0-.36,3.53h0l-69-69.44-3.42-3.45c.77-1.1,1.43-4.46,1.81-5.4,0-.14.14-.27.14-.42,7.55-18.62,13-31.91,13-31.91-5.46-22,8-75.46,8-75.46L410.58,946l4.9,8.81L426,953.3l15.52-35,7.71-16.95,7.28,61.33c6.44,1,15,9.23,20.71,15.81a35.3,35.3,0,0,1,7.56,15.13l2.8,12.73,14.84,9.52L540.35,1040l-22.26-5.46Z" transform="translate(-367.05 -880.35)"/><path class="cls-1" d="M1352.46,880.59H1291.2a62.58,62.58,0,0,0-62.51,62.51v113.83a62.58,62.58,0,0,0,62.51,62.51h61.26c34.74,0,63-28,63-62.51V943.1C1415.48,908.63,1387.2,880.59,1352.46,880.59Zm19.66,175.82c0,11.13-9.28,20.18-20.69,20.18h-59.21a20.45,20.45,0,0,1-20.67-20.18V944.12c0-11.31,9.08-20.17,20.67-20.17h59.21c11.6,0,20.69,8.86,20.69,20.17Z" transform="translate(-367.05 -880.35)"/><path class="cls-1" d="M1528.16,978.27l13.07,43.45h48.3v34.46a20.39,20.39,0,0,1-20.35,20.38h-66.9a20.64,20.64,0,0,1-20.35-20.38v-112a20.39,20.39,0,0,1,20.35-20.38h87.91l13.06-43.43H1501.58a62.82,62.82,0,0,0-62.74,62.74v113.82a62.82,62.82,0,0,0,62.74,62.74h68.63a62.81,62.81,0,0,0,62.74-62.74V978.27Z" transform="translate(-367.05 -880.35)"/></svg>