<svg xmlns="http://www.w3.org/2000/svg" xmlns:xlink="http://www.w3.org/1999/xlink" viewBox="0 0 69 28"><g id="ss12506671970_1"><path d="M 0 0 L 68.684 0 L 68.684 28 L 0 28 Z" fill="transparent"></path><g transform="translate(0.161 0.016)" id="ss12506671970_3"><path d="M 48.113 10.621 C 48.595 10.621 48.966 10.299 48.966 9.807 C 48.966 9.334 48.614 8.955 48.151 8.955 L 48.058 8.955 C 46.78 8.955 45.816 9.826 45.15 10.734 L 45.15 9.921 C 45.15 9.448 44.76 9.05 44.297 9.05 C 43.834 9.05 43.464 9.448 43.464 9.921 L 43.464 18.038 C 43.464 18.511 43.834 18.889 44.297 18.889 C 44.76 18.889 45.15 18.511 45.15 18.038 L 45.15 12.286 C 45.798 11.302 46.798 10.621 48.021 10.621 Z M 31.142 17.451 C 31.142 17.754 30.919 18 30.66 18.151 C 29.845 18.624 29.029 18.984 27.418 18.984 C 24.398 18.984 22.619 17.149 22.619 13.97 C 22.619 11.415 23.972 8.955 27.048 8.955 C 29.901 8.955 31.457 11.207 31.457 13.724 C 31.457 14.196 31.123 14.575 30.604 14.575 L 24.323 14.575 C 24.509 16.279 25.565 17.375 27.566 17.375 C 28.677 17.375 29.381 17.149 30.067 16.788 C 30.178 16.732 30.27 16.713 30.4 16.713 C 30.789 16.713 31.142 17.016 31.142 17.451 Z M 24.323 13.175 L 29.789 13.175 C 29.678 11.207 28.232 10.412 27.047 10.412 C 25.861 10.412 24.435 11.207 24.323 13.175 Z M 41.231 9.921 C 41.231 10.072 41.194 10.185 41.139 10.318 L 37.915 18.189 C 37.748 18.568 37.359 18.889 36.896 18.889 L 36.711 18.889 C 36.248 18.889 35.858 18.568 35.692 18.189 L 32.469 10.318 C 32.412 10.185 32.376 10.072 32.376 9.92 C 32.376 9.447 32.746 9.05 33.209 9.05 C 33.543 9.05 33.858 9.258 33.969 9.542 L 36.804 16.884 L 39.639 9.542 C 39.749 9.258 40.064 9.05 40.398 9.05 C 40.861 9.051 41.232 9.447 41.232 9.921 Z M 58.029 17.451 C 58.029 17.754 57.807 18 57.547 18.151 C 56.732 18.624 55.917 18.984 54.305 18.984 C 51.285 18.984 49.506 17.149 49.506 13.97 C 49.506 11.415 50.858 8.955 53.934 8.955 C 56.787 8.955 58.344 11.207 58.344 13.724 C 58.344 14.196 58.01 14.575 57.491 14.575 L 51.211 14.575 C 51.396 16.279 52.452 17.375 54.453 17.375 C 55.564 17.375 56.269 17.149 56.954 16.788 C 57.057 16.735 57.172 16.709 57.287 16.713 C 57.677 16.713 58.029 17.016 58.029 17.451 Z M 51.211 13.175 L 56.676 13.175 C 56.565 11.207 55.12 10.412 53.934 10.412 C 52.749 10.412 51.322 11.207 51.211 13.175 Z M 68.499 18.038 L 68.499 12.664 C 68.499 10.64 67.295 8.955 65.183 8.955 C 63.534 8.955 62.515 9.826 61.737 10.696 L 61.737 9.921 C 61.737 9.689 61.647 9.467 61.487 9.303 C 61.327 9.14 61.11 9.049 60.884 9.05 C 60.421 9.05 60.051 9.429 60.051 9.921 L 60.051 18.038 C 60.051 18.511 60.421 18.889 60.884 18.889 C 61.348 18.889 61.737 18.511 61.737 18.038 L 61.737 12.362 C 62.478 11.415 63.441 10.545 64.776 10.545 C 66.221 10.545 66.813 11.415 66.813 12.853 L 66.813 18.038 C 66.813 18.511 67.184 18.889 67.647 18.889 C 68.111 18.889 68.499 18.511 68.499 18.038 Z" fill="rgb(255,255,255)"></path><g><defs><linearGradient id="idss12506671970_5g702413901" x1="0.46703495352678287" x2="0.5329650464732172" y1="5.551115123125783e-17" y2="1"><stop offset="0" stop-color="rgb(213,36,22)" stop-opacity="1"></stop><stop offset="1" stop-color="rgb(115,26,15)" stop-opacity="1"></stop></linearGradient></defs><path d="M 3.332 24.482 L 9.182 20.937 L 5.856 18.984 L 0 22.52" fill="url(#idss12506671970_5g702413901)"></path></g><g><defs><linearGradient id="idss12506671970_6g699807038" x1="0" x2="1" y1="0.4975124378109453" y2="0.5024875621890547"><stop offset="0" stop-color="rgb(213,38,23)" stop-opacity="1"></stop><stop offset="1" stop-color="rgb(115,27,14)" stop-opacity="1"></stop></linearGradient></defs><path d="M 16.742 16.356 L 9.182 20.937 L 3.324 24.485 L 9.154 27.931 L 15.029 24.37 L 16.743 23.331 Z" fill="url(#idss12506671970_6g699807038)"></path></g><g><defs><linearGradient id="idss12506671970_7g702413901" x1="0.46704385992125147" x2="0.5329561400787485" y1="0" y2="1"><stop offset="0" stop-color="rgb(213,36,22)" stop-opacity="1"></stop><stop offset="1" stop-color="rgb(115,26,15)" stop-opacity="1"></stop></linearGradient></defs><path d="M 0.012 11.536 L 3.37 13.513 L 9.196 9.999 L 5.829 8.006 Z" fill="url(#idss12506671970_7g702413901)"></path></g><g><defs><linearGradient id="idss12506671970_8g699807038" x1="0" x2="1" y1="0.4975124378109453" y2="0.5024875621890547"><stop offset="0" stop-color="rgb(213,38,23)" stop-opacity="1"></stop><stop offset="1" stop-color="rgb(115,27,14)" stop-opacity="1"></stop></linearGradient></defs><path d="M 7.511 0 L 0.012 4.562 L 0.013 11.536 L 5.83 8.006 L 13.501 3.349 Z" fill="url(#idss12506671970_8g699807038)"></path></g><g><defs><linearGradient id="idss12506671970_9g699807038" x1="0" x2="1" y1="0.4975124378109453" y2="0.5024875621890547"><stop offset="0" stop-color="rgb(213,38,23)" stop-opacity="1"></stop><stop offset="1" stop-color="rgb(115,27,14)" stop-opacity="1"></stop></linearGradient></defs><path d="M 12.403 8.065 L 9.197 9.999 L 3.37 13.513 L 0 15.546 L 0 22.52 L 5.856 18.984 L 9.216 16.955 L 15.023 13.449 L 18.393 11.414 Z" fill="url(#idss12506671970_9g699807038)"></path></g></g></g></svg>