<?xml version="1.0" encoding="UTF-8"?>
<svg version="1.1" xmlns="http://www.w3.org/2000/svg" width="1575" height="420">
<path d="M0 0 C20.75292648 19.70479888 26.29116638 49.72117702 27.2109375 77.109375 C27.8951861 105.56186143 22.90444028 136.50019592 4.0625 158.875 C-3.63102692 166.83706189 -13.0661696 173.19159258 -23.6875 176.4375 C-24.35394531 176.64890625 -25.02039062 176.8603125 -25.70703125 177.078125 C-42.7450416 181.63896907 -62.9895587 180.38776592 -78.4921875 171.90234375 C-97.94739321 160.07293197 -108.51835798 142.15824097 -114.14111328 120.52368164 C-117.25138712 107.68640002 -118.09608453 95.14777734 -118.0625 82 C-118.06162384 81.16189789 -118.06074768 80.32379578 -118.05984497 79.46029663 C-117.96989437 53.33945106 -113.46762345 28.83716382 -97.6875 7.4375 C-97.13578125 6.67179687 -96.5840625 5.90609375 -96.015625 5.1171875 C-86.64388669 -6.71347225 -72.10950069 -13.55703823 -57.5 -15.9375 C-36.11747881 -18.23005897 -16.72740196 -14.14859416 0 0 Z M-72.40625 23.3203125 C-86.25765517 40.77590983 -88.55442156 64.86954242 -87.6875 86.4375 C-87.63464844 87.75363281 -87.58179688 89.06976563 -87.52734375 90.42578125 C-87.27895089 98.21267525 -87.27895089 98.21267525 -84.6875 105.4375 C-79.19888028 99.97217721 -73.71305908 94.50406183 -68.23067379 89.03248596 C-65.68417306 86.49117641 -63.13676235 83.95079395 -60.5871582 81.41259766 C-58.12101795 78.95742136 -55.65741699 76.49972208 -53.195467 74.04034424 C-51.81089044 72.65848095 -50.42377877 71.27915925 -49.03660583 69.89990234 C-44.55267334 65.41636349 -40.20404481 60.88140067 -36.08451843 56.05937195 C-34.33392795 54.02701967 -32.47667323 52.12813231 -30.5625 50.25 C-29.89089844 49.58742187 -29.21929688 48.92484375 -28.52734375 48.2421875 C-27.92019531 47.64664063 -27.31304688 47.05109375 -26.6875 46.4375 C-25.841875 45.591875 -24.99625 44.74625 -24.125 43.875 C-20.3125 40.0625 -16.5 36.25 -12.6875 32.4375 C-18.1015347 23.39360113 -24.59916148 16.18287119 -34.6875 12.4375 C-49.20100883 8.86860439 -62.33359829 12.2861804 -72.40625 23.3203125 Z M-6.6875 59.4375 C-30.1175 82.8675 -53.5475 106.2975 -77.6875 130.4375 C-74.07928978 139.45802555 -67.84093126 145.55986244 -59.046875 149.59765625 C-49.4706504 153.0064117 -39.07917643 152.00379875 -29.6875 148.4375 C-17.83781303 141.64785017 -11.45312779 130.16933621 -7.6875 117.4375 C-3.34250277 100.0335717 -1.7060965 80.1571623 -4.6875 62.4375 C-5.6775 60.9525 -5.6775 60.9525 -6.6875 59.4375 Z " fill="#54D433" transform="translate(1412.6875,126.5625)"/>
<path d="M0 0 C3.69536745 3.42307722 7.58497815 7.17776881 9.85546875 11.71875 C10.18546875 6.10875 10.51546875 0.49875 10.85546875 -5.28125 C20.09546875 -5.28125 29.33546875 -5.28125 38.85546875 -5.28125 C38.87802234 3.30681111 38.89638532 11.89484936 38.90728092 20.48293209 C38.91250911 24.470322 38.91960559 28.45769067 38.9309082 32.44506836 C38.94173936 36.29000114 38.94774607 40.13491345 38.95034599 43.97986031 C38.95219983 45.44993983 38.95581966 46.92001818 38.96119881 48.39008904 C38.9684123 50.44229467 38.96945956 52.49441467 38.96899414 54.54663086 C38.97121475 55.71689316 38.97343536 56.88715546 38.97572327 58.09288025 C38.85546875 60.71875 38.85546875 60.71875 37.85546875 61.71875 C35.86789847 61.81858058 33.87679355 61.84955753 31.88671875 61.8515625 C30.67628906 61.85285156 29.46585938 61.85414063 28.21875 61.85546875 C26.94386719 61.85160156 25.66898438 61.84773438 24.35546875 61.84375 C23.08058594 61.84761719 21.80570313 61.85148437 20.4921875 61.85546875 C19.28175781 61.85417969 18.07132813 61.85289062 16.82421875 61.8515625 C15.70466797 61.85043457 14.58511719 61.84930664 13.43164062 61.84814453 C10.85546875 61.71875 10.85546875 61.71875 9.85546875 60.71875 C9.55462767 58.7439219 9.29045728 56.76347118 9.04296875 54.78125 C7.36657984 43.66606269 3.52072337 34.29952992 -5.28125 26.9296875 C-14.32790419 20.51966726 -23.10463314 18.57260306 -34.14453125 19.71875 C-44.35627891 21.86079206 -51.72666881 27.61360286 -57.39453125 36.28125 C-72.07846176 63.08654142 -71.44075788 99.20730769 -63.26953125 127.90625 C-59.5812598 138.79013028 -53.54497684 148.94550546 -43.2890625 154.75 C-33.35572322 159.23719151 -21.59813551 158.40350737 -11.39453125 155.15625 C-1.61001324 151.11294182 5.62904752 144.43265855 10.04541016 134.76220703 C12.99529145 127.32082474 14.82689419 119.43722882 16.85546875 111.71875 C3.98546875 111.71875 -8.88453125 111.71875 -22.14453125 111.71875 C-22.14453125 102.47875 -22.14453125 93.23875 -22.14453125 83.71875 C0.29546875 83.71875 22.73546875 83.71875 45.85546875 83.71875 C45.85546875 102.49633512 45.85546875 102.49633512 44.60546875 111.84375 C44.47124512 112.87145508 44.33702148 113.89916016 44.19873047 114.95800781 C43.108138 122.82665109 41.54525939 130.22229376 38.85546875 137.71875 C38.50871094 138.71390625 38.16195312 139.7090625 37.8046875 140.734375 C31.3555315 157.66617976 20.69936591 170.79490792 4.85546875 179.71875 C4.18515625 180.11964844 3.51484375 180.52054688 2.82421875 180.93359375 C-12.15714736 188.81070093 -33.46437119 188.24090294 -49.31640625 183.71484375 C-67.97474451 177.14319146 -80.62122818 164.1551173 -89.32421875 146.69921875 C-105.02371163 113.46618009 -103.56232214 69.60212282 -91.51953125 35.53125 C-85.34296374 19.19427964 -73.92862626 5.04403983 -58.15234375 -2.76171875 C-52.26294921 -5.31678687 -46.48458707 -7.26730725 -40.14453125 -8.28125 C-39.46390625 -8.40371094 -38.78328125 -8.52617188 -38.08203125 -8.65234375 C-24.66437298 -10.6501936 -10.72723067 -8.67025654 0 0 Z " fill="#FDFEFD" transform="translate(669.14453125,119.28125)"/>
<path d="M0 0 C18.81 0 37.62 0 57 0 C57 62.04 57 124.08 57 188 C46.77 188 36.54 188 26 188 C25.67 184.7 25.34 181.4 25 178 C23.9275 178.86625 22.855 179.7325 21.75 180.625 C8.48658623 190.49653547 -4.67891316 193.28020675 -20.89404297 191.33642578 C-35.4901428 189.00470476 -48.57936143 180.73920249 -57.25 168.9375 C-70.71507924 149.48485823 -73.84180484 126.28860967 -70.3828125 103.08984375 C-67.09520179 85.72561995 -58.03649687 69.91979848 -43.5625 59.5625 C-29.14180444 50.81721235 -13.91189551 47.78933075 2.6875 51.125 C11.32484058 53.35024892 18.08144599 57.4651568 25 63 C25.33 51.12 25.66 39.24 26 27 C17.42 27 8.84 27 0 27 C0 18.09 0 9.18 0 0 Z M-31 90 C-39.68084884 101.74584103 -42.2065218 115.31322739 -40.3125 129.6875 C-38.29970605 140.81154121 -34.42315866 149.97529786 -25.1875 156.75 C-16.70942806 162.36011882 -7.25276843 165.18823475 3 164 C11.47496453 162.1963537 20.00459421 159.55845224 26 153 C27.47193339 148.22408601 27.38778566 143.5146525 27.29296875 138.5625 C27.29717245 137.15436577 27.30449394 135.74623775 27.31477356 134.33813477 C27.32497085 131.39515648 27.29977478 128.45523174 27.2487793 125.51269531 C27.1861819 121.75501939 27.20863063 118.00361527 27.25730419 114.2459259 C27.28605465 111.34052486 27.27119036 108.43658007 27.24328041 105.53121948 C27.23481062 104.14706197 27.23923707 102.76275919 27.25722313 101.37869263 C27.46288919 93.44153781 27.46288919 93.44153781 24.02655029 86.60606384 C14.88064558 79.33500806 4.157031 77.19875162 -7.3515625 77.5546875 C-16.69425994 78.69501674 -24.81779538 82.89115621 -31 90 Z " fill="#FDFEFD" transform="translate(1225,114)"/>
<path d="M0 0 C9.48493837 8.93893041 14.07037869 19.66145889 14.57235718 32.6829834 C14.69722211 38.54018001 14.65039991 44.39602072 14.60546875 50.25390625 C14.59986422 52.41151635 14.59559818 54.5691303 14.59260559 56.72674561 C14.58122426 62.36886381 14.55181566 68.01074541 14.51849365 73.652771 C14.48764715 79.42473145 14.47406926 85.19673064 14.45898438 90.96875 C14.42693883 102.26704705 14.37422655 113.56510734 14.3125 124.86328125 C4.0825 124.86328125 -6.1475 124.86328125 -16.6875 124.86328125 C-17.0175 119.58328125 -17.3475 114.30328125 -17.6875 108.86328125 C-18.43 109.87390625 -19.1725 110.88453125 -19.9375 111.92578125 C-30.24537792 123.79182676 -47.66720579 127.91716777 -62.71484375 129.1015625 C-77.75749615 129.48520061 -91.76535376 126.13516938 -102.9921875 115.7265625 C-112.70419175 105.5342943 -114.18826734 95.08660278 -113.953125 81.578125 C-113.51895097 70.74718557 -108.32970243 64.22106514 -100.6875 56.86328125 C-82.55199713 40.67174681 -58.59891744 38.50013331 -35.375 38.73828125 C-33.65169796 38.74833912 -31.92839018 38.75745997 -30.20507812 38.765625 C-26.03240738 38.78739782 -21.86001913 38.82177 -17.6875 38.86328125 C-17.65013969 37.27622287 -17.62359902 35.6889076 -17.6015625 34.1015625 C-17.58561035 33.21766846 -17.5696582 32.33377441 -17.55322266 31.4230957 C-17.76399306 27.40504541 -18.87149107 24.73049035 -21.6875 21.86328125 C-32.40916282 14.12557449 -46.10008254 14.05943586 -58.6875 15.86328125 C-71.21743656 18.01630419 -82.36259362 22.10485428 -93.6875 27.86328125 C-98.76755594 20.24319734 -102.67135547 12.07495146 -106.6875 3.86328125 C-78.17787613 -15.52326298 -28.88705263 -22.96688632 0 0 Z M-80.53515625 75.52734375 C-82.97142347 78.49972549 -83.9828122 81.08788503 -84.1875 84.92578125 C-83.64940067 89.16331349 -83.2139558 91.41811425 -80.6875 94.86328125 C-71.25160577 101.59021933 -60.88564584 101.75198358 -49.6875 100.86328125 C-36.93880055 98.71039813 -26.60749239 93.38537609 -18.9296875 82.87890625 C-16.60289641 79.10335845 -16.57839531 76.01001718 -16.625 71.67578125 C-16.63402344 70.58910156 -16.64304687 69.50242187 -16.65234375 68.3828125 C-16.66394531 67.55136719 -16.67554688 66.71992188 -16.6875 65.86328125 C-36.4299902 63.3105505 -64.56199627 61.1413688 -80.53515625 75.52734375 Z " fill="#FDFDFD" transform="translate(976.6875,177.13671875)"/>
<path d="M0 0 C13.56339237 7.21371535 25.21567637 18.29492828 35 30 C35.72703125 30.86753906 36.4540625 31.73507813 37.203125 32.62890625 C51.44432808 50.4304101 63.58684648 70.31159268 75 90 C75.39735352 90.66837891 75.79470703 91.33675781 76.20410156 92.02539062 C79 96.77572725 79 96.77572725 79 99 C79.72960937 98.74605469 80.45921875 98.49210937 81.2109375 98.23046875 C108.31707727 89.29548194 136.61444088 89.69198496 163.58203125 98.9140625 C166.73370313 99.91539368 169.72954865 100.54924866 173 101 C173.57105469 100.12601562 174.14210938 99.25203125 174.73046875 98.3515625 C184.79303316 83.04979422 195.5093212 68.26071287 207 54 C207.74636719 53.07058594 208.49273437 52.14117187 209.26171875 51.18359375 C211.48753616 48.43828575 213.73853676 45.71600984 216 43 C216.64243652 42.22003662 216.64243652 42.22003662 217.29785156 41.42431641 C251.18322292 0.38159892 251.18322292 0.38159892 273.42578125 -2.43359375 C278.31581913 -2.61634715 281.9551201 -2.47494541 286.4375 -0.4375 C287.283125 0.366875 288.12875 1.17125 289 2 C289.50917969 2.474375 290.01835937 2.94875 290.54296875 3.4375 C304.14809381 17.41214697 303.38714236 44.6843026 303.1484375 62.86328125 C301.94115044 114.52923006 283.32045733 161.82922501 246 198 C247.31061591 202.23429756 248.94356259 206.07407404 251 210 C255.04650076 208.68488725 259.01651185 207.24501679 262.97265625 205.68359375 C275.94909122 201.3081099 290.9758651 203.62149439 303.03515625 209.47265625 C311.47081648 214.38088772 318.60539376 221.56837005 321.5390625 231.07421875 C323.28196563 238.35600893 323.44483371 245.11033258 320 252 C321.98 252 323.96 252 326 252 C326 252.99 326 253.98 326 255 C324.2675 255.061875 324.2675 255.061875 322.5 255.125 C318.78015544 255.54770961 317.02222422 256.5872998 314.25 259.0625 C310.76248084 261.9539206 308.5704921 262.33605234 304.0625 262.1875 C303.12535156 262.09855469 302.18820312 262.00960938 301.22265625 261.91796875 C298.19272688 261.99509422 296.56853118 262.42876048 293.79296875 263.46875 C288.5713759 265.3406831 283.75131009 265.41059754 278.25 265.3125 C276.87134766 265.31733398 276.87134766 265.31733398 275.46484375 265.32226562 C270.76760185 265.28487803 267.33011153 264.92532641 263 263 C260.87963425 262.81211949 258.75265917 262.69069969 256.625 262.625 C249.88571846 262.20522595 245.84763559 260.84763559 241 256 C238.58881308 255.7948518 236.29105863 255.71485524 233.87799072 255.7215271 C232.76408293 255.7128385 232.76408293 255.7128385 231.62767196 255.70397437 C229.12445938 255.68689249 226.62143034 255.68409041 224.11816406 255.68115234 C222.32732692 255.6718568 220.53649412 255.66168869 218.7456665 255.65071106 C213.85910107 255.62327787 208.97256474 255.60820971 204.08594227 255.59528303 C198.94135593 255.57962377 193.79682764 255.5528166 188.65228271 255.5272522 C178.85908565 255.48031687 169.06587722 255.44368332 159.27262473 255.41057932 C148.28421517 255.37289466 137.29587133 255.32313767 126.30751467 255.27259517 C112.84420911 255.21111505 99.38088491 255.15370226 85.9175415 255.10116577 C84.48774015 255.09531631 84.48774015 255.09531631 83.02905393 255.08934867 C78.36911095 255.07107763 73.70927025 255.05815691 69.0492897 255.05695152 C60.95101601 255.05162289 52.8599318 255.01692126 44.7638905 254.81166828 C41.24327389 254.72513805 37.7224287 254.66416089 34.20124769 254.60570455 C32.55975897 254.57123275 30.91847688 254.52418205 29.2777524 254.46338153 C18.98042965 253.83198313 18.98042965 253.83198313 10.14923096 258.49179077 C9.59328876 259.13073965 9.03734657 259.76968853 8.46455765 260.4279995 C7 262 7 262 3.91015625 262.578125 C2.50056641 262.41570312 2.50056641 262.41570312 1.0625 262.25 C-2.8690499 261.83899891 -5.55062884 262.09399694 -9.20703125 263.46484375 C-14.42918092 265.34080944 -19.24692507 265.41062901 -24.75 265.3125 C-26.12865234 265.31733398 -26.12865234 265.31733398 -27.53515625 265.32226562 C-32.2335276 265.28486904 -35.66776397 264.92210126 -40 263 C-42.10034675 262.83595243 -44.20630172 262.73542547 -46.3125 262.6875 C-53.5192082 262.24627297 -57.95047783 260.04952217 -63 255 C-65.66242821 254.53709779 -65.66242821 254.53709779 -68.625 254.375 C-69.62789062 254.30023438 -70.63078125 254.22546875 -71.6640625 254.1484375 C-72.43492187 254.09945313 -73.20578125 254.05046875 -74 254 C-74 252.68 -74 251.36 -74 250 C-71.36 249.67 -68.72 249.34 -66 249 C-66.33 248.01 -66.66 247.02 -67 246 C-68.02291551 235.13361889 -65.87059068 226.48416026 -59.375 217.6875 C-52.26571002 209.40865954 -42.78833415 204.68703589 -31.90136719 203.8359375 C-23.12884581 203.38587227 -15.15130509 203.37719774 -7 207 C-6.63303929 204.18865636 -6.28123619 201.37670145 -5.9375 198.5625 C-5.83373047 197.77939453 -5.72996094 196.99628906 -5.62304688 196.18945312 C-4.40046361 186.40113662 -4.40046361 186.40113662 -7.75 177.49609375 C-8.4925 176.81675781 -9.235 176.13742187 -10 175.4375 C-39.81336172 144.68067746 -47.60705623 87.14224246 -47.28515625 46.34716797 C-46.99784183 31.03196261 -45.73577239 13.95852551 -35 2 C-24.42659435 -6.36643294 -11.79022219 -5.78290547 0 0 Z M-31.6875 6.5 C-45.23554135 23.56386417 -43.32929698 51.1792003 -41.27685547 71.5859375 C-37.23930144 106.25661725 -28.71179358 150.46455387 -2.375 175.5 C1.27299976 179.52821382 0.49936591 184.56953946 0.27734375 189.703125 C-0.01375704 193.16353443 -0.47203782 196.56824582 -1 200 C-1.49717654 203.46906326 -1.78933389 206.56239371 -1 210 C0.75216739 211.92560528 2.57501283 213.13295063 4.76953125 214.52734375 C12.12627467 219.38459816 16.09422898 226.52735533 18 235 C18.47341509 240.20756595 18.32581553 244.94562021 17 250 C34.64428478 251.14917686 45.71111435 248.89828786 59.57421875 237.16796875 C63.16845354 233.95572993 66.73038925 230.70999301 70.2734375 227.44140625 C72.82027059 225.16093249 75.42848995 223.03710457 78.125 220.9375 C94.89630212 207.58945417 103.72653367 190.74105664 106.66015625 169.53515625 C108.91454464 146.08433445 107.70954826 122.50358496 107 99 C96.80632023 99.55710822 96.80632023 99.55710822 87 102.125 C82.81057949 103.64366494 80.29119909 104.37581072 76 103 C74.52124023 101.26025391 74.52124023 101.26025391 73.30859375 98.9765625 C72.84517578 98.1299707 72.38175781 97.28337891 71.90429688 96.41113281 C71.17823242 95.03199707 71.17823242 95.03199707 70.4375 93.625 C69.37718988 91.69339156 68.31330541 89.76374143 67.24609375 87.8359375 C66.43760986 86.36785645 66.43760986 86.36785645 65.61279297 84.87011719 C58.00919661 71.33880039 49.15679776 58.51662348 40 46 C39.35466309 45.11489746 39.35466309 45.11489746 38.69628906 44.21191406 C25.59547211 26.36575826 9.22422352 6.68940404 -13.21875 1.21484375 C-20.56171642 0.33731892 -26.40785157 0.97478653 -31.6875 6.5 Z M242 23 C241.48791992 23.49161621 240.97583984 23.98323242 240.44824219 24.48974609 C233.95113308 30.75329899 227.83197693 37.1332923 222.22265625 44.21875 C220.26014622 46.67447432 218.23407435 49.0572253 216.17211914 51.42944336 C208.56891115 60.21224764 201.79632284 69.58798041 195 79 C194.07946248 80.2669528 193.15889245 81.53388199 192.23828125 82.80078125 C186.26942788 91.0534297 180.59955286 99.49344523 175 108 C170.33525709 107.36128905 166.05201818 106.11381456 161.625 104.5625 C151.5443277 101.04028729 151.5443277 101.04028729 141 100 C140.03492008 144.95787697 145.1291118 184.76529109 170.85546875 222.32373047 C171.87291887 223.81387819 172.87507822 225.31444041 173.875 226.81640625 C178.07562791 233.02983503 182.82239436 238.57864344 188 244 C188.69869957 244.86786636 188.69869957 244.86786636 189.41151428 245.75326538 C191.78465684 248.5000576 193.7101314 250.65242561 197.28549194 251.61585999 C199.91362703 251.80717547 202.45690012 251.7887696 205.08984375 251.68359375 C206.03436905 251.67368912 206.97889435 251.66378448 207.95204163 251.65357971 C210.94881968 251.61460452 213.94184226 251.52681841 216.9375 251.4375 C218.97716038 251.40236415 221.01687858 251.37042913 223.05664062 251.34179688 C228.03919245 251.26489806 233.0189611 251.14423552 238 251 C237.83991455 250.05922607 237.6798291 249.11845215 237.51489258 248.14916992 C235.87054928 238.09208875 237.4514005 229.11704585 243.125 220.5 C243.74375 219.675 244.3625 218.85 245 218 C245.66 217.01 246.32 216.02 247 215 C246.4946875 214.03578125 245.989375 213.0715625 245.46875 212.078125 C244.8120761 210.80230143 244.15584945 209.52624758 243.5 208.25 C243.16613281 207.61578125 242.83226562 206.9815625 242.48828125 206.328125 C240.72824467 202.87989007 240 200.95159931 240 197 C241.1796875 195.24609375 241.1796875 195.24609375 242.875 193.4375 C243.51953125 192.73238281 244.1640625 192.02726563 244.828125 191.30078125 C246.29106839 189.75100849 247.7599566 188.20682851 249.234375 186.66796875 C281.6460919 152.1907993 297.20909461 107.7123983 297.25 60.75 C297.25100708 59.9509726 297.25201416 59.15194519 297.25305176 58.32870483 C297.2449027 48.76518976 297.09812579 39.2991794 295.75 29.8125 C295.58612793 28.63349121 295.58612793 28.63349121 295.41894531 27.43066406 C293.98104135 18.83720653 290.510316 10.93686848 284 5 C269.16073021 -3.32446842 251.78456036 13.54933413 242 23 Z M113 98 C111.68219297 100.63561407 111.90144261 102.55822473 111.93408203 105.50927734 C111.94384064 106.66583832 111.95359924 107.82239929 111.96365356 109.01400757 C111.97822601 110.27524445 111.99279846 111.53648132 112.0078125 112.8359375 C112.02085727 114.82966181 112.03388159 116.82338645 112.04582024 118.81711769 C112.07616609 123.72455931 112.11532901 128.63184539 112.17138672 133.5390625 C112.48586136 161.99867601 112.44305745 193.8894101 91.3125 215.76953125 C85.91120611 220.97922519 80.27658422 225.78846308 74.4375 230.5 C71.0453383 233.23728604 67.92975184 236.02029796 64.9375 239.1875 C61.34836196 242.91841272 57.42132719 245.37556163 52.90625 247.87109375 C52.2771875 248.24363281 51.648125 248.61617187 51 249 C51 249.33 51 249.66 51 250 C66.51 250 82.02 250 98 250 C97.67 246.7 97.34 243.4 97 240 C98.86853553 234.62796036 100.98984866 231.10363935 105.81640625 228.03125 C115.53338034 223.44219605 125.45797939 222.68385783 135.6015625 226.0234375 C140.49563807 228.01613928 143.88868592 230.42265099 146.9375 234.75 C148.76823521 240.34989594 148.41677365 245.33290541 147 251 C160.2 251 173.4 251 187 251 C182.95456468 246.27084242 182.95456468 246.27084242 178.8671875 241.578125 C172.13674813 233.71274879 166.85038271 225.07925995 161.43261719 216.28466797 C160.14092848 214.22474587 158.81121455 212.20258669 157.4453125 210.19140625 C135.99463924 178.54801662 136.71806968 135.92453013 135 99 C132.14839609 98.18565857 129.63373869 97.88118758 126.671875 97.90234375 C125.47304688 97.90717773 125.47304688 97.90717773 124.25 97.91210938 C123.425 97.92048828 122.6 97.92886719 121.75 97.9375 C120.90953125 97.94201172 120.0690625 97.94652344 119.203125 97.95117188 C117.13538599 97.96292039 115.06768376 97.98085478 113 98 Z M-51.875 218.5 C-52.57625 219.325 -53.2775 220.15 -54 221 C-55.0209375 222.051875 -55.0209375 222.051875 -56.0625 223.125 C-60.55455475 229.79062963 -62.88082272 236.75450863 -61.609375 244.77734375 C-60.13211051 250.16557126 -56.75671779 254.18921221 -52 257 C-49.23979773 257.31868257 -46.79410531 257.18943087 -44 257 C-43.90912109 255.55367188 -43.90912109 255.55367188 -43.81640625 254.078125 C-43.73261719 252.81484375 -43.64882812 251.5515625 -43.5625 250.25 C-43.48128906 248.99703125 -43.40007812 247.7440625 -43.31640625 246.453125 C-43.07484478 243.81682447 -42.75716066 241.51962706 -42 239 C-41.01 239 -40.02 239 -39 239 C-39.03480469 240.10859375 -39.06960937 241.2171875 -39.10546875 242.359375 C-39.13361349 243.82290148 -39.16091292 245.28644439 -39.1875 246.75 C-39.21263672 247.47960937 -39.23777344 248.20921875 -39.26367188 248.9609375 C-39.30798412 252.21050186 -39.2353876 254.56394273 -37.67578125 257.453125 C-34.11607405 260.73900857 -29.73991521 260.1833727 -25.1875 260.1875 C-24.13852539 260.20586914 -24.13852539 260.20586914 -23.06835938 260.22460938 C-18.65700628 260.23698922 -15.08009535 259.68077435 -11 258 C-9.75164929 256.97287282 -9.75164929 256.97287282 -9.8671875 254.77734375 C-9.88283714 249.08869829 -10.15078141 243.62607319 -11 238 C-9.68 238 -8.36 238 -7 238 C-5.51068936 243.36151829 -4.6613084 248.44577543 -4.24609375 253.99609375 C-4.20920675 255.99600793 -4.20920675 255.99600793 -3 257 C0.33203154 257.46648441 2.88515912 257.59609859 5.9140625 255.9765625 C10.78868475 252.22206621 13.04781315 248.05390378 14 242 C14.29912352 234.35284207 11.34722158 228.65123357 7.3125 222.375 C-1.45647148 213.36902929 -12.99793754 209.17590252 -25.375 208.8125 C-35.20872254 208.97889124 -44.38610004 211.98791308 -51.875 218.5 Z M248.5390625 220.93359375 C242.78392741 228.66066599 240.72725245 236.44740026 242 246 C243.82849095 251.38923649 246.92216411 254.46108206 252 257 C253.37342831 257.0689472 254.75002102 257.08467708 256.125 257.0625 C257.40375 257.041875 258.6825 257.02125 260 257 C259.98839844 256.21496094 259.97679687 255.42992187 259.96484375 254.62109375 C259.91624493 248.96280225 259.98705251 243.57121122 261 238 C262.32 238.33 263.64 238.66 265 239 C264.89300781 239.94101562 264.78601563 240.88203125 264.67578125 241.8515625 C264.55589844 243.09679687 264.43601562 244.34203125 264.3125 245.625 C264.12107422 247.46964844 264.12107422 247.46964844 263.92578125 249.3515625 C264.0087987 253.43252554 264.77279436 255.60567744 267 259 C270.79186081 260.2639536 274.3625172 260.18414402 278.3125 260.1875 C279.43301758 260.20586914 279.43301758 260.20586914 280.57617188 260.22460938 C285.11522437 260.23656474 288.72499142 259.71951855 293 258 C293.94089801 252.88756818 293.8920062 248.68592064 293.0625 243.5625 C292.86785156 242.32628906 292.67320312 241.09007812 292.47265625 239.81640625 C292.31667969 238.88699219 292.16070312 237.95757812 292 237 C293.32 237 294.64 237 296 237 C296.19335938 237.94101562 296.38671875 238.88203125 296.5859375 239.8515625 C296.84632813 241.09679687 297.10671875 242.34203125 297.375 243.625 C297.63023437 244.85476563 297.88546875 246.08453125 298.1484375 247.3515625 C298.92022273 250.65820196 299.86819375 253.80141713 301 257 C304.67803287 257.35028885 306.7635939 257.11347493 310.125 255.5 C314.25363731 251.9098806 316.42625845 248.24925063 317.3828125 242.83203125 C317.8201026 234.59640094 314.59097199 227.57129022 309.5 221.25 C301.30941958 212.64836814 290.12999679 209.11661986 278.5 208.75 C267.23809452 209.08647169 256.31183033 212.40565179 248.5390625 220.93359375 Z M115 234 C114.85231087 236.51749828 114.85231087 236.51749828 116 239 C120.6984334 242.40636422 125.40534489 242.72930325 131 242 C134.48864806 241.00871316 134.48864806 241.00871316 137 239 C137.96906827 236.41585574 137.96906827 236.41585574 138 234 C134.32150468 230.32150468 131.32568936 229.26088119 126.28515625 228.890625 C121.76283016 229.10707821 118.21804351 230.78195649 115 234 Z " fill="#FFFFFF" transform="translate(212,80)"/>
<path d="M0 0 C4.25414623 -0.02465622 8.50825498 -0.04283899 12.76245117 -0.05493164 C14.21070073 -0.05997101 15.65894517 -0.06680253 17.10717773 -0.07543945 C19.18474588 -0.08752247 21.26224697 -0.09323211 23.33984375 -0.09765625 C24.59144287 -0.10289307 25.84304199 -0.10812988 27.13256836 -0.11352539 C30 0 30 0 31 1 C31.10399341 3.83827677 31.14361092 6.65301539 31.1418457 9.49194336 C31.14705734 10.8286911 31.14705734 10.8286911 31.15237427 12.19244385 C31.15974769 14.13605559 31.16508458 16.07967584 31.16866493 18.02329826 C31.175817 21.10524725 31.19147722 24.18703576 31.21000671 27.26893616 C31.26251314 36.03481753 31.31039258 44.80061541 31.32592773 53.56665039 C31.33604519 58.92369818 31.36547384 64.28034894 31.40724754 69.63723946 C31.41951804 71.67481028 31.42468606 73.71243733 31.42244911 75.75004387 C30.8434932 90.54477986 30.8434932 90.54477986 36 104 C41.67284033 108.80103489 47.17823775 110.33109446 54.5078125 110.2109375 C63.5829203 109.44282493 72.03228093 105.52274971 78.06640625 98.64453125 C79.9843741 96.02137117 81.5635203 93.44453831 83.0625 90.5625 C83.54847656 89.65628906 84.03445313 88.75007813 84.53515625 87.81640625 C89.23465975 76.87499861 89.46291786 65.01116143 89.51171875 53.3203125 C89.52861448 51.77089056 89.54677105 50.22148191 89.56611633 48.67208862 C89.61309248 44.64455324 89.64323729 40.61707172 89.66955566 36.58935547 C89.704941 31.729769 89.76180036 26.87038949 89.81494904 22.01097107 C89.89284666 14.67400926 89.94391621 7.33730666 90 0 C100.23 0 110.46 0 121 0 C121 44.55 121 89.1 121 135 C110.77 135 100.54 135 90 135 C89.505 122.13 89.505 122.13 89 109 C87.02 112.63 85.04 116.26 83 120 C78.09363249 126.76445084 72.68550855 131.690774 65 135 C64.33871094 135.30550781 63.67742188 135.61101562 62.99609375 135.92578125 C50.59385079 140.89138517 35.59976842 139.83701151 23.41015625 134.96484375 C12.68400735 129.55593105 6.64699985 120.92441002 2.91900635 109.76379395 C-0.4232264 97.87079734 -0.51761267 86.50874449 -0.390625 74.21875 C-0.38314621 72.06685924 -0.37746104 69.91496158 -0.37347412 67.76306152 C-0.35834669 62.15379368 -0.31917886 56.54495331 -0.2746582 50.93585205 C-0.23342437 45.1903664 -0.2154036 39.44481034 -0.1953125 33.69921875 C-0.1526698 22.46596007 -0.08457845 11.23301585 0 0 Z " fill="#FDFDFC" transform="translate(725,167)"/>
<path d="M0 0 C0.99 0.99 0.99 0.99 2 2 C1.43029911 8.32006712 -1.12671647 13.9650243 -3.4375 19.8125 C-3.84548828 20.87404297 -4.25347656 21.93558594 -4.67382812 23.02929688 C-5.06892578 24.03669922 -5.46402344 25.04410156 -5.87109375 26.08203125 C-6.23130615 27.00218018 -6.59151855 27.9223291 -6.96264648 28.87036133 C-8 31 -8 31 -10 32 C-11.82837502 31.40058216 -13.63787184 30.74337842 -15.4375 30.0625 C-28.58868637 25.86345158 -44.08401411 26.47029634 -56.66796875 32.21875 C-67.40017107 38.06382237 -73.2622892 46.51415907 -77 58 C-78.308477 62.97637594 -78.2251996 68.00166908 -78.31640625 73.11328125 C-78.33718735 74.08283249 -78.35796844 75.05238373 -78.37937927 76.05131531 C-78.44458941 79.13830707 -78.5036268 82.22538152 -78.5625 85.3125 C-78.60571237 87.40951364 -78.64932752 89.50651903 -78.69335938 91.60351562 C-78.80099694 96.7355937 -78.90028262 101.8677375 -79 107 C-69.1 107 -59.2 107 -49 107 C-49 115.91 -49 124.82 -49 134 C-79.36 134 -109.72 134 -141 134 C-141 125.09 -141 116.18 -141 107 C-130.77 107 -120.54 107 -110 107 C-110 80.6 -110 54.2 -110 27 C-119.9 27 -129.8 27 -140 27 C-141.77449594 25.22550406 -141.13030072 22.64982739 -141.1328125 20.25 C-141.13410156 19.0846875 -141.13539063 17.919375 -141.13671875 16.71875 C-141.13285156 15.4915625 -141.12898437 14.264375 -141.125 13 C-141.12886719 11.7728125 -141.13273438 10.545625 -141.13671875 9.28125 C-141.13542969 8.1159375 -141.13414062 6.950625 -141.1328125 5.75 C-141.13168457 4.67234375 -141.13055664 3.5946875 -141.12939453 2.484375 C-141 0 -141 0 -140 -1 C-138.09756238 -1.09391296 -136.19161541 -1.11743658 -134.28686523 -1.11352539 C-133.0656749 -1.11344986 -131.84448456 -1.11337433 -130.58628845 -1.11329651 C-129.24372314 -1.10818911 -127.90115825 -1.10297311 -126.55859375 -1.09765625 C-125.19238842 -1.09579199 -123.82618243 -1.09436813 -122.4599762 -1.09336853 C-118.85798305 -1.08954394 -115.25603 -1.07971417 -111.65405273 -1.06866455 C-107.98096265 -1.05844916 -104.30786592 -1.05381594 -100.63476562 -1.04882812 C-93.42314163 -1.03862203 -86.21162785 -1.01905038 -79 -1 C-78.67 8.24 -78.34 17.48 -78 27 C-76.68 24.36 -75.36 21.72 -74 19 C-65.75461561 6.20037211 -53.4492143 -0.05776273 -38.875 -3.25 C-25.54450694 -5.3358524 -12.74698956 -4.40438227 0 0 Z " fill="#FDFDFD" transform="translate(1149,168)"/>
<path d="M0 0 C0.66 -0.01417969 1.32 -0.02835937 2 -0.04296875 C4.42878802 0.23691112 5.9029876 0.93025869 8 2.1875 C12.02616997 7.41396007 12.64757498 13.04343236 12.5 19.4375 C12.47969727 20.74122559 12.47969727 20.74122559 12.45898438 22.07128906 C11.85650589 41.51172856 6.32084938 74.86665062 -8 89.1875 C-8.16098116 91.33093434 -8.27792178 93.4777223 -8.375 95.625 C-9.22831493 108.17000307 -12.55213509 116.253163 -21.75 124.875 C-26.54030443 128.89922492 -32.58137548 133.1875 -39 133.1875 C-40.9055808 130.7909483 -42.61474573 128.41399388 -44.3125 125.875 C-45.3808303 124.31764878 -46.45122654 122.76171324 -47.5234375 121.20703125 C-48.08643555 120.38799316 -48.64943359 119.56895508 -49.22949219 118.72509766 C-52.21663028 114.44375274 -55.32685246 110.25453678 -58.4375 106.0625 C-60.62887223 103.10700076 -62.81728882 100.1494021 -65 97.1875 C-65.73500732 96.1960498 -65.73500732 96.1960498 -66.48486328 95.18457031 C-70.15395435 90.16536941 -71.73246201 86.39188408 -71 80.1875 C-64.96174079 51.46496973 -40.92622368 22.19424431 -17 6.1875 C-11.41635852 2.74552922 -6.67415375 0.06517728 0 0 Z " fill="#FFFFFF" transform="translate(483,115.8125)"/>
<path d="M0 0 C7.42172522 2.54055887 12.89223646 7.20875784 18.65234375 12.40625 C19.26722656 12.95023438 19.88210937 13.49421875 20.515625 14.0546875 C38.67018074 31.12603585 58.73684745 60.31681626 60.40234375 85.84375 C60.15070885 91.20716806 58.42505664 93.9239927 54.640625 97.625 C53.98449219 98.2128125 53.32835937 98.800625 52.65234375 99.40625 C51.52101117 100.50392738 50.39589818 101.60805427 49.27734375 102.71875 C48.6946875 103.29496094 48.11203125 103.87117188 47.51171875 104.46484375 C38.71901849 113.64545725 31.31964122 124.29069162 23.65234375 134.40625 C17.92711929 132.67650133 14.1880167 130.20355759 9.65234375 126.40625 C9.0284375 125.890625 8.40453125 125.375 7.76171875 124.84375 C1.60667738 119.27745171 -2.22590988 111.64485391 -3.34765625 103.40625 C-3.29319816 101.17619108 -3.20743555 98.94677087 -3.09765625 96.71875 C-3.06094461 90.78981945 -3.93836761 87.44126316 -6.8515625 82.390625 C-17.08839163 61.97042277 -23.75608436 29.12066931 -17.3828125 6.91796875 C-14.14014805 -0.95008122 -7.65742923 -1.93665431 0 0 Z " fill="#FFFFFF" transform="translate(207.34765625,107.59375)"/>
<path d="M0 0 C6.50678122 2.84593321 9.99355866 7.86199266 13.21484375 14.01171875 C13.96747171 16.87170502 13.97677861 19.44261935 13.83984375 22.38671875 C12.18984375 22.71671875 10.53984375 23.04671875 8.83984375 23.38671875 C8.53691406 22.66226562 8.23398437 21.9378125 7.921875 21.19140625 C4.45263124 13.05465108 4.45263124 13.05465108 -1.16015625 6.38671875 C-5.03685219 5.20986463 -7.1245205 4.98658676 -10.91015625 6.44921875 C-15.4594764 10.36668888 -16.70246499 15.78021391 -18.16015625 21.38671875 C-21.91015625 22.51171875 -21.91015625 22.51171875 -24.16015625 21.38671875 C-23.6829635 14.7060202 -22.43794237 8.77348497 -17.6328125 3.80859375 C-12.09507586 -0.90322129 -7.06070861 -2.00457731 0 0 Z " fill="#FFFFFF" transform="translate(288.16015625,254.61328125)"/>
<path d="M0 0 C6.72137403 2.95178213 11.11490819 7.68015521 13.8671875 14.46484375 C14.86695803 17.49356035 15.38125688 20.13002137 14.9921875 23.33984375 C13.9921875 24.33984375 13.9921875 24.33984375 11.4296875 24.40234375 C10.6253125 24.38171875 9.8209375 24.36109375 8.9921875 24.33984375 C8.76144531 23.54320312 8.53070313 22.7465625 8.29296875 21.92578125 C5.6786507 13.18677834 5.6786507 13.18677834 -0.0078125 6.33984375 C-3.7857711 5.19296346 -5.87203962 4.8487942 -9.51953125 6.42578125 C-12.73993616 8.90301579 -13.73739855 11.30933656 -15.3203125 15.02734375 C-16.08794922 16.79658203 -16.08794922 16.79658203 -16.87109375 18.6015625 C-17.24621094 19.50519531 -17.62132812 20.40882813 -18.0078125 21.33984375 C-19.6578125 21.00984375 -21.3078125 20.67984375 -23.0078125 20.33984375 C-22.75141366 13.28887567 -20.66640794 8.66843944 -16.0078125 3.33984375 C-11.21158394 -0.75396232 -6.06623588 -1.99454059 0 0 Z " fill="#FFFFFF" transform="translate(397.0078125,256.66015625)"/>
<path d="M0 0 C0.66 0.33 1.32 0.66 2 1 C-1.63 4.63 -5.26 8.26 -9 12 C-9 7.8407692 -6.75316432 5.85455565 -4 3 C-1.6875 1.125 -1.6875 1.125 0 0 Z " fill="#F0F5ED" transform="translate(1087,174)"/>
</svg>
