<svg width="198" height="58" viewBox="0 0 198 58" fill="none" xmlns="http://www.w3.org/2000/svg">
<path d="M47.7139 0C52.9841 0 57.2567 4.27278 57.2568 9.54297V47.7148C57.2566 52.985 52.9841 57.2568 47.7139 57.2568H9.54297C4.27278 57.2568 0.000232655 52.985 0 47.7148V9.54297C0.00018163 4.27279 4.27274 0 9.54297 0H47.7139Z" fill="#1E1E1E"/>
<path d="M19.4886 12.2168H12.4057V44.8421H19.4886V12.2168Z" fill="white"/>
<path d="M44.851 16.1358L40.0756 11.3604L22.8193 28.6188L22.8304 28.6299L22.8193 28.6409L40.0756 45.8994L44.736 41.2412L32.2397 28.7472L44.851 16.1358Z" fill="white"/>
<path d="M188.566 20.833C191.264 20.833 193.432 21.6661 195.072 23.3322C196.738 24.9719 197.571 27.2728 197.571 30.2349V43.1277H192.017V30.9886C192.017 29.2696 191.581 27.9604 190.708 27.0612C189.836 26.1356 188.645 25.6728 187.138 25.6728C185.63 25.6728 184.427 26.1356 183.528 27.0612C182.655 27.9604 182.219 29.2696 182.219 30.9886V43.1277H176.665V30.9886C176.665 29.2696 176.229 27.9604 175.356 27.0612C174.483 26.1356 173.293 25.6728 171.786 25.6728C170.252 25.6728 169.035 26.1356 168.136 27.0612C167.263 27.9604 166.827 29.2696 166.827 30.9886V43.1277H161.273V21.1504H166.827V23.8083C167.541 22.8826 168.453 22.1554 169.564 21.6264C170.701 21.0975 171.944 20.833 173.293 20.833C175.012 20.833 176.546 21.2033 177.895 21.9438C179.244 22.6578 180.288 23.6893 181.029 25.0381C181.743 23.7686 182.774 22.7504 184.123 21.9834C185.498 21.2165 186.979 20.833 188.566 20.833Z" fill="#1E1E1E"/>
<path d="M159.274 31.6626C159.274 32.456 159.221 33.1701 159.116 33.8048H143.049C143.181 35.3916 143.737 36.6346 144.715 37.5338C145.694 38.433 146.897 38.8826 148.325 38.8826C150.388 38.8826 151.856 37.9966 152.729 36.2247H158.719C158.084 38.3405 156.868 40.0859 155.069 41.4612C153.271 42.81 151.063 43.4844 148.444 43.4844C146.329 43.4844 144.424 43.0215 142.732 42.0959C141.066 41.1438 139.757 39.8083 138.804 38.0892C137.879 36.3702 137.416 34.3866 137.416 32.1387C137.416 29.8642 137.879 27.8675 138.804 26.1485C139.73 24.4294 141.026 23.1071 142.692 22.1814C144.358 21.2558 146.276 20.793 148.444 20.793C150.534 20.793 152.398 21.2426 154.038 22.1418C155.704 23.0409 156.987 24.3236 157.886 25.9898C158.812 27.6295 159.274 29.5204 159.274 31.6626ZM153.522 30.0758C153.496 28.6477 152.98 27.5105 151.975 26.6642C150.97 25.7914 149.74 25.3551 148.286 25.3551C146.91 25.3551 145.747 25.7782 144.795 26.6245C143.869 27.4444 143.3 28.5948 143.089 30.0758H153.522Z" fill="#1E1E1E"/>
<path d="M112.49 32.0595C112.49 29.8379 112.927 27.8677 113.799 26.1486C114.699 24.4296 115.915 23.1072 117.449 22.1816C118.983 21.2559 120.689 20.7931 122.566 20.7931C123.995 20.7931 125.357 21.1105 126.653 21.7452C127.948 22.3535 128.98 23.1733 129.747 24.2048V13.7715H135.38V43.1275H129.747V39.8745C129.059 40.9588 128.094 41.8316 126.851 42.4928C125.608 43.1539 124.167 43.4845 122.527 43.4845C120.676 43.4845 118.983 43.0085 117.449 42.0564C115.915 41.1043 114.699 39.7687 113.799 38.0497C112.927 36.3042 112.49 34.3075 112.49 32.0595ZM129.786 32.1388C129.786 30.79 129.522 29.6396 128.993 28.6875C128.464 27.709 127.75 26.9685 126.851 26.466C125.952 25.937 124.986 25.6726 123.955 25.6726C122.924 25.6726 121.971 25.9238 121.099 26.4263C120.226 26.9288 119.512 27.6693 118.956 28.6478C118.428 29.5999 118.163 30.7371 118.163 32.0595C118.163 33.3818 118.428 34.5455 118.956 35.5505C119.512 36.529 120.226 37.2827 121.099 37.8117C121.998 38.3406 122.95 38.6051 123.955 38.6051C124.986 38.6051 125.952 38.3538 126.851 37.8513C127.75 37.3224 128.464 36.5819 128.993 35.6298C129.522 34.6513 129.786 33.4876 129.786 32.1388Z" fill="#1E1E1E"/>
<path d="M99.1727 43.4844C97.057 43.4844 95.1528 43.0215 93.4602 42.0959C91.7676 41.1438 90.4321 39.8083 89.4535 38.0892C88.5014 36.3702 88.0254 34.3866 88.0254 32.1387C88.0254 29.8907 88.5147 27.9072 89.4932 26.1881C90.4982 24.4691 91.8602 23.1467 93.5792 22.2211C95.2983 21.269 97.2157 20.793 99.3314 20.793C101.447 20.793 103.365 21.269 105.084 22.2211C106.803 23.1467 108.151 24.4691 109.13 26.1881C110.135 27.9072 110.637 29.8907 110.637 32.1387C110.637 34.3866 110.122 36.3702 109.09 38.0892C108.085 39.8083 106.71 41.1438 104.965 42.0959C103.246 43.0215 101.315 43.4844 99.1727 43.4844ZM99.1727 38.6446C100.178 38.6446 101.117 38.4066 101.989 37.9305C102.889 37.428 103.603 36.6875 104.132 35.709C104.66 34.7305 104.925 33.5403 104.925 32.1387C104.925 30.0494 104.37 28.4493 103.259 27.3386C102.174 26.2013 100.839 25.6327 99.2521 25.6327C97.6653 25.6327 96.3297 26.2013 95.2454 27.3386C94.1875 28.4493 93.6586 30.0494 93.6586 32.1387C93.6586 34.228 94.1743 35.8412 95.2057 36.9784C96.2636 38.0892 97.5859 38.6446 99.1727 38.6446Z" fill="#1E1E1E"/>
<path d="M82.4294 43.1283L72.3532 30.7909V43.1283H66.7993V15.4385H72.3532V27.8553L82.4294 15.4385H89.1337L77.7086 29.1644L89.451 43.1283H82.4294Z" fill="#1E1E1E"/>
</svg>
