<svg width="110" height="33" viewBox="0 0 110 33" fill="none" xmlns="http://www.w3.org/2000/svg">
<ellipse cx="51.6405" cy="3.71179" rx="2.94323" ry="2.94323" fill="black"/>
<ellipse cx="57.9442" cy="10.0151" rx="2.94323" ry="2.94323" fill="black"/>
<ellipse cx="2.94323" cy="2.94323" rx="2.94323" ry="2.94323" transform="matrix(1 0 0 -1 48.6973 32.7686)" fill="black"/>
<ellipse cx="2.94323" cy="2.94323" rx="2.94323" ry="2.94323" transform="matrix(1 0 0 -1 55.001 26.4653)" fill="black"/>
<ellipse cx="2.94323" cy="2.94323" rx="2.94323" ry="2.94323" transform="matrix(1 0 0 -1 60.585 20.5058)" fill="black"/>
<path d="M0.0712891 24.0963V3.46997H2.60385V24.0963H0.0712891Z" fill="black"/>
<path d="M4.15997 16.6252C4.15997 13.8582 4.92912 11.8087 6.46742 10.4767C7.75246 9.36991 9.3189 8.81649 11.1667 8.81649C13.2209 8.81649 14.8999 9.49184 16.2037 10.8425C17.5075 12.1839 18.1594 14.0411 18.1594 16.4142C18.1594 18.3371 17.8686 19.8519 17.2871 20.9587C16.7149 22.0562 15.8754 22.9097 14.7686 23.5194C13.6712 24.1291 12.4705 24.434 11.1667 24.434C9.07502 24.434 7.38196 23.7633 6.08754 22.422C4.80249 21.0807 4.15997 19.1484 4.15997 16.6252ZM6.76289 16.6252C6.76289 18.5387 7.18029 19.9738 8.0151 20.9306C8.84991 21.878 9.90045 22.3516 11.1667 22.3516C12.4236 22.3516 13.4695 21.8733 14.3043 20.9165C15.1391 19.9598 15.5565 18.5012 15.5565 16.5408C15.5565 14.693 15.1344 13.2954 14.2902 12.348C13.4554 11.3913 12.4143 10.9129 11.1667 10.9129C9.90045 10.9129 8.84991 11.3866 8.0151 12.3339C7.18029 13.2813 6.76289 14.7117 6.76289 16.6252Z" fill="black"/>
<path d="M19.2372 25.3344L21.6994 25.7003C21.8026 26.46 22.0886 27.0134 22.5576 27.3605C23.1861 27.8295 24.0443 28.064 25.1324 28.064C26.3049 28.064 27.2101 27.8295 27.8479 27.3605C28.4857 26.8915 28.9172 26.2349 29.1423 25.3907C29.2736 24.8748 29.3346 23.7915 29.3252 22.1406C28.2184 23.4444 26.8396 24.0963 25.1887 24.0963C23.1345 24.0963 21.5446 23.3553 20.419 21.8733C19.2934 20.3912 18.7307 18.6138 18.7307 16.5408C18.7307 15.1151 18.9886 13.8019 19.5045 12.6013C20.0204 11.3913 20.7661 10.458 21.7416 9.80138C22.7265 9.14479 23.8802 8.81649 25.2028 8.81649C26.9662 8.81649 28.4201 9.52936 29.5644 10.9551V9.15417H31.9V22.0702C31.9 24.3965 31.6608 26.0426 31.1824 27.0087C30.7134 27.9843 29.963 28.7534 28.9313 29.3162C27.9089 29.879 26.6473 30.1604 25.1465 30.1604C23.3643 30.1604 21.9245 29.757 20.8271 28.9504C19.7296 28.1531 19.1996 26.9478 19.2372 25.3344ZM21.3336 16.3579C21.3336 18.3183 21.7228 19.7487 22.5014 20.6492C23.2799 21.5497 24.2554 21.9999 25.4279 21.9999C26.591 21.9999 27.5665 21.5544 28.3544 20.6633C29.1423 19.7628 29.5363 18.3558 29.5363 16.4423C29.5363 14.6133 29.1282 13.2344 28.3122 12.3058C27.5055 11.3772 26.53 10.9129 25.3857 10.9129C24.2601 10.9129 23.3033 11.3725 22.5154 12.2917C21.7275 13.2016 21.3336 14.557 21.3336 16.3579Z" fill="black"/>
<path d="M33.3886 6.38242V3.46997H35.9211V6.38242H33.3886ZM33.3886 24.0963V9.15417H35.9211V24.0963H33.3886Z" fill="black"/>
<path d="M38.3411 24.0963V9.15417H40.6204V11.2787C41.7179 9.63723 43.3031 8.81649 45.376 8.81649C46.2765 8.81649 47.1019 8.98064 47.8523 9.30894C48.6121 9.62785 49.1796 10.0499 49.5548 10.5752C49.93 11.1005 50.1926 11.7243 50.3427 12.4465C50.4365 12.9155 50.4834 13.7362 50.4834 14.9087V24.0963H47.9508V15.0072C47.9508 13.9754 47.8523 13.2063 47.6553 12.6998C47.4584 12.1839 47.1066 11.7758 46.6001 11.4757C46.103 11.1662 45.5167 11.0114 44.8414 11.0114C43.7627 11.0114 42.8294 11.3537 42.0415 12.0385C41.263 12.7232 40.8737 14.0223 40.8737 15.9358V24.0963H38.3411Z" fill="black"/>
<path d="M69.4121 19.1203L71.8567 18.9764C71.8567 19.6564 71.9648 20.2361 72.1809 20.7155C72.397 21.195 72.7932 21.5873 73.3694 21.8924C73.9547 22.1975 74.6345 22.35 75.4089 22.35C76.4894 22.35 77.2998 22.1408 77.84 21.7224C78.3803 21.304 78.6504 20.8114 78.6504 20.2448C78.6504 19.8351 78.4883 19.4472 78.1642 19.081C77.831 18.7149 77.0161 18.2659 75.7195 17.7342C74.4319 17.1937 73.608 16.8145 73.2479 16.5966C72.6446 16.2392 72.1899 15.8207 71.8837 15.3413C71.5776 14.8531 71.4245 14.2952 71.4245 13.6675C71.4245 12.5691 71.8747 11.6277 72.7752 10.8431C73.6756 10.0585 74.9362 9.66624 76.5569 9.66624C78.3578 9.66624 79.7264 10.0716 80.6628 10.8823C81.6083 11.6843 82.099 12.7435 82.135 14.0598L79.7444 14.2167C79.7084 13.3798 79.4022 12.7173 78.826 12.2292C78.2497 11.741 77.4348 11.4969 76.3813 11.4969C75.5349 11.4969 74.8776 11.6843 74.4094 12.0592C73.9412 12.434 73.7071 12.8394 73.7071 13.2752C73.7071 13.7111 73.9097 14.0947 74.3149 14.4259C74.585 14.6526 75.2828 15.0013 76.4083 15.472C78.2812 16.2566 79.4608 16.8755 79.947 17.3288C80.7214 18.0524 81.1085 18.9328 81.1085 19.9702C81.1085 20.6589 80.8879 21.3345 80.4467 21.997C80.0145 22.6595 79.3482 23.1913 78.4478 23.5923C77.5564 23.9846 76.5029 24.1807 75.2873 24.1807C73.6306 24.1807 72.2214 23.7841 71.0599 22.9908C69.8983 22.1975 69.3491 20.9073 69.4121 19.1203Z" fill="black"/>
<path d="M82.0621 18.5972C82.0621 15.8861 82.886 13.6414 84.5337 11.863C85.8934 10.3985 87.6762 9.66624 89.8822 9.66624C91.611 9.66624 93.0022 10.1893 94.0557 11.2354C95.1182 12.2815 95.6494 13.6937 95.6494 15.472C95.6494 17.0673 95.3162 18.5536 94.6499 19.931C93.9836 21.2996 93.0337 22.35 91.8001 23.0823C90.5755 23.8146 89.2834 24.1807 87.9238 24.1807C86.8073 24.1807 85.7898 23.9497 84.8714 23.4877C83.962 23.0256 83.2641 22.3718 82.7779 21.5263C82.3007 20.6807 82.0621 19.7043 82.0621 18.5972ZM84.5067 18.3618C84.5067 19.6694 84.8309 20.6632 85.4792 21.3432C86.1275 22.0144 86.9514 22.35 87.9508 22.35C88.4731 22.35 88.9908 22.2498 89.504 22.0493C90.0173 21.8401 90.4945 21.5263 90.9357 21.1078C91.3769 20.6894 91.7506 20.2143 92.0567 19.6825C92.3719 19.142 92.624 18.5623 92.8131 17.9434C93.0922 17.0804 93.2318 16.2522 93.2318 15.4589C93.2318 14.2036 92.9031 13.2317 92.2458 12.543C91.5975 11.8456 90.7781 11.4969 89.7877 11.4969C89.0223 11.4969 88.3245 11.6756 87.6942 12.033C87.0639 12.3817 86.4921 12.896 85.9789 13.576C85.4747 14.2559 85.101 15.0492 84.8579 15.9558C84.6238 16.8537 84.5067 17.6557 84.5067 18.3618Z" fill="black"/>
<path d="M95.9817 23.8669L98.5884 11.8107H96.4004L96.792 9.98007H98.9801L99.3987 8.00558C99.6148 7.02051 99.8355 6.31004 100.061 5.87417C100.295 5.4383 100.668 5.08089 101.182 4.80193C101.704 4.51426 102.411 4.37042 103.302 4.37042C103.923 4.37042 104.824 4.49682 106.003 4.74963L105.558 6.81565C104.729 6.60643 104.036 6.50183 103.478 6.50183C103 6.50183 102.636 6.61951 102.384 6.85488C102.141 7.08153 101.929 7.62637 101.749 8.48939L101.425 9.98007H104.153L103.761 11.8107H101.033L98.4263 23.8669H95.9817Z" fill="black"/>
<path d="M107.673 21.9447L107.268 23.8799C106.682 24.0281 106.115 24.1022 105.566 24.1022C104.593 24.1022 103.819 23.8712 103.243 23.4092C102.81 23.0605 102.594 22.5854 102.594 21.9839C102.594 21.6788 102.711 20.9771 102.945 19.8787L104.688 11.8107H102.756L103.148 9.98007H105.079L105.822 6.56721L108.618 4.93269L107.524 9.98007H109.928L109.523 11.8107H107.132L105.471 19.4864C105.264 20.4627 105.161 21.0468 105.161 21.2386C105.161 21.5175 105.242 21.7311 105.404 21.8793C105.575 22.0275 105.849 22.1016 106.228 22.1016C106.768 22.1016 107.25 22.0493 107.673 21.9447Z" fill="black"/>
</svg>
