<svg width="258" height="56" viewBox="0 0 258 56" fill="none" xmlns="http://www.w3.org/2000/svg">
<path d="M74.4762 0H64.4375V55.7709H74.4762V0Z" fill="#292A35"/>
<path d="M104.264 12.2696C107.08 10.7415 110.321 9.96627 113.901 9.96627C119.194 9.96627 123.772 11.79 127.498 15.3872L128.329 16.1903L128.725 16.5751L129.115 16.1847L135.244 10.0555L135.624 9.67626L135.261 9.28028L134.508 8.4493C132.01 5.68864 128.937 3.56376 125.373 2.13045C121.848 0.719449 117.889 0 113.606 0C108.14 0 103.137 1.19908 98.7427 3.56376C94.3201 5.94518 90.8065 9.30259 88.2969 13.5412C85.7872 17.7798 84.5156 22.5928 84.5156 27.8464C84.5156 33.1 85.7872 37.9019 88.2969 42.1182C89.1613 43.5738 90.154 44.9179 91.2471 46.1616C96.3724 51.3204 103.215 54.767 110.85 55.5813C111.999 55.704 113.165 55.7709 114.347 55.7709C118.101 55.7709 121.703 55.1295 125.055 53.9583C128.507 52.7593 131.686 50.9913 134.497 48.7717L135.194 48.2139V26.6139H125.05V42.9324L124.994 42.9659C122.005 44.745 117.783 45.7266 113.806 45.7266C110.282 45.7266 107.064 44.9402 104.253 43.3898C101.459 41.8505 99.239 39.6977 97.6607 36.9984C96.0768 34.2935 95.2737 31.215 95.2737 27.852C95.2737 24.489 96.0768 21.3379 97.6607 18.6331C99.239 15.9337 101.453 13.7977 104.247 12.2808L104.264 12.2696Z" fill="#292A35"/>
<path d="M162.045 12.2696C164.862 10.7415 168.102 9.96627 171.682 9.96627C176.975 9.96627 181.554 11.79 185.279 15.3872L186.11 16.1903L186.506 16.5751L186.897 16.1847L193.026 10.0555L193.405 9.67626L193.042 9.28028L192.29 8.4493C189.791 5.68864 186.718 3.56376 183.154 2.13045C179.63 0.719449 175.67 0 171.387 0C165.921 0 160.919 1.19908 156.524 3.56376C152.101 5.94518 148.588 9.30259 146.078 13.5412C143.568 17.7798 142.297 22.5928 142.297 27.8464C142.297 33.1 143.568 37.9019 146.078 42.1182C146.943 43.5738 147.935 44.9179 149.028 46.1616C154.154 51.3204 160.997 54.767 168.632 55.5813C169.781 55.704 170.946 55.7709 172.129 55.7709C175.882 55.7709 179.485 55.1295 182.836 53.9583C186.289 52.7593 189.468 50.9913 192.278 48.7717L192.976 48.2139V26.6139H182.831V42.9324L182.775 42.9659C179.786 44.745 175.564 45.7266 171.588 45.7266C168.063 45.7266 164.845 44.9402 162.034 43.3898C159.24 41.8505 157.02 39.6977 155.442 36.9984C153.858 34.2935 153.055 31.215 153.055 27.852C153.055 24.489 153.858 21.3379 155.442 18.6331C157.02 15.9337 159.234 13.7977 162.028 12.2808L162.045 12.2696Z" fill="#292A35"/>
<path d="M254.21 13.5969C251.723 9.37509 248.232 6.01768 243.837 3.61396C239.453 1.21581 234.495 0 229.102 0C223.709 0 218.673 1.21581 214.29 3.61396C209.895 6.01768 206.392 9.39182 203.883 13.636C201.373 17.8801 200.102 22.6765 200.102 27.891C200.102 33.1056 201.373 37.9019 203.883 42.1405C206.392 46.3847 209.895 49.7532 214.29 52.1625C218.673 54.5607 223.653 55.7765 229.102 55.7765C234.551 55.7765 239.459 54.5607 243.837 52.1625C248.232 49.7588 251.723 46.3958 254.21 42.1795C256.698 37.9633 257.952 33.1558 257.952 27.891C257.952 22.6263 256.692 17.8244 254.21 13.6025V13.5969ZM248.098 27.8854C248.098 31.4325 247.261 34.6783 245.61 37.5338C243.959 40.3893 241.678 42.6592 238.829 44.2821C235.973 45.9106 232.699 46.736 229.102 46.736C225.505 46.736 222.198 45.9106 219.292 44.2821C216.392 42.6592 214.089 40.3893 212.438 37.5394C210.787 34.6839 209.951 31.4381 209.951 27.891C209.951 24.344 210.787 21.0981 212.438 18.2427C214.083 15.3928 216.387 13.1229 219.292 11.4944C222.203 9.86587 225.505 9.04047 229.102 9.04047C232.699 9.04047 235.973 9.86588 238.829 11.4888C241.684 13.1173 243.965 15.3872 245.61 18.2371C247.261 21.0926 248.098 24.3384 248.098 27.8854Z" fill="#292A35"/>
<path d="M17.5566 24.2496L0 6.69287V20.8866L10.457 31.3492L0 41.8062V55.9999L17.5566 38.4432L24.6506 31.3492L17.5566 24.2496Z" fill="#FD5861"/>
<path d="M48.94 0.000854492H44.3724H41.8126L28.2324 13.5811L14.6467 0.000854492H0.453125L21.1328 20.6807L21.1161 20.6919L28.2157 27.7915L44.3724 11.6347V55.7718H54.4111V0.000854492H48.94Z" fill="#292A35"/>
</svg>
