<svg width="780" height="378" viewBox="0 0 780 378" fill="none" xmlns="http://www.w3.org/2000/svg">
<path d="M354.554 224C358.098 224 361.446 223.344 364.596 222.031C367.878 220.718 370.766 218.815 373.26 216.321C375.754 213.696 377.723 210.48 379.167 206.673C380.611 202.866 381.332 198.469 381.332 193.481C381.332 188.493 380.611 184.161 379.167 180.485C377.723 176.679 375.754 173.528 373.26 171.034C370.766 168.409 367.878 166.505 364.596 165.324C361.446 164.011 358.098 163.355 354.554 163.355C351.01 163.355 347.597 164.011 344.315 165.324C341.165 166.505 338.343 168.409 335.849 171.034C333.486 173.528 331.517 176.679 329.942 180.485C328.498 184.161 327.776 188.493 327.776 193.481C327.776 198.469 328.498 202.866 329.942 206.673C331.517 210.48 333.486 213.696 335.849 216.321C338.343 218.815 341.165 220.718 344.315 222.031C347.597 223.344 351.01 224 354.554 224ZM354.554 142.681C361.774 142.681 368.403 143.993 374.441 146.619C380.479 149.113 385.73 152.657 390.193 157.251C394.656 161.714 398.135 167.031 400.629 173.2C403.123 179.37 404.37 186.13 404.37 193.481C404.37 200.832 403.123 207.657 400.629 213.958C398.135 220.128 394.656 225.51 390.193 230.104C385.73 234.567 380.479 238.111 374.441 240.737C368.403 243.231 361.774 244.478 354.554 244.478C347.466 244.478 340.837 243.231 334.667 240.737C328.629 238.111 323.378 234.567 318.915 230.104C314.584 225.51 311.171 220.128 308.677 213.958C306.183 207.657 304.936 200.832 304.936 193.481C304.936 186.13 306.183 179.37 308.677 173.2C311.171 167.031 314.584 161.714 318.915 157.251C323.378 152.657 328.629 149.113 334.667 146.619C340.837 143.993 347.466 142.681 354.554 142.681Z" fill="#2D2D2D"/>
<path d="M425.153 241.524C419.429 241.524 414.788 236.884 414.788 231.16V109.333C414.788 103.609 419.429 98.969 425.153 98.969H427.265C432.989 98.969 437.629 103.609 437.629 109.333V231.16C437.629 236.884 432.989 241.524 427.265 241.524H425.153Z" fill="#2D2D2D"/>
<path d="M464.486 241.524C458.762 241.524 454.122 236.884 454.122 231.16V155.998C454.122 150.274 458.762 145.634 464.486 145.634H466.401C472.125 145.634 476.766 150.274 476.766 155.998V231.16C476.766 236.884 472.125 241.524 466.401 241.524H464.486ZM450.578 111.964C450.578 107.764 452.022 104.22 454.91 101.332C457.798 98.4439 461.276 97 465.345 97C469.546 97 473.09 98.4439 475.978 101.332C478.866 104.22 480.31 107.764 480.31 111.964C480.31 116.165 478.866 119.709 475.978 122.597C473.09 125.354 469.546 126.732 465.345 126.732C461.276 126.732 457.798 125.354 454.91 122.597C452.022 119.709 450.578 116.165 450.578 111.964Z" fill="#2D2D2D"/>
<path d="M496.881 244.296C502.908 242.719 508.775 247.08 512.329 252.196C513.296 253.588 514.423 254.888 515.71 256.095C520.042 260.033 525.555 262.002 532.25 262.002C550.364 262.002 559.422 252.419 559.422 233.254V233.254C559.422 230.581 554.919 229.039 552.793 230.658C551.689 231.497 550.486 232.297 549.183 233.057C544.589 235.814 538.747 237.192 531.659 237.192C525.227 237.192 519.32 236.011 513.938 233.648C508.556 231.285 503.896 228.069 499.958 224C496.02 219.8 492.935 214.877 490.704 209.233C488.472 203.457 487.357 197.222 487.357 190.527C487.357 184.095 488.407 178.057 490.507 172.412C492.739 166.768 495.758 161.846 499.564 157.645C503.502 153.444 508.162 150.097 513.544 147.603C519.057 145.109 525.096 143.862 531.659 143.862C539.141 143.862 545.179 145.24 549.774 147.997C551.186 148.781 552.48 149.624 553.658 150.526C555.676 152.071 560.012 150.617 560.012 148.076V148.076C560.012 146.727 561.106 145.634 562.454 145.634H571.701C577.425 145.634 582.065 150.274 582.065 155.998V232.467C582.065 238.899 581.146 245.068 579.309 250.975C577.602 256.882 574.78 262.133 570.842 266.727C567.035 271.322 561.981 274.997 555.681 277.754C549.511 280.51 541.898 281.888 532.84 281.888C526.54 281.888 520.698 280.97 515.316 279.132C510.066 277.294 505.406 274.8 501.336 271.65C497.398 268.499 494.182 264.758 491.688 260.426C490.827 258.896 490.079 257.321 489.445 255.703C487.533 250.827 490.968 245.844 496.035 244.518L496.881 244.296ZM535.4 217.699C542.751 217.699 548.658 215.271 553.121 210.414C557.715 205.426 560.012 198.797 560.012 190.527C560.012 186.458 559.356 182.782 558.043 179.501C556.862 176.088 555.156 173.2 552.924 170.837C550.824 168.474 548.264 166.702 545.245 165.521C542.226 164.208 538.944 163.552 535.4 163.552C528.049 163.552 522.011 165.98 517.285 170.837C512.691 175.694 510.394 182.257 510.394 190.527C510.394 198.928 512.691 205.557 517.285 210.414C521.88 215.271 527.918 217.699 535.4 217.699Z" fill="#2D2D2D"/>
<path d="M642.066 224C645.61 224 648.957 223.344 652.107 222.031C655.389 220.718 658.277 218.815 660.771 216.321C663.265 213.696 665.234 210.48 666.678 206.673C668.122 202.866 668.844 198.469 668.844 193.481C668.844 188.493 668.122 184.161 666.678 180.485C665.234 176.679 663.265 173.528 660.771 171.034C658.277 168.409 655.389 166.505 652.107 165.324C648.957 164.011 645.61 163.355 642.066 163.355C638.521 163.355 635.109 164.011 631.827 165.324C628.676 166.505 625.854 168.409 623.36 171.034C620.997 173.528 619.028 176.679 617.453 180.485C616.009 184.161 615.287 188.493 615.287 193.481C615.287 198.469 616.009 202.866 617.453 206.673C619.028 210.48 620.997 213.696 623.36 216.321C625.854 218.815 628.676 220.718 631.827 222.031C635.109 223.344 638.521 224 642.066 224ZM642.066 142.681C649.285 142.681 655.914 143.993 661.952 146.619C667.991 149.113 673.241 152.657 677.704 157.251C682.167 161.714 685.646 167.031 688.14 173.2C690.634 179.37 691.881 186.13 691.881 193.481C691.881 200.832 690.634 207.657 688.14 213.958C685.646 220.128 682.167 225.51 677.704 230.104C673.241 234.567 667.991 238.111 661.952 240.737C655.914 243.231 649.285 244.478 642.066 244.478C634.977 244.478 628.348 243.231 622.179 240.737C616.141 238.111 610.89 234.567 606.427 230.104C602.095 225.51 598.682 220.128 596.188 213.958C593.694 207.657 592.447 200.832 592.447 193.481C592.447 186.13 593.694 179.37 596.188 173.2C598.682 167.031 602.095 161.714 606.427 157.251C610.89 152.657 616.141 149.113 622.179 146.619C628.348 143.993 634.977 142.681 642.066 142.681Z" fill="#2D2D2D"/>
<path fill-rule="evenodd" clip-rule="evenodd" d="M155.998 99.1278C152.33 103.245 150.116 107.181 148.925 110.868C146.852 117.288 147.695 123.539 150.317 129.631C152.972 135.799 157.39 141.643 162.191 146.963C165.384 150.502 168.517 153.576 171.366 156.371C172.882 157.859 174.317 159.267 175.639 160.625L175.638 160.626C178.718 163.69 181.842 166.491 184.782 169.127C197.684 180.693 207.041 189.082 193.538 202.585L184.146 211.978C185.341 213.186 186.7 214.501 188.205 215.957L188.207 215.958L188.207 215.958C188.738 216.471 189.287 217.003 189.853 217.553C192.219 219.85 194.816 222.413 197.392 225.188C202.513 230.705 207.742 237.255 211.027 244.579C213.5 250.09 214.907 256.128 214.293 262.495L216.54 260.248H216.545H216.55L245.904 230.893L251.399 225.398C270.641 206.156 270.641 174.96 251.399 155.718L215.741 120.059L215.738 120.056L194.656 98.9745C184.023 88.3419 166.784 88.3418 156.152 98.9744L155.998 99.1278ZM198.832 279.336C202.5 275.218 204.715 271.282 205.905 267.595C207.978 261.175 207.136 254.925 204.514 248.832C201.859 242.664 197.44 236.82 192.64 231.5C189.447 227.961 186.314 224.887 183.465 222.092C181.949 220.605 180.513 219.196 179.191 217.838L179.193 217.837C176.113 214.773 172.989 211.972 170.048 209.336C157.147 197.77 147.789 189.381 161.292 175.878L170.685 166.486C169.49 165.277 168.13 163.962 166.625 162.507L166.624 162.506L166.624 162.505C166.093 161.992 165.544 161.461 164.977 160.911C162.611 158.613 160.015 156.05 157.438 153.275C152.318 147.759 147.089 141.208 143.803 133.885C141.331 128.373 139.924 122.335 140.538 115.968L138.29 118.216L138.286 118.216L138.281 118.216L108.927 147.57L103.431 153.065C84.1896 172.307 84.1896 203.504 103.431 222.745L139.09 258.404L139.093 258.407L160.175 279.489C170.807 290.121 188.046 290.122 198.679 279.489L198.832 279.336Z" fill="url(#paint0_linear_464_36)"/>
<defs>
<linearGradient id="paint0_linear_464_36" x1="113.5" y1="91" x2="221.498" y2="287.001" gradientUnits="userSpaceOnUse">
<stop stop-color="#3D67FA"/>
<stop offset="1" stop-color="#6201FF"/>
</linearGradient>
</defs>
</svg>
