<svg width="215" height="57" viewBox="0 0 215 57" fill="none" xmlns="http://www.w3.org/2000/svg">
<path d="M9.7229 20.6879V3.15791L25.3139 0.00108157L36.6651 9.31115L21.1301 12.4679V29.998L9.7229 20.6879Z" fill="black"/>
<path d="M50.2017 9.30924V26.8393L34.6107 29.9961L23.2595 20.686L38.7945 17.5292V-0.000831226L50.2017 9.30924Z" fill="black"/>
<path d="M74.6076 15.3185C74.1493 15.7767 73.5946 16.0059 72.9439 16.0059H70.0551L75.2949 21.9629H70.852L63.3609 13.4756H71.9478V10.5469H61.8268V21.9629H58.4797V8.01666H72.9439C73.5946 8.01666 74.1493 8.24578 74.6076 8.70401C75.0658 9.16224 75.2949 9.71699 75.2949 10.3676V13.6549C75.2949 14.3058 75.0658 14.8603 74.6076 15.3185Z" fill="black"/>
<path d="M92.2493 13.4795V16.0098H81.0724V19.4366H94.5405V21.9668H80.0763C79.4253 21.9668 78.8709 21.7377 78.4127 21.2794C77.9544 20.8212 77.7253 20.2668 77.7253 19.6159V10.3715C77.7253 9.72089 77.9544 9.16615 78.4127 8.70791C78.8709 8.24968 79.4253 8.02056 80.0763 8.02056H94.0624V10.5508H81.0724V13.4795H92.2493Z" fill="black"/>
<path d="M113.487 10.3715V13.6588C113.487 14.3098 113.258 14.8642 112.8 15.3224C112.342 15.7806 111.787 16.0098 111.136 16.0098H102.37V13.4795H110.14V10.5508H100.019V21.9668H96.6721V8.02056H111.136C111.787 8.02056 112.342 8.24968 112.8 8.70791C113.258 9.16615 113.487 9.72089 113.487 10.3715Z" fill="black"/>
<path d="M130.123 13.4795V16.0098H118.946V19.4366H132.414V21.9668H117.95C117.299 21.9668 116.744 21.7377 116.286 21.2794C115.828 20.8212 115.599 20.2668 115.599 19.6159V10.3715C115.599 9.72089 115.828 9.16615 116.286 8.70791C116.744 8.24968 117.299 8.02056 117.95 8.02056H131.936V10.5508H118.946V13.4795H130.123Z" fill="black"/>
<path d="M135.233 21.2755C134.775 20.8173 134.546 20.2629 134.546 19.612V8.01666H137.893V19.0541H151.381V21.9629H136.897C136.246 21.9629 135.691 21.7338 135.233 21.2755Z" fill="black"/>
<path d="M153.961 21.2755C153.502 20.8173 153.273 20.2629 153.273 19.612V8.01666H156.62V19.0541H170.108V21.9629H155.624C154.973 21.9629 154.419 21.7338 153.961 21.2755Z" fill="black"/>
<path d="M185.489 10.5489H175.348V19.4346H185.489V10.5489ZM188.148 8.70597C188.607 9.1642 188.836 9.71894 188.836 10.3696V19.6139C188.836 20.2649 188.607 20.8193 188.148 21.2775C187.69 21.7357 187.135 21.9648 186.485 21.9648H174.352C173.701 21.9648 173.146 21.7357 172.688 21.2775C172.23 20.8193 172.001 20.2649 172.001 19.6139V10.3696C172.001 9.71894 172.23 9.1642 172.688 8.70597C173.146 8.24774 173.701 8.01861 174.352 8.01861H186.485C187.135 8.01861 187.69 8.24774 188.148 8.70597Z" fill="black"/>
<path d="M201.37 14.1737H200.264V9.56526H201.37V14.1737ZM198.197 14.1737L197.703 13.0281H196.426V12.1921H197.341L196.571 10.4147L194.939 14.1737H193.734L195.735 9.56526H197.401L199.402 14.1737H198.197ZM193.193 7.9806L190.249 15.5039H203.333L206.277 7.9806H193.193Z" fill="black"/>
<path d="M4.038 52.178C3.406 52.178 2.836 52.068 2.328 51.848C1.824 51.628 1.408 51.314 1.08 50.906C0.756 50.494 0.55 50.006 0.462 49.442L1.962 49.214C2.09 49.726 2.352 50.122 2.748 50.402C3.148 50.682 3.608 50.822 4.128 50.822C4.436 50.822 4.726 50.774 4.998 50.678C5.27 50.582 5.49 50.442 5.658 50.258C5.83 50.074 5.916 49.848 5.916 49.58C5.916 49.46 5.896 49.35 5.856 49.25C5.816 49.146 5.756 49.054 5.676 48.974C5.6 48.894 5.5 48.822 5.376 48.758C5.256 48.69 5.116 48.632 4.956 48.584L2.724 47.924C2.532 47.868 2.324 47.794 2.1 47.702C1.88 47.606 1.67 47.476 1.47 47.312C1.274 47.144 1.112 46.932 0.984 46.676C0.86 46.416 0.798 46.096 0.798 45.716C0.798 45.16 0.938 44.694 1.218 44.318C1.502 43.938 1.882 43.654 2.358 43.466C2.838 43.278 3.37 43.186 3.954 43.19C4.546 43.194 5.074 43.296 5.538 43.496C6.002 43.692 6.39 43.978 6.702 44.354C7.014 44.73 7.234 45.184 7.362 45.716L5.808 45.986C5.744 45.682 5.62 45.424 5.436 45.212C5.256 44.996 5.034 44.832 4.77 44.72C4.51 44.608 4.232 44.548 3.936 44.54C3.648 44.536 3.38 44.58 3.132 44.672C2.888 44.76 2.69 44.888 2.538 45.056C2.39 45.224 2.316 45.42 2.316 45.644C2.316 45.856 2.38 46.03 2.508 46.166C2.636 46.298 2.794 46.404 2.982 46.484C3.174 46.56 3.368 46.624 3.564 46.676L5.112 47.108C5.324 47.164 5.562 47.24 5.826 47.336C6.09 47.432 6.344 47.566 6.588 47.738C6.832 47.91 7.032 48.136 7.188 48.416C7.348 48.696 7.428 49.052 7.428 49.484C7.428 49.932 7.334 50.326 7.146 50.666C6.962 51.002 6.712 51.282 6.396 51.506C6.08 51.73 5.718 51.898 5.31 52.01C4.906 52.122 4.482 52.178 4.038 52.178ZM11.9127 52.178C11.2567 52.178 10.6807 52.036 10.1847 51.752C9.68872 51.468 9.30072 51.074 9.02072 50.57C8.74472 50.066 8.60672 49.486 8.60672 48.83C8.60672 48.122 8.74272 47.508 9.01472 46.988C9.28672 46.464 9.66472 46.058 10.1487 45.77C10.6327 45.482 11.1927 45.338 11.8287 45.338C12.5007 45.338 13.0707 45.496 13.5387 45.812C14.0107 46.124 14.3607 46.566 14.5887 47.138C14.8167 47.71 14.9027 48.384 14.8467 49.16H13.4127V48.632C13.4087 47.928 13.2847 47.414 13.0407 47.09C12.7967 46.766 12.4127 46.604 11.8887 46.604C11.2967 46.604 10.8567 46.788 10.5687 47.156C10.2807 47.52 10.1367 48.054 10.1367 48.758C10.1367 49.414 10.2807 49.922 10.5687 50.282C10.8567 50.642 11.2767 50.822 11.8287 50.822C12.1847 50.822 12.4907 50.744 12.7467 50.588C13.0067 50.428 13.2067 50.198 13.3467 49.898L14.7747 50.33C14.5267 50.914 14.1427 51.368 13.6227 51.692C13.1067 52.016 12.5367 52.178 11.9127 52.178ZM9.68072 49.16V48.068H14.1387V49.16H9.68072ZM19.2395 52.178C18.5715 52.178 18.0015 52.03 17.5295 51.734C17.0575 51.434 16.6955 51.026 16.4435 50.51C16.1955 49.994 16.0695 49.41 16.0655 48.758C16.0695 48.094 16.1995 47.506 16.4555 46.994C16.7155 46.478 17.0835 46.074 17.5595 45.782C18.0355 45.486 18.6015 45.338 19.2575 45.338C19.9935 45.338 20.6155 45.524 21.1235 45.896C21.6355 46.264 21.9695 46.768 22.1255 47.408L20.6855 47.798C20.5735 47.45 20.3875 47.18 20.1275 46.988C19.8675 46.792 19.5715 46.694 19.2395 46.694C18.8635 46.694 18.5535 46.784 18.3095 46.964C18.0655 47.14 17.8855 47.384 17.7695 47.696C17.6535 48.008 17.5955 48.362 17.5955 48.758C17.5955 49.374 17.7335 49.872 18.0095 50.252C18.2855 50.632 18.6955 50.822 19.2395 50.822C19.6235 50.822 19.9255 50.734 20.1455 50.558C20.3695 50.382 20.5375 50.128 20.6495 49.796L22.1255 50.126C21.9255 50.786 21.5755 51.294 21.0755 51.65C20.5755 52.002 19.9635 52.178 19.2395 52.178ZM25.9978 52.184C25.5178 52.184 25.1218 52.104 24.8098 51.944C24.4978 51.784 24.2498 51.58 24.0658 51.332C23.8818 51.084 23.7458 50.82 23.6578 50.54C23.5698 50.26 23.5118 49.996 23.4838 49.748C23.4598 49.496 23.4478 49.292 23.4478 49.136V45.518H24.9118V48.638C24.9118 48.838 24.9258 49.064 24.9538 49.316C24.9818 49.564 25.0458 49.804 25.1458 50.036C25.2498 50.264 25.4018 50.452 25.6018 50.6C25.8058 50.748 26.0798 50.822 26.4238 50.822C26.6078 50.822 26.7898 50.792 26.9698 50.732C27.1498 50.672 27.3118 50.57 27.4558 50.426C27.6038 50.278 27.7218 50.076 27.8098 49.82C27.8978 49.564 27.9418 49.24 27.9418 48.848L28.7998 49.214C28.7998 49.766 28.6918 50.266 28.4758 50.714C28.2638 51.162 27.9498 51.52 27.5338 51.788C27.1178 52.052 26.6058 52.184 25.9978 52.184ZM28.1158 51.998V49.988H27.9418V45.518H29.3938V51.998H28.1158ZM31.3195 51.998V45.518H32.5975V47.096L32.4415 46.892C32.5215 46.676 32.6275 46.48 32.7595 46.304C32.8955 46.124 33.0575 45.976 33.2455 45.86C33.4055 45.752 33.5815 45.668 33.7735 45.608C33.9695 45.544 34.1695 45.506 34.3735 45.494C34.5775 45.478 34.7755 45.486 34.9675 45.518V46.868C34.7755 46.812 34.5535 46.794 34.3015 46.814C34.0535 46.834 33.8295 46.904 33.6295 47.024C33.4295 47.132 33.2655 47.27 33.1375 47.438C33.0135 47.606 32.9215 47.798 32.8615 48.014C32.8015 48.226 32.7715 48.456 32.7715 48.704V51.998H31.3195ZM39.1813 52.178C38.5253 52.178 37.9493 52.036 37.4533 51.752C36.9573 51.468 36.5693 51.074 36.2893 50.57C36.0133 50.066 35.8753 49.486 35.8753 48.83C35.8753 48.122 36.0113 47.508 36.2833 46.988C36.5553 46.464 36.9333 46.058 37.4173 45.77C37.9013 45.482 38.4613 45.338 39.0973 45.338C39.7693 45.338 40.3393 45.496 40.8073 45.812C41.2793 46.124 41.6293 46.566 41.8573 47.138C42.0853 47.71 42.1713 48.384 42.1153 49.16H40.6813V48.632C40.6773 47.928 40.5533 47.414 40.3093 47.09C40.0653 46.766 39.6813 46.604 39.1573 46.604C38.5653 46.604 38.1253 46.788 37.8373 47.156C37.5493 47.52 37.4053 48.054 37.4053 48.758C37.4053 49.414 37.5493 49.922 37.8373 50.282C38.1253 50.642 38.5453 50.822 39.0973 50.822C39.4533 50.822 39.7593 50.744 40.0153 50.588C40.2753 50.428 40.4753 50.198 40.6153 49.898L42.0433 50.33C41.7953 50.914 41.4113 51.368 40.8913 51.692C40.3753 52.016 39.8053 52.178 39.1813 52.178ZM36.9493 49.16V48.068H41.4073V49.16H36.9493ZM47.1884 54.878L48.4364 51.452L48.4604 52.46L45.6344 45.518H47.1404L49.1444 50.654H48.7604L50.7104 45.518H52.1564L48.5444 54.878H47.1884ZM55.9189 52.178C55.2709 52.178 54.7049 52.032 54.2209 51.74C53.7369 51.448 53.3609 51.046 53.0929 50.534C52.8289 50.018 52.6969 49.426 52.6969 48.758C52.6969 48.078 52.8329 47.482 53.1049 46.97C53.3769 46.458 53.7549 46.058 54.2389 45.77C54.7229 45.482 55.2829 45.338 55.9189 45.338C56.5709 45.338 57.1389 45.484 57.6229 45.776C58.1069 46.068 58.4829 46.472 58.7509 46.988C59.0189 47.5 59.1529 48.09 59.1529 48.758C59.1529 49.43 59.0169 50.024 58.7449 50.54C58.4769 51.052 58.1009 51.454 57.6169 51.746C57.1329 52.034 56.5669 52.178 55.9189 52.178ZM55.9189 50.822C56.4949 50.822 56.9229 50.63 57.2029 50.246C57.4829 49.862 57.6229 49.366 57.6229 48.758C57.6229 48.13 57.4809 47.63 57.1969 47.258C56.9129 46.882 56.4869 46.694 55.9189 46.694C55.5309 46.694 55.2109 46.782 54.9589 46.958C54.7109 47.13 54.5269 47.372 54.4069 47.684C54.2869 47.992 54.2269 48.35 54.2269 48.758C54.2269 49.386 54.3689 49.888 54.6529 50.264C54.9409 50.636 55.3629 50.822 55.9189 50.822ZM63.1448 52.184C62.6648 52.184 62.2688 52.104 61.9568 51.944C61.6448 51.784 61.3968 51.58 61.2128 51.332C61.0288 51.084 60.8928 50.82 60.8048 50.54C60.7168 50.26 60.6588 49.996 60.6308 49.748C60.6068 49.496 60.5948 49.292 60.5948 49.136V45.518H62.0588V48.638C62.0588 48.838 62.0728 49.064 62.1008 49.316C62.1288 49.564 62.1928 49.804 62.2928 50.036C62.3968 50.264 62.5488 50.452 62.7488 50.6C62.9528 50.748 63.2268 50.822 63.5708 50.822C63.7548 50.822 63.9368 50.792 64.1168 50.732C64.2968 50.672 64.4588 50.57 64.6028 50.426C64.7508 50.278 64.8688 50.076 64.9568 49.82C65.0448 49.564 65.0888 49.24 65.0888 48.848L65.9468 49.214C65.9468 49.766 65.8388 50.266 65.6228 50.714C65.4108 51.162 65.0968 51.52 64.6808 51.788C64.2648 52.052 63.7528 52.184 63.1448 52.184ZM65.2628 51.998V49.988H65.0888V45.518H66.5408V51.998H65.2628ZM68.4666 51.998V45.518H69.7446V47.096L69.5886 46.892C69.6686 46.676 69.7746 46.48 69.9066 46.304C70.0426 46.124 70.2046 45.976 70.3926 45.86C70.5526 45.752 70.7286 45.668 70.9206 45.608C71.1166 45.544 71.3166 45.506 71.5206 45.494C71.7246 45.478 71.9226 45.486 72.1146 45.518V46.868C71.9226 46.812 71.7006 46.794 71.4486 46.814C71.2006 46.834 70.9766 46.904 70.7766 47.024C70.5766 47.132 70.4126 47.27 70.2846 47.438C70.1606 47.606 70.0686 47.798 70.0086 48.014C69.9486 48.226 69.9186 48.456 69.9186 48.704V51.998H68.4666ZM75.5419 51.998L78.2659 43.358H80.3839L83.1079 51.998H81.6199L79.1479 44.246H79.4719L77.0299 51.998H75.5419ZM77.0599 50.126V48.776H81.5959V50.126H77.0599ZM84.5527 51.998V43.358H85.9987V51.998H84.5527ZM88.2759 51.998V50.516H89.7579V51.998H88.2759ZM98.2168 52.178C97.3528 52.178 96.6128 51.99 95.9968 51.614C95.3808 51.234 94.9068 50.706 94.5748 50.03C94.2468 49.354 94.0828 48.57 94.0828 47.678C94.0828 46.786 94.2468 46.002 94.5748 45.326C94.9068 44.65 95.3808 44.124 95.9968 43.748C96.6128 43.368 97.3528 43.178 98.2168 43.178C99.0808 43.178 99.8208 43.368 100.437 43.748C101.057 44.124 101.531 44.65 101.859 45.326C102.191 46.002 102.357 46.786 102.357 47.678C102.357 48.57 102.191 49.354 101.859 50.03C101.531 50.706 101.057 51.234 100.437 51.614C99.8208 51.99 99.0808 52.178 98.2168 52.178ZM98.2168 50.816C98.7968 50.82 99.2788 50.692 99.6628 50.432C100.051 50.172 100.341 49.806 100.533 49.334C100.729 48.862 100.827 48.31 100.827 47.678C100.827 47.046 100.729 46.498 100.533 46.034C100.341 45.566 100.051 45.202 99.6628 44.942C99.2788 44.682 98.7968 44.548 98.2168 44.54C97.6368 44.536 97.1548 44.664 96.7708 44.924C96.3868 45.184 96.0968 45.55 95.9008 46.022C95.7088 46.494 95.6128 47.046 95.6128 47.678C95.6128 48.31 95.7088 48.86 95.9008 49.328C96.0928 49.792 96.3808 50.154 96.7648 50.414C97.1528 50.674 97.6368 50.808 98.2168 50.816ZM106.221 52.184C105.741 52.184 105.345 52.104 105.033 51.944C104.721 51.784 104.473 51.58 104.289 51.332C104.105 51.084 103.969 50.82 103.881 50.54C103.793 50.26 103.735 49.996 103.707 49.748C103.683 49.496 103.671 49.292 103.671 49.136V45.518H105.135V48.638C105.135 48.838 105.149 49.064 105.177 49.316C105.205 49.564 105.269 49.804 105.369 50.036C105.473 50.264 105.625 50.452 105.825 50.6C106.029 50.748 106.303 50.822 106.647 50.822C106.831 50.822 107.013 50.792 107.193 50.732C107.373 50.672 107.535 50.57 107.679 50.426C107.827 50.278 107.945 50.076 108.033 49.82C108.121 49.564 108.165 49.24 108.165 48.848L109.023 49.214C109.023 49.766 108.915 50.266 108.699 50.714C108.487 51.162 108.173 51.52 107.757 51.788C107.341 52.052 106.829 52.184 106.221 52.184ZM108.339 51.998V49.988H108.165V45.518H109.617V51.998H108.339ZM115.341 51.998C114.913 52.078 114.493 52.112 114.081 52.1C113.673 52.092 113.307 52.018 112.983 51.878C112.659 51.734 112.413 51.508 112.245 51.2C112.097 50.92 112.019 50.634 112.011 50.342C112.003 50.05 111.999 49.72 111.999 49.352V43.718H113.439V49.268C113.439 49.528 113.441 49.756 113.445 49.952C113.453 50.148 113.495 50.308 113.571 50.432C113.715 50.672 113.945 50.806 114.261 50.834C114.577 50.862 114.937 50.846 115.341 50.786V51.998ZM110.823 46.652V45.518H115.341V46.652H110.823ZM119.476 52.178C118.676 52.178 118.026 51.998 117.526 51.638C117.026 51.278 116.722 50.772 116.614 50.12L118.09 49.892C118.166 50.212 118.334 50.464 118.594 50.648C118.854 50.832 119.182 50.924 119.578 50.924C119.926 50.924 120.194 50.856 120.382 50.72C120.574 50.58 120.67 50.39 120.67 50.15C120.67 50.002 120.634 49.884 120.562 49.796C120.494 49.704 120.342 49.616 120.106 49.532C119.87 49.448 119.508 49.342 119.02 49.214C118.476 49.07 118.044 48.916 117.724 48.752C117.404 48.584 117.174 48.386 117.034 48.158C116.894 47.93 116.824 47.654 116.824 47.33C116.824 46.926 116.93 46.574 117.142 46.274C117.354 45.974 117.65 45.744 118.03 45.584C118.41 45.42 118.858 45.338 119.374 45.338C119.878 45.338 120.324 45.416 120.712 45.572C121.104 45.728 121.42 45.95 121.66 46.238C121.9 46.526 122.048 46.864 122.104 47.252L120.628 47.516C120.592 47.24 120.466 47.022 120.25 46.862C120.038 46.702 119.754 46.612 119.398 46.592C119.058 46.572 118.784 46.624 118.576 46.748C118.368 46.868 118.264 47.038 118.264 47.258C118.264 47.382 118.306 47.488 118.39 47.576C118.474 47.664 118.642 47.752 118.894 47.84C119.15 47.928 119.53 48.036 120.034 48.164C120.55 48.296 120.962 48.448 121.27 48.62C121.582 48.788 121.806 48.99 121.942 49.226C122.082 49.462 122.152 49.748 122.152 50.084C122.152 50.736 121.914 51.248 121.438 51.62C120.966 51.992 120.312 52.178 119.476 52.178ZM131.488 51.998V48.062C131.488 47.618 131.378 47.272 131.158 47.024C130.938 46.772 130.64 46.646 130.264 46.646C130.032 46.646 129.824 46.7 129.64 46.808C129.456 46.912 129.31 47.068 129.202 47.276C129.094 47.48 129.04 47.724 129.04 48.008L128.398 47.63C128.394 47.182 128.494 46.788 128.698 46.448C128.906 46.104 129.186 45.836 129.538 45.644C129.89 45.452 130.282 45.356 130.714 45.356C131.43 45.356 131.978 45.572 132.358 46.004C132.742 46.432 132.934 46.996 132.934 47.696V51.998H131.488ZM123.694 51.998V45.518H124.972V47.528H125.152V51.998H123.694ZM127.6 51.998V48.08C127.6 47.628 127.49 47.276 127.27 47.024C127.05 46.772 126.75 46.646 126.37 46.646C126.002 46.646 125.706 46.772 125.482 47.024C125.262 47.276 125.152 47.604 125.152 48.008L124.504 47.576C124.504 47.156 124.608 46.778 124.816 46.442C125.024 46.106 125.304 45.842 125.656 45.65C126.012 45.454 126.41 45.356 126.85 45.356C127.334 45.356 127.738 45.46 128.062 45.668C128.39 45.872 128.634 46.152 128.794 46.508C128.958 46.86 129.04 47.258 129.04 47.702V51.998H127.6ZM136.551 52.178C136.083 52.178 135.687 52.09 135.363 51.914C135.039 51.734 134.793 51.496 134.625 51.2C134.461 50.904 134.379 50.578 134.379 50.222C134.379 49.91 134.431 49.63 134.535 49.382C134.639 49.13 134.799 48.914 135.015 48.734C135.231 48.55 135.511 48.4 135.855 48.284C136.115 48.2 136.419 48.124 136.767 48.056C137.119 47.988 137.499 47.926 137.907 47.87C138.319 47.81 138.749 47.746 139.197 47.678L138.681 47.972C138.685 47.524 138.585 47.194 138.381 46.982C138.177 46.77 137.833 46.664 137.349 46.664C137.057 46.664 136.775 46.732 136.503 46.868C136.231 47.004 136.041 47.238 135.933 47.57L134.613 47.156C134.773 46.608 135.077 46.168 135.525 45.836C135.977 45.504 136.585 45.338 137.349 45.338C137.925 45.338 138.431 45.432 138.867 45.62C139.307 45.808 139.633 46.116 139.845 46.544C139.961 46.772 140.031 47.006 140.055 47.246C140.079 47.482 140.091 47.74 140.091 48.02V51.998H138.825V50.594L139.035 50.822C138.743 51.29 138.401 51.634 138.009 51.854C137.621 52.07 137.135 52.178 136.551 52.178ZM136.839 51.026C137.167 51.026 137.447 50.968 137.679 50.852C137.911 50.736 138.095 50.594 138.231 50.426C138.371 50.258 138.465 50.1 138.513 49.952C138.589 49.768 138.631 49.558 138.639 49.322C138.651 49.082 138.657 48.888 138.657 48.74L139.101 48.872C138.665 48.94 138.291 49 137.979 49.052C137.667 49.104 137.399 49.154 137.175 49.202C136.951 49.246 136.753 49.296 136.581 49.352C136.413 49.412 136.271 49.482 136.155 49.562C136.039 49.642 135.949 49.734 135.885 49.838C135.825 49.942 135.795 50.064 135.795 50.204C135.795 50.364 135.835 50.506 135.915 50.63C135.995 50.75 136.111 50.846 136.263 50.918C136.419 50.99 136.611 51.026 136.839 51.026ZM141.893 51.998V45.518H143.171V47.096L143.015 46.892C143.095 46.676 143.201 46.48 143.333 46.304C143.469 46.124 143.631 45.976 143.819 45.86C143.979 45.752 144.155 45.668 144.347 45.608C144.543 45.544 144.743 45.506 144.947 45.494C145.151 45.478 145.349 45.486 145.541 45.518V46.868C145.349 46.812 145.127 46.794 144.875 46.814C144.627 46.834 144.403 46.904 144.203 47.024C144.003 47.132 143.839 47.27 143.711 47.438C143.587 47.606 143.495 47.798 143.435 48.014C143.375 48.226 143.345 48.456 143.345 48.704V51.998H141.893ZM150.724 51.998C150.296 52.078 149.876 52.112 149.464 52.1C149.056 52.092 148.69 52.018 148.366 51.878C148.042 51.734 147.796 51.508 147.628 51.2C147.48 50.92 147.402 50.634 147.394 50.342C147.386 50.05 147.382 49.72 147.382 49.352V43.718H148.822V49.268C148.822 49.528 148.824 49.756 148.828 49.952C148.836 50.148 148.878 50.308 148.954 50.432C149.098 50.672 149.328 50.806 149.644 50.834C149.96 50.862 150.32 50.846 150.724 50.786V51.998ZM146.206 46.652V45.518H150.724V46.652H146.206ZM154.4 51.998L157.124 43.358H159.242L161.966 51.998H160.478L158.006 44.246H158.33L155.888 51.998H154.4ZM155.918 50.126V48.776H160.454V50.126H155.918ZM167.089 51.998C166.661 52.078 166.241 52.112 165.829 52.1C165.421 52.092 165.055 52.018 164.731 51.878C164.407 51.734 164.161 51.508 163.993 51.2C163.845 50.92 163.767 50.634 163.759 50.342C163.751 50.05 163.747 49.72 163.747 49.352V43.718H165.187V49.268C165.187 49.528 165.189 49.756 165.193 49.952C165.201 50.148 165.243 50.308 165.319 50.432C165.463 50.672 165.693 50.806 166.009 50.834C166.325 50.862 166.685 50.846 167.089 50.786V51.998ZM162.571 46.652V45.518H167.089V46.652H162.571ZM171.565 51.998C171.137 52.078 170.717 52.112 170.305 52.1C169.897 52.092 169.531 52.018 169.207 51.878C168.883 51.734 168.637 51.508 168.469 51.2C168.321 50.92 168.243 50.634 168.235 50.342C168.227 50.05 168.223 49.72 168.223 49.352V43.718H169.663V49.268C169.663 49.528 169.665 49.756 169.669 49.952C169.677 50.148 169.719 50.308 169.795 50.432C169.939 50.672 170.169 50.806 170.485 50.834C170.801 50.862 171.161 50.846 171.565 50.786V51.998ZM167.047 46.652V45.518H171.565V46.652H167.047ZM175.023 52.178C174.555 52.178 174.159 52.09 173.835 51.914C173.511 51.734 173.265 51.496 173.097 51.2C172.933 50.904 172.851 50.578 172.851 50.222C172.851 49.91 172.903 49.63 173.007 49.382C173.111 49.13 173.271 48.914 173.487 48.734C173.703 48.55 173.983 48.4 174.327 48.284C174.587 48.2 174.891 48.124 175.239 48.056C175.591 47.988 175.971 47.926 176.379 47.87C176.791 47.81 177.221 47.746 177.669 47.678L177.153 47.972C177.157 47.524 177.057 47.194 176.853 46.982C176.649 46.77 176.305 46.664 175.821 46.664C175.529 46.664 175.247 46.732 174.975 46.868C174.703 47.004 174.513 47.238 174.405 47.57L173.085 47.156C173.245 46.608 173.549 46.168 173.997 45.836C174.449 45.504 175.057 45.338 175.821 45.338C176.397 45.338 176.903 45.432 177.339 45.62C177.779 45.808 178.105 46.116 178.317 46.544C178.433 46.772 178.503 47.006 178.527 47.246C178.551 47.482 178.563 47.74 178.563 48.02V51.998H177.297V50.594L177.507 50.822C177.215 51.29 176.873 51.634 176.481 51.854C176.093 52.07 175.607 52.178 175.023 52.178ZM175.311 51.026C175.639 51.026 175.919 50.968 176.151 50.852C176.383 50.736 176.567 50.594 176.703 50.426C176.843 50.258 176.937 50.1 176.985 49.952C177.061 49.768 177.103 49.558 177.111 49.322C177.123 49.082 177.129 48.888 177.129 48.74L177.573 48.872C177.137 48.94 176.763 49 176.451 49.052C176.139 49.104 175.871 49.154 175.647 49.202C175.423 49.246 175.225 49.296 175.053 49.352C174.885 49.412 174.743 49.482 174.627 49.562C174.511 49.642 174.421 49.734 174.357 49.838C174.297 49.942 174.267 50.064 174.267 50.204C174.267 50.364 174.307 50.506 174.387 50.63C174.467 50.75 174.583 50.846 174.735 50.918C174.891 50.99 175.083 51.026 175.311 51.026ZM183.179 52.178C182.511 52.178 181.941 52.03 181.469 51.734C180.997 51.434 180.635 51.026 180.383 50.51C180.135 49.994 180.009 49.41 180.005 48.758C180.009 48.094 180.139 47.506 180.395 46.994C180.655 46.478 181.023 46.074 181.499 45.782C181.975 45.486 182.541 45.338 183.197 45.338C183.933 45.338 184.555 45.524 185.063 45.896C185.575 46.264 185.909 46.768 186.065 47.408L184.625 47.798C184.513 47.45 184.327 47.18 184.067 46.988C183.807 46.792 183.511 46.694 183.179 46.694C182.803 46.694 182.493 46.784 182.249 46.964C182.005 47.14 181.825 47.384 181.709 47.696C181.593 48.008 181.535 48.362 181.535 48.758C181.535 49.374 181.673 49.872 181.949 50.252C182.225 50.632 182.635 50.822 183.179 50.822C183.563 50.822 183.865 50.734 184.085 50.558C184.309 50.382 184.477 50.128 184.589 49.796L186.065 50.126C185.865 50.786 185.515 51.294 185.015 51.65C184.515 52.002 183.903 52.178 183.179 52.178ZM187.495 51.998L187.507 43.358H188.971V48.638L191.341 45.518H193.147L190.633 48.758L193.363 51.998H191.449L188.971 48.878V51.998H187.495ZM197.033 52.178C196.377 52.178 195.801 52.036 195.305 51.752C194.809 51.468 194.421 51.074 194.141 50.57C193.865 50.066 193.727 49.486 193.727 48.83C193.727 48.122 193.863 47.508 194.135 46.988C194.407 46.464 194.785 46.058 195.269 45.77C195.753 45.482 196.313 45.338 196.949 45.338C197.621 45.338 198.191 45.496 198.659 45.812C199.131 46.124 199.481 46.566 199.709 47.138C199.937 47.71 200.023 48.384 199.967 49.16H198.533V48.632C198.529 47.928 198.405 47.414 198.161 47.09C197.917 46.766 197.533 46.604 197.009 46.604C196.417 46.604 195.977 46.788 195.689 47.156C195.401 47.52 195.257 48.054 195.257 48.758C195.257 49.414 195.401 49.922 195.689 50.282C195.977 50.642 196.397 50.822 196.949 50.822C197.305 50.822 197.611 50.744 197.867 50.588C198.127 50.428 198.327 50.198 198.467 49.898L199.895 50.33C199.647 50.914 199.263 51.368 198.743 51.692C198.227 52.016 197.657 52.178 197.033 52.178ZM194.801 49.16V48.068H199.259V49.16H194.801ZM201.546 51.998V45.518H202.824V47.096L202.668 46.892C202.748 46.676 202.854 46.48 202.986 46.304C203.122 46.124 203.284 45.976 203.472 45.86C203.632 45.752 203.808 45.668 204 45.608C204.196 45.544 204.396 45.506 204.6 45.494C204.804 45.478 205.002 45.486 205.194 45.518V46.868C205.002 46.812 204.78 46.794 204.528 46.814C204.28 46.834 204.056 46.904 203.856 47.024C203.656 47.132 203.492 47.27 203.364 47.438C203.24 47.606 203.148 47.798 203.088 48.014C203.028 48.226 202.998 48.456 202.998 48.704V51.998H201.546ZM208.846 52.178C208.046 52.178 207.396 51.998 206.896 51.638C206.396 51.278 206.092 50.772 205.984 50.12L207.46 49.892C207.536 50.212 207.704 50.464 207.964 50.648C208.224 50.832 208.552 50.924 208.948 50.924C209.296 50.924 209.564 50.856 209.752 50.72C209.944 50.58 210.04 50.39 210.04 50.15C210.04 50.002 210.004 49.884 209.932 49.796C209.864 49.704 209.712 49.616 209.476 49.532C209.24 49.448 208.878 49.342 208.39 49.214C207.846 49.07 207.414 48.916 207.094 48.752C206.774 48.584 206.544 48.386 206.404 48.158C206.264 47.93 206.194 47.654 206.194 47.33C206.194 46.926 206.3 46.574 206.512 46.274C206.724 45.974 207.02 45.744 207.4 45.584C207.78 45.42 208.228 45.338 208.744 45.338C209.248 45.338 209.694 45.416 210.082 45.572C210.474 45.728 210.79 45.95 211.03 46.238C211.27 46.526 211.418 46.864 211.474 47.252L209.998 47.516C209.962 47.24 209.836 47.022 209.62 46.862C209.408 46.702 209.124 46.612 208.768 46.592C208.428 46.572 208.154 46.624 207.946 46.748C207.738 46.868 207.634 47.038 207.634 47.258C207.634 47.382 207.676 47.488 207.76 47.576C207.844 47.664 208.012 47.752 208.264 47.84C208.52 47.928 208.9 48.036 209.404 48.164C209.92 48.296 210.332 48.448 210.64 48.62C210.952 48.788 211.176 48.99 211.312 49.226C211.452 49.462 211.522 49.748 211.522 50.084C211.522 50.736 211.284 51.248 210.808 51.62C210.336 51.992 209.682 52.178 208.846 52.178ZM213.316 51.998V50.516H214.798V51.998H213.316Z" fill="black" fill-opacity="0.6"/>
<path d="M4.038 52.178C3.406 52.178 2.836 52.068 2.328 51.848C1.824 51.628 1.408 51.314 1.08 50.906C0.756 50.494 0.55 50.006 0.462 49.442L1.962 49.214C2.09 49.726 2.352 50.122 2.748 50.402C3.148 50.682 3.608 50.822 4.128 50.822C4.436 50.822 4.726 50.774 4.998 50.678C5.27 50.582 5.49 50.442 5.658 50.258C5.83 50.074 5.916 49.848 5.916 49.58C5.916 49.46 5.896 49.35 5.856 49.25C5.816 49.146 5.756 49.054 5.676 48.974C5.6 48.894 5.5 48.822 5.376 48.758C5.256 48.69 5.116 48.632 4.956 48.584L2.724 47.924C2.532 47.868 2.324 47.794 2.1 47.702C1.88 47.606 1.67 47.476 1.47 47.312C1.274 47.144 1.112 46.932 0.984 46.676C0.86 46.416 0.798 46.096 0.798 45.716C0.798 45.16 0.938 44.694 1.218 44.318C1.502 43.938 1.882 43.654 2.358 43.466C2.838 43.278 3.37 43.186 3.954 43.19C4.546 43.194 5.074 43.296 5.538 43.496C6.002 43.692 6.39 43.978 6.702 44.354C7.014 44.73 7.234 45.184 7.362 45.716L5.808 45.986C5.744 45.682 5.62 45.424 5.436 45.212C5.256 44.996 5.034 44.832 4.77 44.72C4.51 44.608 4.232 44.548 3.936 44.54C3.648 44.536 3.38 44.58 3.132 44.672C2.888 44.76 2.69 44.888 2.538 45.056C2.39 45.224 2.316 45.42 2.316 45.644C2.316 45.856 2.38 46.03 2.508 46.166C2.636 46.298 2.794 46.404 2.982 46.484C3.174 46.56 3.368 46.624 3.564 46.676L5.112 47.108C5.324 47.164 5.562 47.24 5.826 47.336C6.09 47.432 6.344 47.566 6.588 47.738C6.832 47.91 7.032 48.136 7.188 48.416C7.348 48.696 7.428 49.052 7.428 49.484C7.428 49.932 7.334 50.326 7.146 50.666C6.962 51.002 6.712 51.282 6.396 51.506C6.08 51.73 5.718 51.898 5.31 52.01C4.906 52.122 4.482 52.178 4.038 52.178ZM11.9127 52.178C11.2567 52.178 10.6807 52.036 10.1847 51.752C9.68872 51.468 9.30072 51.074 9.02072 50.57C8.74472 50.066 8.60672 49.486 8.60672 48.83C8.60672 48.122 8.74272 47.508 9.01472 46.988C9.28672 46.464 9.66472 46.058 10.1487 45.77C10.6327 45.482 11.1927 45.338 11.8287 45.338C12.5007 45.338 13.0707 45.496 13.5387 45.812C14.0107 46.124 14.3607 46.566 14.5887 47.138C14.8167 47.71 14.9027 48.384 14.8467 49.16H13.4127V48.632C13.4087 47.928 13.2847 47.414 13.0407 47.09C12.7967 46.766 12.4127 46.604 11.8887 46.604C11.2967 46.604 10.8567 46.788 10.5687 47.156C10.2807 47.52 10.1367 48.054 10.1367 48.758C10.1367 49.414 10.2807 49.922 10.5687 50.282C10.8567 50.642 11.2767 50.822 11.8287 50.822C12.1847 50.822 12.4907 50.744 12.7467 50.588C13.0067 50.428 13.2067 50.198 13.3467 49.898L14.7747 50.33C14.5267 50.914 14.1427 51.368 13.6227 51.692C13.1067 52.016 12.5367 52.178 11.9127 52.178ZM9.68072 49.16V48.068H14.1387V49.16H9.68072ZM19.2395 52.178C18.5715 52.178 18.0015 52.03 17.5295 51.734C17.0575 51.434 16.6955 51.026 16.4435 50.51C16.1955 49.994 16.0695 49.41 16.0655 48.758C16.0695 48.094 16.1995 47.506 16.4555 46.994C16.7155 46.478 17.0835 46.074 17.5595 45.782C18.0355 45.486 18.6015 45.338 19.2575 45.338C19.9935 45.338 20.6155 45.524 21.1235 45.896C21.6355 46.264 21.9695 46.768 22.1255 47.408L20.6855 47.798C20.5735 47.45 20.3875 47.18 20.1275 46.988C19.8675 46.792 19.5715 46.694 19.2395 46.694C18.8635 46.694 18.5535 46.784 18.3095 46.964C18.0655 47.14 17.8855 47.384 17.7695 47.696C17.6535 48.008 17.5955 48.362 17.5955 48.758C17.5955 49.374 17.7335 49.872 18.0095 50.252C18.2855 50.632 18.6955 50.822 19.2395 50.822C19.6235 50.822 19.9255 50.734 20.1455 50.558C20.3695 50.382 20.5375 50.128 20.6495 49.796L22.1255 50.126C21.9255 50.786 21.5755 51.294 21.0755 51.65C20.5755 52.002 19.9635 52.178 19.2395 52.178ZM25.9978 52.184C25.5178 52.184 25.1218 52.104 24.8098 51.944C24.4978 51.784 24.2498 51.58 24.0658 51.332C23.8818 51.084 23.7458 50.82 23.6578 50.54C23.5698 50.26 23.5118 49.996 23.4838 49.748C23.4598 49.496 23.4478 49.292 23.4478 49.136V45.518H24.9118V48.638C24.9118 48.838 24.9258 49.064 24.9538 49.316C24.9818 49.564 25.0458 49.804 25.1458 50.036C25.2498 50.264 25.4018 50.452 25.6018 50.6C25.8058 50.748 26.0798 50.822 26.4238 50.822C26.6078 50.822 26.7898 50.792 26.9698 50.732C27.1498 50.672 27.3118 50.57 27.4558 50.426C27.6038 50.278 27.7218 50.076 27.8098 49.82C27.8978 49.564 27.9418 49.24 27.9418 48.848L28.7998 49.214C28.7998 49.766 28.6918 50.266 28.4758 50.714C28.2638 51.162 27.9498 51.52 27.5338 51.788C27.1178 52.052 26.6058 52.184 25.9978 52.184ZM28.1158 51.998V49.988H27.9418V45.518H29.3938V51.998H28.1158ZM31.3195 51.998V45.518H32.5975V47.096L32.4415 46.892C32.5215 46.676 32.6275 46.48 32.7595 46.304C32.8955 46.124 33.0575 45.976 33.2455 45.86C33.4055 45.752 33.5815 45.668 33.7735 45.608C33.9695 45.544 34.1695 45.506 34.3735 45.494C34.5775 45.478 34.7755 45.486 34.9675 45.518V46.868C34.7755 46.812 34.5535 46.794 34.3015 46.814C34.0535 46.834 33.8295 46.904 33.6295 47.024C33.4295 47.132 33.2655 47.27 33.1375 47.438C33.0135 47.606 32.9215 47.798 32.8615 48.014C32.8015 48.226 32.7715 48.456 32.7715 48.704V51.998H31.3195ZM39.1813 52.178C38.5253 52.178 37.9493 52.036 37.4533 51.752C36.9573 51.468 36.5693 51.074 36.2893 50.57C36.0133 50.066 35.8753 49.486 35.8753 48.83C35.8753 48.122 36.0113 47.508 36.2833 46.988C36.5553 46.464 36.9333 46.058 37.4173 45.77C37.9013 45.482 38.4613 45.338 39.0973 45.338C39.7693 45.338 40.3393 45.496 40.8073 45.812C41.2793 46.124 41.6293 46.566 41.8573 47.138C42.0853 47.71 42.1713 48.384 42.1153 49.16H40.6813V48.632C40.6773 47.928 40.5533 47.414 40.3093 47.09C40.0653 46.766 39.6813 46.604 39.1573 46.604C38.5653 46.604 38.1253 46.788 37.8373 47.156C37.5493 47.52 37.4053 48.054 37.4053 48.758C37.4053 49.414 37.5493 49.922 37.8373 50.282C38.1253 50.642 38.5453 50.822 39.0973 50.822C39.4533 50.822 39.7593 50.744 40.0153 50.588C40.2753 50.428 40.4753 50.198 40.6153 49.898L42.0433 50.33C41.7953 50.914 41.4113 51.368 40.8913 51.692C40.3753 52.016 39.8053 52.178 39.1813 52.178ZM36.9493 49.16V48.068H41.4073V49.16H36.9493ZM47.1884 54.878L48.4364 51.452L48.4604 52.46L45.6344 45.518H47.1404L49.1444 50.654H48.7604L50.7104 45.518H52.1564L48.5444 54.878H47.1884ZM55.9189 52.178C55.2709 52.178 54.7049 52.032 54.2209 51.74C53.7369 51.448 53.3609 51.046 53.0929 50.534C52.8289 50.018 52.6969 49.426 52.6969 48.758C52.6969 48.078 52.8329 47.482 53.1049 46.97C53.3769 46.458 53.7549 46.058 54.2389 45.77C54.7229 45.482 55.2829 45.338 55.9189 45.338C56.5709 45.338 57.1389 45.484 57.6229 45.776C58.1069 46.068 58.4829 46.472 58.7509 46.988C59.0189 47.5 59.1529 48.09 59.1529 48.758C59.1529 49.43 59.0169 50.024 58.7449 50.54C58.4769 51.052 58.1009 51.454 57.6169 51.746C57.1329 52.034 56.5669 52.178 55.9189 52.178ZM55.9189 50.822C56.4949 50.822 56.9229 50.63 57.2029 50.246C57.4829 49.862 57.6229 49.366 57.6229 48.758C57.6229 48.13 57.4809 47.63 57.1969 47.258C56.9129 46.882 56.4869 46.694 55.9189 46.694C55.5309 46.694 55.2109 46.782 54.9589 46.958C54.7109 47.13 54.5269 47.372 54.4069 47.684C54.2869 47.992 54.2269 48.35 54.2269 48.758C54.2269 49.386 54.3689 49.888 54.6529 50.264C54.9409 50.636 55.3629 50.822 55.9189 50.822ZM63.1448 52.184C62.6648 52.184 62.2688 52.104 61.9568 51.944C61.6448 51.784 61.3968 51.58 61.2128 51.332C61.0288 51.084 60.8928 50.82 60.8048 50.54C60.7168 50.26 60.6588 49.996 60.6308 49.748C60.6068 49.496 60.5948 49.292 60.5948 49.136V45.518H62.0588V48.638C62.0588 48.838 62.0728 49.064 62.1008 49.316C62.1288 49.564 62.1928 49.804 62.2928 50.036C62.3968 50.264 62.5488 50.452 62.7488 50.6C62.9528 50.748 63.2268 50.822 63.5708 50.822C63.7548 50.822 63.9368 50.792 64.1168 50.732C64.2968 50.672 64.4588 50.57 64.6028 50.426C64.7508 50.278 64.8688 50.076 64.9568 49.82C65.0448 49.564 65.0888 49.24 65.0888 48.848L65.9468 49.214C65.9468 49.766 65.8388 50.266 65.6228 50.714C65.4108 51.162 65.0968 51.52 64.6808 51.788C64.2648 52.052 63.7528 52.184 63.1448 52.184ZM65.2628 51.998V49.988H65.0888V45.518H66.5408V51.998H65.2628ZM68.4666 51.998V45.518H69.7446V47.096L69.5886 46.892C69.6686 46.676 69.7746 46.48 69.9066 46.304C70.0426 46.124 70.2046 45.976 70.3926 45.86C70.5526 45.752 70.7286 45.668 70.9206 45.608C71.1166 45.544 71.3166 45.506 71.5206 45.494C71.7246 45.478 71.9226 45.486 72.1146 45.518V46.868C71.9226 46.812 71.7006 46.794 71.4486 46.814C71.2006 46.834 70.9766 46.904 70.7766 47.024C70.5766 47.132 70.4126 47.27 70.2846 47.438C70.1606 47.606 70.0686 47.798 70.0086 48.014C69.9486 48.226 69.9186 48.456 69.9186 48.704V51.998H68.4666ZM75.5419 51.998L78.2659 43.358H80.3839L83.1079 51.998H81.6199L79.1479 44.246H79.4719L77.0299 51.998H75.5419ZM77.0599 50.126V48.776H81.5959V50.126H77.0599ZM84.5527 51.998V43.358H85.9987V51.998H84.5527ZM88.2759 51.998V50.516H89.7579V51.998H88.2759ZM98.2168 52.178C97.3528 52.178 96.6128 51.99 95.9968 51.614C95.3808 51.234 94.9068 50.706 94.5748 50.03C94.2468 49.354 94.0828 48.57 94.0828 47.678C94.0828 46.786 94.2468 46.002 94.5748 45.326C94.9068 44.65 95.3808 44.124 95.9968 43.748C96.6128 43.368 97.3528 43.178 98.2168 43.178C99.0808 43.178 99.8208 43.368 100.437 43.748C101.057 44.124 101.531 44.65 101.859 45.326C102.191 46.002 102.357 46.786 102.357 47.678C102.357 48.57 102.191 49.354 101.859 50.03C101.531 50.706 101.057 51.234 100.437 51.614C99.8208 51.99 99.0808 52.178 98.2168 52.178ZM98.2168 50.816C98.7968 50.82 99.2788 50.692 99.6628 50.432C100.051 50.172 100.341 49.806 100.533 49.334C100.729 48.862 100.827 48.31 100.827 47.678C100.827 47.046 100.729 46.498 100.533 46.034C100.341 45.566 100.051 45.202 99.6628 44.942C99.2788 44.682 98.7968 44.548 98.2168 44.54C97.6368 44.536 97.1548 44.664 96.7708 44.924C96.3868 45.184 96.0968 45.55 95.9008 46.022C95.7088 46.494 95.6128 47.046 95.6128 47.678C95.6128 48.31 95.7088 48.86 95.9008 49.328C96.0928 49.792 96.3808 50.154 96.7648 50.414C97.1528 50.674 97.6368 50.808 98.2168 50.816ZM106.221 52.184C105.741 52.184 105.345 52.104 105.033 51.944C104.721 51.784 104.473 51.58 104.289 51.332C104.105 51.084 103.969 50.82 103.881 50.54C103.793 50.26 103.735 49.996 103.707 49.748C103.683 49.496 103.671 49.292 103.671 49.136V45.518H105.135V48.638C105.135 48.838 105.149 49.064 105.177 49.316C105.205 49.564 105.269 49.804 105.369 50.036C105.473 50.264 105.625 50.452 105.825 50.6C106.029 50.748 106.303 50.822 106.647 50.822C106.831 50.822 107.013 50.792 107.193 50.732C107.373 50.672 107.535 50.57 107.679 50.426C107.827 50.278 107.945 50.076 108.033 49.82C108.121 49.564 108.165 49.24 108.165 48.848L109.023 49.214C109.023 49.766 108.915 50.266 108.699 50.714C108.487 51.162 108.173 51.52 107.757 51.788C107.341 52.052 106.829 52.184 106.221 52.184ZM108.339 51.998V49.988H108.165V45.518H109.617V51.998H108.339ZM115.341 51.998C114.913 52.078 114.493 52.112 114.081 52.1C113.673 52.092 113.307 52.018 112.983 51.878C112.659 51.734 112.413 51.508 112.245 51.2C112.097 50.92 112.019 50.634 112.011 50.342C112.003 50.05 111.999 49.72 111.999 49.352V43.718H113.439V49.268C113.439 49.528 113.441 49.756 113.445 49.952C113.453 50.148 113.495 50.308 113.571 50.432C113.715 50.672 113.945 50.806 114.261 50.834C114.577 50.862 114.937 50.846 115.341 50.786V51.998ZM110.823 46.652V45.518H115.341V46.652H110.823ZM119.476 52.178C118.676 52.178 118.026 51.998 117.526 51.638C117.026 51.278 116.722 50.772 116.614 50.12L118.09 49.892C118.166 50.212 118.334 50.464 118.594 50.648C118.854 50.832 119.182 50.924 119.578 50.924C119.926 50.924 120.194 50.856 120.382 50.72C120.574 50.58 120.67 50.39 120.67 50.15C120.67 50.002 120.634 49.884 120.562 49.796C120.494 49.704 120.342 49.616 120.106 49.532C119.87 49.448 119.508 49.342 119.02 49.214C118.476 49.07 118.044 48.916 117.724 48.752C117.404 48.584 117.174 48.386 117.034 48.158C116.894 47.93 116.824 47.654 116.824 47.33C116.824 46.926 116.93 46.574 117.142 46.274C117.354 45.974 117.65 45.744 118.03 45.584C118.41 45.42 118.858 45.338 119.374 45.338C119.878 45.338 120.324 45.416 120.712 45.572C121.104 45.728 121.42 45.95 121.66 46.238C121.9 46.526 122.048 46.864 122.104 47.252L120.628 47.516C120.592 47.24 120.466 47.022 120.25 46.862C120.038 46.702 119.754 46.612 119.398 46.592C119.058 46.572 118.784 46.624 118.576 46.748C118.368 46.868 118.264 47.038 118.264 47.258C118.264 47.382 118.306 47.488 118.39 47.576C118.474 47.664 118.642 47.752 118.894 47.84C119.15 47.928 119.53 48.036 120.034 48.164C120.55 48.296 120.962 48.448 121.27 48.62C121.582 48.788 121.806 48.99 121.942 49.226C122.082 49.462 122.152 49.748 122.152 50.084C122.152 50.736 121.914 51.248 121.438 51.62C120.966 51.992 120.312 52.178 119.476 52.178ZM131.488 51.998V48.062C131.488 47.618 131.378 47.272 131.158 47.024C130.938 46.772 130.64 46.646 130.264 46.646C130.032 46.646 129.824 46.7 129.64 46.808C129.456 46.912 129.31 47.068 129.202 47.276C129.094 47.48 129.04 47.724 129.04 48.008L128.398 47.63C128.394 47.182 128.494 46.788 128.698 46.448C128.906 46.104 129.186 45.836 129.538 45.644C129.89 45.452 130.282 45.356 130.714 45.356C131.43 45.356 131.978 45.572 132.358 46.004C132.742 46.432 132.934 46.996 132.934 47.696V51.998H131.488ZM123.694 51.998V45.518H124.972V47.528H125.152V51.998H123.694ZM127.6 51.998V48.08C127.6 47.628 127.49 47.276 127.27 47.024C127.05 46.772 126.75 46.646 126.37 46.646C126.002 46.646 125.706 46.772 125.482 47.024C125.262 47.276 125.152 47.604 125.152 48.008L124.504 47.576C124.504 47.156 124.608 46.778 124.816 46.442C125.024 46.106 125.304 45.842 125.656 45.65C126.012 45.454 126.41 45.356 126.85 45.356C127.334 45.356 127.738 45.46 128.062 45.668C128.39 45.872 128.634 46.152 128.794 46.508C128.958 46.86 129.04 47.258 129.04 47.702V51.998H127.6ZM136.551 52.178C136.083 52.178 135.687 52.09 135.363 51.914C135.039 51.734 134.793 51.496 134.625 51.2C134.461 50.904 134.379 50.578 134.379 50.222C134.379 49.91 134.431 49.63 134.535 49.382C134.639 49.13 134.799 48.914 135.015 48.734C135.231 48.55 135.511 48.4 135.855 48.284C136.115 48.2 136.419 48.124 136.767 48.056C137.119 47.988 137.499 47.926 137.907 47.87C138.319 47.81 138.749 47.746 139.197 47.678L138.681 47.972C138.685 47.524 138.585 47.194 138.381 46.982C138.177 46.77 137.833 46.664 137.349 46.664C137.057 46.664 136.775 46.732 136.503 46.868C136.231 47.004 136.041 47.238 135.933 47.57L134.613 47.156C134.773 46.608 135.077 46.168 135.525 45.836C135.977 45.504 136.585 45.338 137.349 45.338C137.925 45.338 138.431 45.432 138.867 45.62C139.307 45.808 139.633 46.116 139.845 46.544C139.961 46.772 140.031 47.006 140.055 47.246C140.079 47.482 140.091 47.74 140.091 48.02V51.998H138.825V50.594L139.035 50.822C138.743 51.29 138.401 51.634 138.009 51.854C137.621 52.07 137.135 52.178 136.551 52.178ZM136.839 51.026C137.167 51.026 137.447 50.968 137.679 50.852C137.911 50.736 138.095 50.594 138.231 50.426C138.371 50.258 138.465 50.1 138.513 49.952C138.589 49.768 138.631 49.558 138.639 49.322C138.651 49.082 138.657 48.888 138.657 48.74L139.101 48.872C138.665 48.94 138.291 49 137.979 49.052C137.667 49.104 137.399 49.154 137.175 49.202C136.951 49.246 136.753 49.296 136.581 49.352C136.413 49.412 136.271 49.482 136.155 49.562C136.039 49.642 135.949 49.734 135.885 49.838C135.825 49.942 135.795 50.064 135.795 50.204C135.795 50.364 135.835 50.506 135.915 50.63C135.995 50.75 136.111 50.846 136.263 50.918C136.419 50.99 136.611 51.026 136.839 51.026ZM141.893 51.998V45.518H143.171V47.096L143.015 46.892C143.095 46.676 143.201 46.48 143.333 46.304C143.469 46.124 143.631 45.976 143.819 45.86C143.979 45.752 144.155 45.668 144.347 45.608C144.543 45.544 144.743 45.506 144.947 45.494C145.151 45.478 145.349 45.486 145.541 45.518V46.868C145.349 46.812 145.127 46.794 144.875 46.814C144.627 46.834 144.403 46.904 144.203 47.024C144.003 47.132 143.839 47.27 143.711 47.438C143.587 47.606 143.495 47.798 143.435 48.014C143.375 48.226 143.345 48.456 143.345 48.704V51.998H141.893ZM150.724 51.998C150.296 52.078 149.876 52.112 149.464 52.1C149.056 52.092 148.69 52.018 148.366 51.878C148.042 51.734 147.796 51.508 147.628 51.2C147.48 50.92 147.402 50.634 147.394 50.342C147.386 50.05 147.382 49.72 147.382 49.352V43.718H148.822V49.268C148.822 49.528 148.824 49.756 148.828 49.952C148.836 50.148 148.878 50.308 148.954 50.432C149.098 50.672 149.328 50.806 149.644 50.834C149.96 50.862 150.32 50.846 150.724 50.786V51.998ZM146.206 46.652V45.518H150.724V46.652H146.206ZM154.4 51.998L157.124 43.358H159.242L161.966 51.998H160.478L158.006 44.246H158.33L155.888 51.998H154.4ZM155.918 50.126V48.776H160.454V50.126H155.918ZM167.089 51.998C166.661 52.078 166.241 52.112 165.829 52.1C165.421 52.092 165.055 52.018 164.731 51.878C164.407 51.734 164.161 51.508 163.993 51.2C163.845 50.92 163.767 50.634 163.759 50.342C163.751 50.05 163.747 49.72 163.747 49.352V43.718H165.187V49.268C165.187 49.528 165.189 49.756 165.193 49.952C165.201 50.148 165.243 50.308 165.319 50.432C165.463 50.672 165.693 50.806 166.009 50.834C166.325 50.862 166.685 50.846 167.089 50.786V51.998ZM162.571 46.652V45.518H167.089V46.652H162.571ZM171.565 51.998C171.137 52.078 170.717 52.112 170.305 52.1C169.897 52.092 169.531 52.018 169.207 51.878C168.883 51.734 168.637 51.508 168.469 51.2C168.321 50.92 168.243 50.634 168.235 50.342C168.227 50.05 168.223 49.72 168.223 49.352V43.718H169.663V49.268C169.663 49.528 169.665 49.756 169.669 49.952C169.677 50.148 169.719 50.308 169.795 50.432C169.939 50.672 170.169 50.806 170.485 50.834C170.801 50.862 171.161 50.846 171.565 50.786V51.998ZM167.047 46.652V45.518H171.565V46.652H167.047ZM175.023 52.178C174.555 52.178 174.159 52.09 173.835 51.914C173.511 51.734 173.265 51.496 173.097 51.2C172.933 50.904 172.851 50.578 172.851 50.222C172.851 49.91 172.903 49.63 173.007 49.382C173.111 49.13 173.271 48.914 173.487 48.734C173.703 48.55 173.983 48.4 174.327 48.284C174.587 48.2 174.891 48.124 175.239 48.056C175.591 47.988 175.971 47.926 176.379 47.87C176.791 47.81 177.221 47.746 177.669 47.678L177.153 47.972C177.157 47.524 177.057 47.194 176.853 46.982C176.649 46.77 176.305 46.664 175.821 46.664C175.529 46.664 175.247 46.732 174.975 46.868C174.703 47.004 174.513 47.238 174.405 47.57L173.085 47.156C173.245 46.608 173.549 46.168 173.997 45.836C174.449 45.504 175.057 45.338 175.821 45.338C176.397 45.338 176.903 45.432 177.339 45.62C177.779 45.808 178.105 46.116 178.317 46.544C178.433 46.772 178.503 47.006 178.527 47.246C178.551 47.482 178.563 47.74 178.563 48.02V51.998H177.297V50.594L177.507 50.822C177.215 51.29 176.873 51.634 176.481 51.854C176.093 52.07 175.607 52.178 175.023 52.178ZM175.311 51.026C175.639 51.026 175.919 50.968 176.151 50.852C176.383 50.736 176.567 50.594 176.703 50.426C176.843 50.258 176.937 50.1 176.985 49.952C177.061 49.768 177.103 49.558 177.111 49.322C177.123 49.082 177.129 48.888 177.129 48.74L177.573 48.872C177.137 48.94 176.763 49 176.451 49.052C176.139 49.104 175.871 49.154 175.647 49.202C175.423 49.246 175.225 49.296 175.053 49.352C174.885 49.412 174.743 49.482 174.627 49.562C174.511 49.642 174.421 49.734 174.357 49.838C174.297 49.942 174.267 50.064 174.267 50.204C174.267 50.364 174.307 50.506 174.387 50.63C174.467 50.75 174.583 50.846 174.735 50.918C174.891 50.99 175.083 51.026 175.311 51.026ZM183.179 52.178C182.511 52.178 181.941 52.03 181.469 51.734C180.997 51.434 180.635 51.026 180.383 50.51C180.135 49.994 180.009 49.41 180.005 48.758C180.009 48.094 180.139 47.506 180.395 46.994C180.655 46.478 181.023 46.074 181.499 45.782C181.975 45.486 182.541 45.338 183.197 45.338C183.933 45.338 184.555 45.524 185.063 45.896C185.575 46.264 185.909 46.768 186.065 47.408L184.625 47.798C184.513 47.45 184.327 47.18 184.067 46.988C183.807 46.792 183.511 46.694 183.179 46.694C182.803 46.694 182.493 46.784 182.249 46.964C182.005 47.14 181.825 47.384 181.709 47.696C181.593 48.008 181.535 48.362 181.535 48.758C181.535 49.374 181.673 49.872 181.949 50.252C182.225 50.632 182.635 50.822 183.179 50.822C183.563 50.822 183.865 50.734 184.085 50.558C184.309 50.382 184.477 50.128 184.589 49.796L186.065 50.126C185.865 50.786 185.515 51.294 185.015 51.65C184.515 52.002 183.903 52.178 183.179 52.178ZM187.495 51.998L187.507 43.358H188.971V48.638L191.341 45.518H193.147L190.633 48.758L193.363 51.998H191.449L188.971 48.878V51.998H187.495ZM197.033 52.178C196.377 52.178 195.801 52.036 195.305 51.752C194.809 51.468 194.421 51.074 194.141 50.57C193.865 50.066 193.727 49.486 193.727 48.83C193.727 48.122 193.863 47.508 194.135 46.988C194.407 46.464 194.785 46.058 195.269 45.77C195.753 45.482 196.313 45.338 196.949 45.338C197.621 45.338 198.191 45.496 198.659 45.812C199.131 46.124 199.481 46.566 199.709 47.138C199.937 47.71 200.023 48.384 199.967 49.16H198.533V48.632C198.529 47.928 198.405 47.414 198.161 47.09C197.917 46.766 197.533 46.604 197.009 46.604C196.417 46.604 195.977 46.788 195.689 47.156C195.401 47.52 195.257 48.054 195.257 48.758C195.257 49.414 195.401 49.922 195.689 50.282C195.977 50.642 196.397 50.822 196.949 50.822C197.305 50.822 197.611 50.744 197.867 50.588C198.127 50.428 198.327 50.198 198.467 49.898L199.895 50.33C199.647 50.914 199.263 51.368 198.743 51.692C198.227 52.016 197.657 52.178 197.033 52.178ZM194.801 49.16V48.068H199.259V49.16H194.801ZM201.546 51.998V45.518H202.824V47.096L202.668 46.892C202.748 46.676 202.854 46.48 202.986 46.304C203.122 46.124 203.284 45.976 203.472 45.86C203.632 45.752 203.808 45.668 204 45.608C204.196 45.544 204.396 45.506 204.6 45.494C204.804 45.478 205.002 45.486 205.194 45.518V46.868C205.002 46.812 204.78 46.794 204.528 46.814C204.28 46.834 204.056 46.904 203.856 47.024C203.656 47.132 203.492 47.27 203.364 47.438C203.24 47.606 203.148 47.798 203.088 48.014C203.028 48.226 202.998 48.456 202.998 48.704V51.998H201.546ZM208.846 52.178C208.046 52.178 207.396 51.998 206.896 51.638C206.396 51.278 206.092 50.772 205.984 50.12L207.46 49.892C207.536 50.212 207.704 50.464 207.964 50.648C208.224 50.832 208.552 50.924 208.948 50.924C209.296 50.924 209.564 50.856 209.752 50.72C209.944 50.58 210.04 50.39 210.04 50.15C210.04 50.002 210.004 49.884 209.932 49.796C209.864 49.704 209.712 49.616 209.476 49.532C209.24 49.448 208.878 49.342 208.39 49.214C207.846 49.07 207.414 48.916 207.094 48.752C206.774 48.584 206.544 48.386 206.404 48.158C206.264 47.93 206.194 47.654 206.194 47.33C206.194 46.926 206.3 46.574 206.512 46.274C206.724 45.974 207.02 45.744 207.4 45.584C207.78 45.42 208.228 45.338 208.744 45.338C209.248 45.338 209.694 45.416 210.082 45.572C210.474 45.728 210.79 45.95 211.03 46.238C211.27 46.526 211.418 46.864 211.474 47.252L209.998 47.516C209.962 47.24 209.836 47.022 209.62 46.862C209.408 46.702 209.124 46.612 208.768 46.592C208.428 46.572 208.154 46.624 207.946 46.748C207.738 46.868 207.634 47.038 207.634 47.258C207.634 47.382 207.676 47.488 207.76 47.576C207.844 47.664 208.012 47.752 208.264 47.84C208.52 47.928 208.9 48.036 209.404 48.164C209.92 48.296 210.332 48.448 210.64 48.62C210.952 48.788 211.176 48.99 211.312 49.226C211.452 49.462 211.522 49.748 211.522 50.084C211.522 50.736 211.284 51.248 210.808 51.62C210.336 51.992 209.682 52.178 208.846 52.178ZM213.316 51.998V50.516H214.798V51.998H213.316Z" fill="url(#paint0_linear_345_55289)"/>
<defs>
<linearGradient id="paint0_linear_345_55289" x1="-61.5" y1="37" x2="237.741" y2="57.4696" gradientUnits="userSpaceOnUse">
<stop stop-color="#2F98F0"/>
<stop offset="1" stop-color="#4C4C4C"/>
</linearGradient>
</defs>
</svg>
