<svg width="6841" height="1044" viewBox="0 0 6841 1044" fill="none" xmlns="http://www.w3.org/2000/svg">
<path d="M0 719.91V109.859L542.572 0.000387742L937.597 323.994L396.975 433.851V1043.9L0 719.91Z" fill="black"/>
<path d="M1408.68 324.007V934.057L866.108 1043.92L471.083 719.923L1011.71 610.065V0.0134086L1408.68 324.007Z" fill="black"/>
<path d="M2258.01 533.197C2242.06 549.144 2222.76 557.117 2200.12 557.117H2099.59L2281.93 764.424H2127.32L1866.62 469.064H2165.45V367.144H1813.24V764.424H1696.76V279.091H2200.12C2222.76 279.091 2242.06 287.064 2258.01 303.011C2273.96 318.957 2281.93 338.262 2281.93 360.904V475.304C2281.93 497.956 2273.96 517.251 2258.01 533.197Z" fill="black"/>
<path d="M2871.95 469.062V557.115H2482.99V676.369H2951.68V764.422H2448.32C2425.67 764.422 2406.38 756.449 2390.43 740.502C2374.48 724.555 2366.51 705.261 2366.51 682.609V360.902C2366.51 338.261 2374.48 318.955 2390.43 303.009C2406.38 287.062 2425.67 279.089 2448.32 279.089H2935.04V367.142H2482.99V469.062H2871.95Z" fill="black"/>
<path d="M3611.03 360.902V475.302C3611.03 497.955 3603.06 517.249 3587.12 533.195C3571.17 549.142 3551.86 557.115 3529.22 557.115H3224.15V469.062H3494.55V367.142H3142.34V764.422H3025.86V279.089H3529.22C3551.86 279.089 3571.17 287.062 3587.12 303.009C3603.06 318.955 3611.03 338.261 3611.03 360.902Z" fill="black"/>
<path d="M4189.97 469.062V557.115H3801.01V676.369H4269.7V764.422H3766.34C3743.69 764.422 3724.39 756.449 3708.45 740.502C3692.5 724.555 3684.53 705.261 3684.53 682.609V360.902C3684.53 338.261 3692.5 318.955 3708.45 303.009C3724.39 287.062 3743.69 279.089 3766.34 279.089H4253.06V367.142H3801.01V469.062H4189.97Z" fill="black"/>
<path d="M4367.8 740.504C4351.85 724.557 4343.88 705.262 4343.88 682.61V279.091H4460.36V663.197H4929.74V764.424H4425.69C4403.04 764.424 4383.74 756.45 4367.8 740.504Z" fill="black"/>
<path d="M5019.52 740.504C5003.57 724.557 4995.6 705.262 4995.6 682.61V279.091H5112.08V663.197H5581.47V764.424H5077.41C5054.76 764.424 5035.47 756.45 5019.52 740.504Z" fill="black"/>
<path d="M6116.71 367.142H5763.81V676.368H6116.71V367.142ZM6209.27 303.009C6225.22 318.955 6233.19 338.261 6233.19 360.902V682.609C6233.19 705.262 6225.22 724.555 6209.27 740.502C6193.33 756.449 6174.02 764.422 6151.38 764.422H5729.14C5706.49 764.422 5687.19 756.449 5671.25 740.502C5655.3 724.555 5647.33 705.262 5647.33 682.609V360.902C5647.33 338.261 5655.3 318.955 5671.25 303.009C5687.19 287.062 5706.49 279.089 5729.14 279.089H6151.38C6174.02 279.089 6193.33 287.062 6209.27 303.009Z" fill="black"/>
<path d="M6669.38 493.334H6630.9V332.96H6669.38V493.334ZM6558.97 493.334L6541.78 453.467H6497.34V424.374H6529.18L6502.38 362.52L6445.57 493.334H6403.65L6473.29 332.96H6531.25L6600.89 493.334H6558.97ZM6384.81 277.813L6282.37 539.627H6737.7L6840.14 277.813H6384.81Z" fill="black"/>
</svg>
