<?xml version="1.0" encoding="utf-8"?>
<!-- Generator: Adobe Illustrator 16.0.0, SVG Export Plug-In . SVG Version: 6.00 Build 0)  -->
<!DOCTYPE svg PUBLIC "-//W3C//DTD SVG 1.1//EN" "http://www.w3.org/Graphics/SVG/1.1/DTD/svg11.dtd">
<svg version="1.1" id="Layer_1" xmlns="http://www.w3.org/2000/svg" xmlns:xlink="http://www.w3.org/1999/xlink" x="0px" y="0px"
	 width="200px" height="60px" viewBox="0 0 200 60" enable-background="new 0 0 200 60" xml:space="preserve">
<g>
	<path fill="#FFFFFF" d="M63.313,45.44v-2.813l-2.093-3.813h0.974l0.932,1.828c0.258,0.501,0.455,0.903,0.659,1.365h0.02
		c0.187-0.431,0.414-0.864,0.669-1.365l0.952-1.828h0.974l-2.222,3.805v2.82H63.313z"/>
	<path fill="#FFFFFF" d="M70.881,43.022c0,1.757-1.219,2.522-2.37,2.522c-1.285,0-2.278-0.942-2.278-2.447
		c0-1.593,1.041-2.523,2.359-2.523C69.956,40.574,70.881,41.568,70.881,43.022z M67.106,43.071c0,1.04,0.6,1.826,1.445,1.826
		c0.824,0,1.444-0.772,1.444-1.847c0-0.805-0.403-1.828-1.425-1.828C67.549,41.223,67.106,42.166,67.106,43.071z"/>
	<path fill="#FFFFFF" d="M76.15,44.142c0,0.493,0.009,0.924,0.04,1.299h-0.768l-0.05-0.779h-0.02
		c-0.227,0.388-0.727,0.887-1.572,0.887c-0.747,0-1.641-0.413-1.641-2.082v-2.782h0.866v2.634c0,0.905,0.274,1.513,1.062,1.513
		c0.579,0,0.981-0.4,1.139-0.786c0.05-0.126,0.08-0.282,0.08-0.44v-2.92h0.865L76.15,44.142L76.15,44.142z"/>
	<path fill="#FFFFFF" d="M77.781,42.166c0-0.563-0.01-1.043-0.04-1.485h0.756l0.032,0.934h0.039c0.215-0.637,0.737-1.04,1.315-1.04
		c0.1,0,0.167,0.009,0.248,0.027v0.816c-0.09-0.02-0.178-0.028-0.296-0.028c-0.609,0-1.042,0.461-1.16,1.108
		c-0.02,0.121-0.038,0.257-0.038,0.402v2.537h-0.855L77.781,42.166L77.781,42.166z"/>
	<path fill="#FFFFFF" d="M83.355,44.554c0.255,0.167,0.707,0.344,1.138,0.344c0.631,0,0.925-0.315,0.925-0.703
		c0-0.413-0.245-0.641-0.885-0.876c-0.855-0.305-1.258-0.772-1.258-1.347c0-0.769,0.619-1.393,1.641-1.393
		c0.482,0,0.905,0.136,1.171,0.294l-0.216,0.629c-0.188-0.118-0.531-0.275-0.974-0.275c-0.51,0-0.796,0.294-0.796,0.647
		c0,0.394,0.287,0.571,0.905,0.806c0.824,0.313,1.247,0.728,1.247,1.432c0,0.838-0.648,1.426-1.778,1.426
		c-0.52,0-1-0.127-1.336-0.324L83.355,44.554z"/>
	<path fill="#FFFFFF" d="M88.043,43.217c0.021,1.171,0.766,1.655,1.632,1.655c0.618,0,0.991-0.11,1.316-0.249l0.148,0.619
		c-0.306,0.139-0.825,0.294-1.581,0.294c-1.466,0-2.34-0.963-2.34-2.396c0-1.436,0.845-2.565,2.229-2.565
		c1.552,0,1.964,1.365,1.964,2.242c0,0.176-0.018,0.313-0.027,0.4H88.043L88.043,43.217z M90.579,42.6
		c0.011-0.551-0.224-1.404-1.198-1.404c-0.874,0-1.258,0.804-1.327,1.404H90.579z"/>
	<path fill="#FFFFFF" d="M96.073,45.263c-0.228,0.118-0.728,0.274-1.365,0.274c-1.435,0-2.37-0.974-2.37-2.428
		c0-1.465,1.002-2.523,2.555-2.523c0.511,0,0.964,0.126,1.199,0.246L95.895,41.5c-0.207-0.118-0.531-0.226-1.001-0.226
		c-1.091,0-1.68,0.805-1.68,1.798c0,1.102,0.708,1.779,1.652,1.779c0.491,0,0.814-0.128,1.061-0.235L96.073,45.263z"/>
	<path fill="#FFFFFF" d="M101.263,44.142c0,0.493,0.011,0.924,0.04,1.299h-0.766l-0.053-0.779h-0.019
		c-0.224,0.388-0.728,0.887-1.572,0.887c-0.746,0-1.642-0.413-1.642-2.082v-2.782h0.867v2.634c0,0.905,0.273,1.513,1.062,1.513
		c0.579,0,0.981-0.4,1.139-0.786c0.05-0.126,0.08-0.282,0.08-0.44v-2.92h0.865L101.263,44.142L101.263,44.142z"/>
	<path fill="#FFFFFF" d="M102.896,42.166c0-0.563-0.013-1.043-0.042-1.485h0.757l0.031,0.934h0.039
		c0.214-0.637,0.736-1.04,1.316-1.04c0.099,0,0.168,0.009,0.246,0.027v0.816c-0.09-0.02-0.178-0.028-0.294-0.028
		c-0.609,0-1.044,0.461-1.162,1.108c-0.017,0.121-0.04,0.257-0.04,0.402v2.537h-0.854L102.896,42.166L102.896,42.166z"/>
	<path fill="#FFFFFF" d="M107.309,39.347c0.009,0.294-0.208,0.53-0.55,0.53c-0.307,0-0.522-0.236-0.522-0.53
		c0-0.305,0.227-0.541,0.541-0.541C107.101,38.806,107.309,39.04,107.309,39.347z M106.344,45.44v-4.757h0.866v4.757H106.344z"/>
	<path fill="#FFFFFF" d="M109.882,39.315v1.366h1.237v0.66h-1.237v2.563c0,0.592,0.167,0.923,0.648,0.923
		c0.228,0,0.393-0.028,0.502-0.055l0.039,0.646c-0.168,0.069-0.432,0.119-0.768,0.119c-0.403,0-0.727-0.129-0.935-0.363
		c-0.246-0.256-0.333-0.677-0.333-1.238v-2.592h-0.738v-0.661h0.738v-1.142L109.882,39.315z"/>
	<path fill="#FFFFFF" d="M112.696,40.684l1.04,2.81c0.109,0.313,0.226,0.689,0.307,0.976h0.018c0.089-0.286,0.187-0.65,0.305-0.994
		l0.943-2.79h0.912l-1.296,3.391c-0.62,1.631-1.044,2.467-1.632,2.976c-0.421,0.376-0.844,0.523-1.06,0.563l-0.219-0.729
		c0.219-0.069,0.501-0.207,0.758-0.424c0.236-0.188,0.53-0.521,0.727-0.963c0.04-0.089,0.07-0.156,0.07-0.207
		s-0.02-0.12-0.058-0.225l-1.761-4.383L112.696,40.684L112.696,40.684z"/>
	<path fill="#FFFFFF" d="M116.262,46.646c0.218-0.577,0.482-1.628,0.593-2.346l0.961-0.099c-0.224,0.838-0.66,1.926-0.936,2.389
		L116.262,46.646z"/>
	<path fill="#FFFFFF" d="M127.025,42.059c0,2.278-1.388,3.487-3.076,3.487c-1.751,0-2.979-1.353-2.979-3.36
		c0-2.103,1.311-3.476,3.076-3.476C125.855,38.707,127.025,40.092,127.025,42.059z M121.885,42.166c0,1.416,0.769,2.683,2.114,2.683
		c1.355,0,2.121-1.25,2.121-2.752c0-1.317-0.688-2.691-2.113-2.691C122.591,39.405,121.885,40.712,121.885,42.166z"/>
	<path fill="#FFFFFF" d="M132.313,44.142c0,0.493,0.01,0.924,0.039,1.299h-0.769l-0.049-0.779h-0.018
		c-0.228,0.388-0.729,0.887-1.573,0.887c-0.748,0-1.642-0.413-1.642-2.082v-2.782h0.866v2.634c0,0.905,0.275,1.513,1.062,1.513
		c0.58,0,0.982-0.4,1.14-0.786c0.052-0.126,0.079-0.282,0.079-0.44v-2.92h0.868L132.313,44.142L132.313,44.142z"/>
	<path fill="#FFFFFF" d="M133.944,42.166c0-0.563-0.01-1.043-0.04-1.485h0.756l0.03,0.934h0.041c0.216-0.637,0.735-1.04,1.316-1.04
		c0.1,0,0.167,0.009,0.246,0.027v0.816c-0.089-0.02-0.176-0.028-0.294-0.028c-0.606,0-1.042,0.461-1.158,1.108
		c-0.021,0.121-0.043,0.257-0.043,0.402v2.537h-0.854L133.944,42.166L133.944,42.166L133.944,42.166z"/>
	<path fill="#FFFFFF" d="M143.026,45.263c-0.227,0.118-0.728,0.274-1.367,0.274c-1.433,0-2.367-0.974-2.367-2.428
		c0-1.465,1.002-2.523,2.556-2.523c0.509,0,0.963,0.126,1.198,0.246L142.85,41.5c-0.206-0.118-0.531-0.226-1.002-0.226
		c-1.091,0-1.682,0.805-1.682,1.798c0,1.102,0.703,1.779,1.65,1.779c0.492,0,0.815-0.128,1.063-0.235L143.026,45.263z"/>
	<path fill="#FFFFFF" d="M148.479,43.022c0,1.757-1.218,2.522-2.367,2.522c-1.287,0-2.279-0.942-2.279-2.447
		c0-1.593,1.043-2.523,2.357-2.523C147.561,40.574,148.479,41.568,148.479,43.022z M144.707,43.071c0,1.04,0.599,1.826,1.445,1.826
		c0.827,0,1.443-0.772,1.443-1.847c0-0.805-0.401-1.828-1.421-1.828C145.149,41.223,144.707,42.166,144.707,43.071z"/>
	<path fill="#FFFFFF" d="M149.771,41.97c0-0.493-0.012-0.895-0.042-1.286h0.758l0.039,0.769h0.03
		c0.264-0.454,0.705-0.873,1.493-0.873c0.65,0,1.138,0.393,1.348,0.952h0.018c0.149-0.266,0.331-0.472,0.529-0.62
		c0.285-0.218,0.6-0.332,1.055-0.332c0.627,0,1.558,0.411,1.558,2.062v2.801h-0.842v-2.692c0-0.914-0.333-1.464-1.032-1.464
		c-0.492,0-0.875,0.361-1.021,0.785c-0.04,0.118-0.069,0.277-0.069,0.432v2.938h-0.843V42.59c0-0.757-0.334-1.307-0.994-1.307
		c-0.543,0-0.936,0.429-1.071,0.865c-0.052,0.128-0.068,0.276-0.068,0.422v2.87h-0.846V41.97H149.771L149.771,41.97z"/>
	<path fill="#FFFFFF" d="M158.162,41.97c0-0.493-0.009-0.895-0.037-1.286h0.756l0.039,0.769h0.032
		c0.266-0.454,0.706-0.873,1.492-0.873c0.648,0,1.137,0.393,1.347,0.952h0.02c0.147-0.266,0.333-0.472,0.529-0.62
		c0.287-0.218,0.6-0.332,1.049-0.332c0.631,0,1.564,0.411,1.564,2.062v2.801h-0.845v-2.692c0-0.914-0.333-1.464-1.03-1.464
		c-0.494,0-0.877,0.361-1.024,0.785c-0.038,0.118-0.069,0.277-0.069,0.432v2.938h-0.843V42.59c0-0.757-0.334-1.307-0.993-1.307
		c-0.542,0-0.935,0.429-1.072,0.865c-0.053,0.128-0.067,0.276-0.067,0.422v2.87h-0.847V41.97L158.162,41.97z"/>
	<path fill="#FFFFFF" d="M167.521,39.347c0.01,0.294-0.207,0.53-0.549,0.53c-0.307,0-0.521-0.236-0.521-0.53
		c0-0.305,0.223-0.541,0.539-0.541C167.314,38.806,167.521,39.04,167.521,39.347z M166.557,45.44v-4.757h0.868v4.757H166.557z"/>
	<path fill="#FFFFFF" d="M170.097,39.315v1.366h1.236v0.66h-1.236v2.563c0,0.592,0.166,0.923,0.646,0.923
		c0.227,0,0.394-0.028,0.5-0.055l0.042,0.646c-0.166,0.069-0.433,0.119-0.767,0.119c-0.406,0-0.729-0.129-0.938-0.363
		c-0.247-0.256-0.332-0.677-0.332-1.238v-2.592h-0.735v-0.661h0.735v-1.142L170.097,39.315z"/>
	<path fill="#FFFFFF" d="M172.504,41.97c0-0.493-0.01-0.895-0.038-1.286h0.756l0.04,0.769h0.028
		c0.267-0.454,0.707-0.873,1.494-0.873c0.648,0,1.139,0.393,1.347,0.952h0.019c0.148-0.266,0.332-0.472,0.53-0.62
		c0.285-0.218,0.602-0.332,1.053-0.332c0.629,0,1.563,0.411,1.563,2.062v2.801h-0.848v-2.692c0-0.914-0.333-1.464-1.03-1.464
		c-0.493,0-0.875,0.361-1.021,0.785c-0.042,0.118-0.069,0.277-0.069,0.432v2.938h-0.845V42.59c0-0.757-0.336-1.307-0.992-1.307
		c-0.543,0-0.936,0.429-1.071,0.865c-0.052,0.128-0.069,0.276-0.069,0.422v2.87h-0.845V41.97L172.504,41.97z"/>
	<path fill="#FFFFFF" d="M181.379,43.217c0.021,1.171,0.768,1.655,1.632,1.655c0.619,0,0.992-0.11,1.316-0.249l0.149,0.619
		c-0.305,0.139-0.826,0.294-1.584,0.294c-1.462,0-2.338-0.963-2.338-2.396c0-1.436,0.845-2.565,2.23-2.565
		c1.553,0,1.966,1.365,1.966,2.242c0,0.176-0.019,0.313-0.027,0.4H181.379L181.379,43.217z M183.914,42.6
		c0.011-0.551-0.225-1.404-1.196-1.404c-0.873,0-1.257,0.804-1.327,1.404H183.914z"/>
	<path fill="#FFFFFF" d="M186.021,41.97c0-0.493-0.012-0.895-0.041-1.286h0.767l0.05,0.787h0.021
		c0.234-0.453,0.786-0.896,1.571-0.896c0.659,0,1.679,0.395,1.679,2.024v2.842h-0.863v-2.744c0-0.767-0.284-1.405-1.102-1.405
		c-0.569,0-1.011,0.405-1.158,0.885c-0.04,0.109-0.061,0.256-0.061,0.403v2.859h-0.862V41.97L186.021,41.97z"/>
	<path fill="#FFFFFF" d="M192.674,39.315v1.366h1.238v0.66h-1.238v2.563c0,0.592,0.168,0.923,0.647,0.923
		c0.225,0,0.394-0.028,0.503-0.055l0.039,0.646c-0.167,0.069-0.435,0.119-0.768,0.119c-0.404,0-0.73-0.129-0.935-0.363
		c-0.247-0.256-0.335-0.677-0.335-1.238v-2.592h-0.738v-0.661h0.738v-1.142L192.674,39.315z"/>
</g>
<g>
	<g>
		<path fill="#FFFFFF" d="M68.056,19.712c-0.839,0-1.525,0.171-2.063,0.513c-0.537,0.342-0.804,0.859-0.804,1.55
			c0,0.692,0.269,1.22,0.804,1.585c0.538,0.367,1.68,0.761,3.429,1.183c1.75,0.424,3.066,1.015,3.954,1.781
			c0.886,0.765,1.33,1.892,1.33,3.38c0,1.488-0.561,2.693-1.683,3.62c-1.124,0.93-2.595,1.393-4.417,1.393
			c-2.667,0-5.035-0.919-7.1-2.758l1.806-2.171c1.724,1.498,3.513,2.245,5.368,2.245c0.926,0,1.663-0.199,2.208-0.599
			c0.545-0.398,0.817-0.927,0.817-1.585c0-0.658-0.256-1.17-0.769-1.537c-0.512-0.366-1.395-0.701-2.648-1.001
			c-1.253-0.301-2.204-0.578-2.855-0.831s-1.228-0.582-1.732-0.987c-1.008-0.766-1.512-1.936-1.512-3.514s0.574-2.795,1.72-3.648
			c1.146-0.854,2.565-1.281,4.258-1.281c1.089,0,2.171,0.179,3.246,0.537c1.074,0.357,2,0.862,2.782,1.513l-1.537,2.171
			c-0.504-0.456-1.188-0.829-2.05-1.123C69.743,19.859,68.894,19.712,68.056,19.712z"/>
		<path fill="#FFFFFF" d="M84.758,21.348c1.772,0,3.245,0.494,4.417,1.477c1.171,0.982,1.765,2.265,1.781,3.844l0.024,0.048
			l-9.468,3.978c0.845,1.043,1.998,1.562,3.454,1.562c1.455,0,2.654-0.569,3.599-1.709l1.61,1.781
			c-1.546,1.595-3.368,2.393-5.466,2.393c-1.839,0-3.417-0.611-4.734-1.832c-1.317-1.218-1.976-2.829-1.976-4.832
			c0-1.383,0.342-2.599,1.025-3.646c0.683-1.049,1.528-1.821,2.537-2.317C82.57,21.597,83.635,21.348,84.758,21.348z M80.634,28.107
			c0,0.212,0.008,0.367,0.024,0.462l7.198-3.099c-0.553-1.072-1.537-1.61-2.953-1.61c-1.074,0-2.054,0.375-2.941,1.123
			C81.078,25.731,80.634,26.773,80.634,28.107z"/>
		<path fill="#FFFFFF" d="M100.521,34.721c-1.805,0-3.359-0.615-4.66-1.845c-1.302-1.227-1.952-2.833-1.952-4.817
			c0-1.985,0.679-3.599,2.037-4.845c1.357-1.244,3.013-1.866,4.964-1.866c1.953,0,3.604,0.675,4.954,2.026l-1.609,1.975
			c-1.123-0.976-2.253-1.462-3.394-1.462c-1.138,0-2.127,0.378-2.963,1.134c-0.839,0.756-1.258,1.73-1.258,2.928
			c0,1.197,0.416,2.208,1.245,3.037c0.83,0.83,1.851,1.245,3.064,1.245c1.212,0,2.353-0.552,3.428-1.659l1.61,1.757
			C104.41,33.923,102.587,34.721,100.521,34.721z"/>
		<path fill="#FFFFFF" d="M112.527,27.497v7.027h-2.733V21.542h2.733v2.367c0.439-0.797,1.044-1.422,1.817-1.879
			c0.771-0.455,1.607-0.683,2.5-0.683c1.465,0,2.647,0.446,3.551,1.343c0.904,0.895,1.354,2.187,1.354,3.879v7.955h-2.734v-7.126
			c0-2.392-0.991-3.587-2.977-3.587c-0.943,0-1.766,0.315-2.465,0.941C112.874,25.38,112.527,26.293,112.527,27.497z"/>
		<path fill="#FFFFFF" d="M132.438,21.348c1.773,0,3.246,0.494,4.418,1.477c1.171,0.982,1.763,2.265,1.781,3.844l0.024,0.048
			l-9.468,3.978c0.845,1.043,1.996,1.562,3.452,1.562c1.455,0,2.653-0.569,3.6-1.709l1.611,1.781
			c-1.547,1.595-3.37,2.393-5.466,2.393c-1.838,0-3.416-0.611-4.735-1.832c-1.316-1.218-1.976-2.829-1.976-4.832
			c0-1.383,0.342-2.599,1.023-3.646c0.685-1.049,1.53-1.821,2.54-2.317C130.25,21.597,131.315,21.348,132.438,21.348z
			 M128.313,28.107c0,0.212,0.01,0.367,0.026,0.462l7.197-3.099c-0.553-1.072-1.536-1.61-2.952-1.61
			c-1.073,0-2.054,0.375-2.941,1.123C128.758,25.731,128.313,26.773,128.313,28.107z"/>
		<path fill="#FFFFFF" d="M151.521,28.57v-7.027h2.731v12.981h-2.731v-2.367c-0.439,0.798-1.045,1.424-1.818,1.88
			c-0.773,0.455-1.607,0.683-2.5,0.683c-1.465,0-2.648-0.448-3.552-1.342c-0.902-0.896-1.354-2.188-1.354-3.882v-7.955h2.733v7.125
			c0,2.392,0.991,3.587,2.976,3.587c0.944,0,1.765-0.313,2.466-0.94C151.17,30.689,151.521,29.775,151.521,28.57z"/>
		<path fill="#FFFFFF" d="M165.99,24.105c-1.353,0-2.368,0.439-3.051,1.318c-0.684,0.878-1.025,2.06-1.025,3.541v5.563h-2.731
			V21.545h2.731v2.611c0.44-0.812,1.038-1.479,1.794-2.001c0.756-0.52,1.559-0.789,2.403-0.804l0.024,2.757
			C166.087,24.105,166.039,24.105,165.99,24.105z"/>
		<path fill="#FFFFFF" d="M170.845,32.865c-1.218-1.236-1.83-2.863-1.83-4.88c0-2.017,0.626-3.627,1.879-4.831
			c1.253-1.204,2.733-1.806,4.44-1.806c1.71,0,3.114,0.813,4.222,2.442v-2.245h2.733v12.981h-2.733v-2.123
			c-0.52,0.75-1.182,1.321-1.988,1.723c-0.805,0.397-1.614,0.6-2.427,0.6C173.497,34.721,172.065,34.102,170.845,32.865z
			 M171.749,28.094c0,1.246,0.398,2.257,1.195,3.037c0.798,0.781,1.732,1.172,2.807,1.172c1.073,0,1.984-0.394,2.731-1.182
			c0.75-0.79,1.123-1.802,1.123-3.039c0-1.236-0.373-2.27-1.123-3.099c-0.747-0.832-1.667-1.245-2.755-1.245
			c-1.092,0-2.027,0.414-2.809,1.245C172.139,25.813,171.749,26.851,171.749,28.094z"/>
		<path fill="#FFFFFF" d="M193.71,33.597c-0.65,0.749-1.559,1.124-2.731,1.124c-1.172,0-2.109-0.351-2.819-1.052
			c-0.708-0.698-1.061-1.729-1.061-3.097V17.468h2.731v12.787c0,1.301,0.488,1.951,1.465,1.951c0.568,0,0.976-0.203,1.22-0.611
			L193.71,33.597z"/>
	</g>
</g>
<g>
	
		<linearGradient id="SVGID_1_" gradientUnits="userSpaceOnUse" x1="616.5645" y1="-774.6836" x2="675.446" y2="-773.6543" gradientTransform="matrix(1 0 0 -1 -615.9805 -744.9707)">
		<stop  offset="0" style="stop-color:#264093"/>
		<stop  offset="0.2214" style="stop-color:#326EA3"/>
		<stop  offset="0.4664" style="stop-color:#3E99B1"/>
		<stop  offset="0.6868" style="stop-color:#47B9BC"/>
		<stop  offset="0.8721" style="stop-color:#4CCCC3"/>
		<stop  offset="1" style="stop-color:#4ED3C5"/>
	</linearGradient>
	<circle fill="url(#SVGID_1_)" cx="10.426" cy="29.54" r="2.425"/>
	
		<linearGradient id="SVGID_2_" gradientUnits="userSpaceOnUse" x1="616.5732" y1="-775.2358" x2="675.4742" y2="-774.2061" gradientTransform="matrix(1 0 0 -1 -615.9805 -744.9707)">
		<stop  offset="0" style="stop-color:#264093"/>
		<stop  offset="0.2214" style="stop-color:#326EA3"/>
		<stop  offset="0.4664" style="stop-color:#3E99B1"/>
		<stop  offset="0.6868" style="stop-color:#47B9BC"/>
		<stop  offset="0.8721" style="stop-color:#4CCCC3"/>
		<stop  offset="1" style="stop-color:#4ED3C5"/>
	</linearGradient>
	<circle fill="url(#SVGID_2_)" cx="42.118" cy="29.54" r="2.425"/>
	
		<linearGradient id="SVGID_3_" gradientUnits="userSpaceOnUse" x1="668.6709" y1="-775.084" x2="609.7542" y2="-775.084" gradientTransform="matrix(1 0 0 -1 -615.9805 -744.9707)">
		<stop  offset="0" style="stop-color:#40C7E7"/>
		<stop  offset="1" style="stop-color:#4070E7"/>
	</linearGradient>
	<path fill="url(#SVGID_3_)" d="M26.64,3.474c-8.722,0-16.462,4.193-21.323,10.668c0.342,0.028,0.688,0.042,1.034,0.042h6.388
		c2.709,0,5.306-0.839,7.698-2.108c0.73-0.39,1.557-0.615,2.436-0.634c2.991-0.069,5.569,2.403,5.62,5.394
		c0.053,3.077-2.425,5.589-5.491,5.589c-0.939,0-1.822-0.236-2.593-0.651c-2.961-1.592-6.177-2.645-9.538-2.645H8.218
		c-2.191,0-4.319,0.453-6.357,1.206C0.665,23.364,0,26.661,0,30.113c0,3.519,0.689,6.875,1.929,9.951
		c1.17,0.304,2.372,0.484,3.596,0.484h6.388c2.709,0,5.306-0.838,7.7-2.107c0.728-0.39,1.556-0.614,2.435-0.635
		c2.991-0.069,5.569,2.403,5.62,5.394c0.054,3.078-2.426,5.59-5.49,5.59c-0.94,0-1.822-0.235-2.594-0.651
		c-2.961-1.592-6.176-2.646-9.538-2.646H7.394c-0.8,0-1.592,0.064-2.374,0.177c4.837,6.711,12.716,11.084,21.62,11.084
		c14.712,0,26.639-11.929,26.639-26.641C53.279,15.401,41.353,3.474,26.64,3.474z M42.279,36.17c-1.102,0-2.144-0.278-3.052-0.768
		c-3.486-1.871-7.274-3.113-11.23-3.113h-3.124c-3.957,0-7.747,1.242-11.231,3.113c-0.909,0.489-1.949,0.768-3.054,0.768
		c-3.61,0-6.528-2.957-6.466-6.583c0.06-3.521,3.096-6.433,6.617-6.35c1.036,0.022,2.009,0.291,2.868,0.746
		c2.818,1.497,5.875,2.485,9.065,2.485h7.521c3.19,0,6.249-0.988,9.068-2.485c0.858-0.456,1.832-0.724,2.866-0.746
		c3.522-0.083,6.559,2.83,6.62,6.35C48.808,33.214,45.89,36.17,42.279,36.17z"/>
	
		<linearGradient id="SVGID_4_" gradientUnits="userSpaceOnUse" x1="616.8047" y1="-788.5" x2="675.6998" y2="-787.4703" gradientTransform="matrix(1 0 0 -1 -615.9805 -744.9707)">
		<stop  offset="0" style="stop-color:#264093"/>
		<stop  offset="0.2214" style="stop-color:#326EA3"/>
		<stop  offset="0.4664" style="stop-color:#3E99B1"/>
		<stop  offset="0.6868" style="stop-color:#47B9BC"/>
		<stop  offset="0.8721" style="stop-color:#4CCCC3"/>
		<stop  offset="1" style="stop-color:#4ED3C5"/>
	</linearGradient>
	<circle fill="url(#SVGID_4_)" cx="22.039" cy="43.158" r="2.06"/>
	
		<linearGradient id="SVGID_5_" gradientUnits="userSpaceOnUse" x1="616.3525" y1="-762.1587" x2="675.2274" y2="-761.1294" gradientTransform="matrix(1 0 0 -1 -615.9805 -744.9707)">
		<stop  offset="0" style="stop-color:#264093"/>
		<stop  offset="0.2214" style="stop-color:#326EA3"/>
		<stop  offset="0.4664" style="stop-color:#3E99B1"/>
		<stop  offset="0.6868" style="stop-color:#47B9BC"/>
		<stop  offset="0.8721" style="stop-color:#4CCCC3"/>
		<stop  offset="1" style="stop-color:#4ED3C5"/>
	</linearGradient>
	<circle fill="url(#SVGID_5_)" cx="22.864" cy="16.795" r="2.06"/>
</g>
</svg>
